<?xml version="1.0" encoding="UTF-8" standalone="no"?>
<!DOCTYPE svg PUBLIC "-//W3C//DTD SVG 1.1//EN"
 "http://www.w3.org/Graphics/SVG/1.1/DTD/svg11.dtd">
<!-- Generated by graphviz version 2.43.0 (0)
 -->
<!-- Title: App\Controllers\LangController\initializeLanguage Pages: 1 -->
<svg width="578pt" height="86pt"
 viewBox="0.00 0.00 578.00 86.00" xmlns="http://www.w3.org/2000/svg" xmlns:xlink="http://www.w3.org/1999/xlink">
<g id="graph0" class="graph" transform="scale(1 1) rotate(0) translate(4 82)">
<title>App\Controllers\LangController\initializeLanguage</title>
<!-- Node1 -->
<g id="Node000001" class="node">
<title>Node1</title>
<g id="a_Node000001"><a xlink:title="Inicializa el idioma de la aplicación.">
<polygon fill="#999999" stroke="#666666" points="166,-56 0,-56 0,-26 166,-26 166,-56"/>
<text text-anchor="start" x="8" y="-44" font-family="Helvetica,sans-Serif" font-size="10.00">App\Controllers\LangController</text>
<text text-anchor="middle" x="83" y="-33" font-family="Helvetica,sans-Serif" font-size="10.00">\initializeLanguage</text>
</a>
</g>
</g>
<!-- Node2 -->
<g id="Node000002" class="node">
<title>Node2</title>
<g id="a_Node000002"><a xlink:href="classApp_1_1Controllers_1_1LangController.html#a6f8a96985210b857478f7abb5a1608fd" target="_top" xlink:title="Configura el entorno local (gettext) para el idioma seleccionado.">
<polygon fill="white" stroke="#666666" points="368,-35 202,-35 202,-5 368,-5 368,-35"/>
<text text-anchor="start" x="210" y="-23" font-family="Helvetica,sans-Serif" font-size="10.00">App\Controllers\LangController</text>
<text text-anchor="middle" x="285" y="-12" font-family="Helvetica,sans-Serif" font-size="10.00">\configureLocale</text>
</a>
</g>
</g>
<!-- Node1&#45;&gt;Node2 -->
<g id="edge1_Node000001_Node000002" class="edge">
<title>Node1&#45;&gt;Node2</title>
<g id="a_edge1_Node000001_Node000002"><a xlink:title=" ">
<path fill="none" stroke="#63b8ff" d="M166.21,-32.37C174.65,-31.48 183.27,-30.58 191.81,-29.68"/>
<polygon fill="#63b8ff" stroke="#63b8ff" points="192.2,-33.16 201.78,-28.63 191.47,-26.2 192.2,-33.16"/>
</a>
</g>
</g>
<!-- Node3 -->
<g id="Node000003" class="node">
<title>Node3</title>
<g id="a_Node000003"><a xlink:href="classApp_1_1Controllers_1_1LangController.html#ab6eaada711800b3e02fde27f12d51220" target="_top" xlink:title="Verifica si un idioma está soportado.">
<polygon fill="white" stroke="#666666" points="570,-78 404,-78 404,-48 570,-48 570,-78"/>
<text text-anchor="start" x="412" y="-66" font-family="Helvetica,sans-Serif" font-size="10.00">App\Controllers\LangController</text>
<text text-anchor="middle" x="487" y="-55" font-family="Helvetica,sans-Serif" font-size="10.00">\isLanguageSupported</text>
</a>
</g>
</g>
<!-- Node1&#45;&gt;Node3 -->
<g id="edge4_Node000001_Node000003" class="edge">
<title>Node1&#45;&gt;Node3</title>
<g id="a_edge4_Node000001_Node000003"><a xlink:title=" ">
<path fill="none" stroke="#63b8ff" d="M166.32,-45.51C232.31,-49.12 324.87,-54.18 393.43,-57.93"/>
<polygon fill="#63b8ff" stroke="#63b8ff" points="393.61,-61.45 403.79,-58.5 394,-54.46 393.61,-61.45"/>
</a>
</g>
</g>
<!-- Node2&#45;&gt;Node3 -->
<g id="edge2_Node000002_Node000003" class="edge">
<title>Node2&#45;&gt;Node3</title>
<g id="a_edge2_Node000002_Node000003"><a xlink:title=" ">
<path fill="none" stroke="#63b8ff" d="M355.95,-35.04C372.09,-38.51 389.38,-42.23 405.91,-45.78"/>
<polygon fill="#63b8ff" stroke="#63b8ff" points="405.58,-49.29 416.09,-47.97 407.05,-42.45 405.58,-49.29"/>
</a>
</g>
</g>
<!-- Node4 -->
<g id="Node000004" class="node">
<title>Node4</title>
<g id="a_Node000004"><a xlink:href="classApp_1_1Controllers_1_1LangController.html#adaa8e6a1db373704ed4513c6f78b2006" target="_top" xlink:title="Carga un dominio de texto adicional para gettext.">
<polygon fill="white" stroke="#666666" points="570,-30 404,-30 404,0 570,0 570,-30"/>
<text text-anchor="start" x="412" y="-18" font-family="Helvetica,sans-Serif" font-size="10.00">App\Controllers\LangController</text>
<text text-anchor="middle" x="487" y="-7" font-family="Helvetica,sans-Serif" font-size="10.00">\loadTextDomain</text>
</a>
</g>
</g>
<!-- Node2&#45;&gt;Node4 -->
<g id="edge3_Node000002_Node000004" class="edge">
<title>Node2&#45;&gt;Node4</title>
<g id="a_edge3_Node000002_Node000004"><a xlink:title=" ">
<path fill="none" stroke="#63b8ff" d="M368.21,-17.94C376.56,-17.74 385.08,-17.52 393.53,-17.31"/>
<polygon fill="#63b8ff" stroke="#63b8ff" points="393.87,-20.8 403.78,-17.06 393.7,-13.81 393.87,-20.8"/>
</a>
</g>
</g>
</g>
</svg>
