<?xml version="1.0" encoding="UTF-8" standalone="no"?>
<!DOCTYPE svg PUBLIC "-//W3C//DTD SVG 1.1//EN"
 "http://www.w3.org/Graphics/SVG/1.1/DTD/svg11.dtd">
<!-- Generated by graphviz version 2.43.0 (0)
 -->
<!-- Title: App\Controllers\StatsController\statisticsPageHandler Pages: 1 -->
<svg width="378pt" height="86pt"
 viewBox="0.00 0.00 378.00 86.00" xmlns="http://www.w3.org/2000/svg" xmlns:xlink="http://www.w3.org/1999/xlink">
<g id="graph0" class="graph" transform="scale(1 1) rotate(0) translate(4 82)">
<title>App\Controllers\StatsController\statisticsPageHandler</title>
<!-- Node1 -->
<g id="Node000001" class="node">
<title>Node1</title>
<g id="a_Node000001"><a xlink:title="Manejador de la página de estadísticas.">
<polygon fill="#999999" stroke="#666666" points="167,-54 0,-54 0,-24 167,-24 167,-54"/>
<text text-anchor="start" x="8" y="-42" font-family="Helvetica,sans-Serif" font-size="10.00">App\Controllers\StatsController</text>
<text text-anchor="middle" x="83.5" y="-31" font-family="Helvetica,sans-Serif" font-size="10.00">\statisticsPageHandler</text>
</a>
</g>
</g>
<!-- Node2 -->
<g id="Node000002" class="node">
<title>Node2</title>
<g id="a_Node000002"><a xlink:href="classApp_1_1Controllers_1_1StatsController.html#af2a1c7f7fb5c2ec3ddc6a82c7c9b5944" target="_top" xlink:title="Obtiene todas las estadísticas necesarias para la página de estadísticas.">
<polygon fill="white" stroke="#666666" points="370,-78 203,-78 203,-48 370,-48 370,-78"/>
<text text-anchor="start" x="211" y="-66" font-family="Helvetica,sans-Serif" font-size="10.00">App\Controllers\StatsController</text>
<text text-anchor="middle" x="286.5" y="-55" font-family="Helvetica,sans-Serif" font-size="10.00">\getAllStatsForPage</text>
</a>
</g>
</g>
<!-- Node1&#45;&gt;Node2 -->
<g id="edge1_Node000001_Node000002" class="edge">
<title>Node1&#45;&gt;Node2</title>
<g id="a_edge1_Node000001_Node000002"><a xlink:title=" ">
<path fill="none" stroke="#63b8ff" d="M167.12,-48.87C175.61,-49.88 184.27,-50.91 192.85,-51.94"/>
<polygon fill="#63b8ff" stroke="#63b8ff" points="192.53,-55.42 202.87,-53.13 193.36,-48.47 192.53,-55.42"/>
</a>
</g>
</g>
<!-- Node3 -->
<g id="Node000003" class="node">
<title>Node3</title>
<g id="a_Node000003"><a xlink:href="classApp_1_1Controllers_1_1StatsController.html#a54135d721d270bd3dec13083d4051dc6" target="_top" xlink:title="Obtiene la URL base del sitio.">
<polygon fill="white" stroke="#666666" points="370,-30 203,-30 203,0 370,0 370,-30"/>
<text text-anchor="start" x="211" y="-18" font-family="Helvetica,sans-Serif" font-size="10.00">App\Controllers\StatsController</text>
<text text-anchor="middle" x="286.5" y="-7" font-family="Helvetica,sans-Serif" font-size="10.00">\getBaseUrl</text>
</a>
</g>
</g>
<!-- Node1&#45;&gt;Node3 -->
<g id="edge2_Node000001_Node000003" class="edge">
<title>Node1&#45;&gt;Node3</title>
<g id="a_edge2_Node000001_Node000003"><a xlink:title=" ">
<path fill="none" stroke="#63b8ff" d="M167.12,-29.13C175.61,-28.12 184.27,-27.09 192.85,-26.06"/>
<polygon fill="#63b8ff" stroke="#63b8ff" points="193.36,-29.53 202.87,-24.87 192.53,-22.58 193.36,-29.53"/>
</a>
</g>
</g>
</g>
</svg>
