<?xml version="1.0" encoding="UTF-8" standalone="no"?>
<!DOCTYPE svg PUBLIC "-//W3C//DTD SVG 1.1//EN"
 "http://www.w3.org/Graphics/SVG/1.1/DTD/svg11.dtd">
<!-- Generated by graphviz version 2.43.0 (0)
 -->
<!-- Title: App\Controllers\AuthController\loginHandler Pages: 1 -->
<svg width="977pt" height="86pt"
 viewBox="0.00 0.00 977.00 86.00" xmlns="http://www.w3.org/2000/svg" xmlns:xlink="http://www.w3.org/1999/xlink">
<g id="graph0" class="graph" transform="scale(1 1) rotate(0) translate(4 82)">
<title>App\Controllers\AuthController\loginHandler</title>
<!-- Node1 -->
<g id="Node000001" class="node">
<title>Node1</title>
<g id="a_Node000001"><a xlink:title="Maneja la solicitud de inicio de sesión.">
<polygon fill="#999999" stroke="#666666" points="165,-54 0,-54 0,-24 165,-24 165,-54"/>
<text text-anchor="start" x="8" y="-42" font-family="Helvetica,sans-Serif" font-size="10.00">App\Controllers\AuthController</text>
<text text-anchor="middle" x="82.5" y="-31" font-family="Helvetica,sans-Serif" font-size="10.00">\loginHandler</text>
</a>
</g>
</g>
<!-- Node2 -->
<g id="Node000002" class="node">
<title>Node2</title>
<g id="a_Node000002"><a xlink:href="classApp_1_1Controllers_1_1AuthController.html#af4914b619824cf44e74a5c7c625cab73" target="_top" xlink:title="Inicia sesión de un usuario.">
<polygon fill="white" stroke="#666666" points="366,-54 201,-54 201,-24 366,-24 366,-54"/>
<text text-anchor="start" x="209" y="-42" font-family="Helvetica,sans-Serif" font-size="10.00">App\Controllers\AuthController</text>
<text text-anchor="middle" x="283.5" y="-31" font-family="Helvetica,sans-Serif" font-size="10.00">\login</text>
</a>
</g>
</g>
<!-- Node1&#45;&gt;Node2 -->
<g id="edge1_Node000001_Node000002" class="edge">
<title>Node1&#45;&gt;Node2</title>
<g id="a_edge1_Node000001_Node000002"><a xlink:title=" ">
<path fill="none" stroke="#63b8ff" d="M165.02,-39C173.5,-39 182.17,-39 190.76,-39"/>
<polygon fill="#63b8ff" stroke="#63b8ff" points="190.79,-42.5 200.79,-39 190.79,-35.5 190.79,-42.5"/>
</a>
</g>
</g>
<!-- Node3 -->
<g id="Node000003" class="node">
<title>Node3</title>
<g id="a_Node000003"><a xlink:href="classApp_1_1Controllers_1_1AuthController.html#acbdad71780d5fdd8b8245739664aba6b" target="_top" xlink:title="Crea un token JWT para el usuario.">
<polygon fill="white" stroke="#666666" points="567,-30 402,-30 402,0 567,0 567,-30"/>
<text text-anchor="start" x="410" y="-18" font-family="Helvetica,sans-Serif" font-size="10.00">App\Controllers\AuthController</text>
<text text-anchor="middle" x="484.5" y="-7" font-family="Helvetica,sans-Serif" font-size="10.00">\createJWT</text>
</a>
</g>
</g>
<!-- Node2&#45;&gt;Node3 -->
<g id="edge2_Node000002_Node000003" class="edge">
<title>Node2&#45;&gt;Node3</title>
<g id="a_edge2_Node000002_Node000003"><a xlink:title=" ">
<path fill="none" stroke="#63b8ff" d="M366.02,-29.17C374.5,-28.15 383.17,-27.1 391.76,-26.06"/>
<polygon fill="#63b8ff" stroke="#63b8ff" points="392.28,-29.53 401.79,-24.85 391.44,-22.58 392.28,-29.53"/>
</a>
</g>
</g>
<!-- Node7 -->
<g id="Node000007" class="node">
<title>Node7</title>
<g id="a_Node000007"><a xlink:href="classApp_1_1Controllers_1_1AuthController.html#a239c918cc9affeb44f560d762bdf61ce" target="_top" xlink:title="Genera un token de sesión para el usuario.">
<polygon fill="white" stroke="#666666" points="567,-78 402,-78 402,-48 567,-48 567,-78"/>
<text text-anchor="start" x="410" y="-66" font-family="Helvetica,sans-Serif" font-size="10.00">App\Controllers\AuthController</text>
<text text-anchor="middle" x="484.5" y="-55" font-family="Helvetica,sans-Serif" font-size="10.00">\generateSessionToken</text>
</a>
</g>
</g>
<!-- Node2&#45;&gt;Node7 -->
<g id="edge6_Node000002_Node000007" class="edge">
<title>Node2&#45;&gt;Node7</title>
<g id="a_edge6_Node000002_Node000007"><a xlink:title=" ">
<path fill="none" stroke="#63b8ff" d="M366.02,-48.83C374.5,-49.85 383.17,-50.9 391.76,-51.94"/>
<polygon fill="#63b8ff" stroke="#63b8ff" points="391.44,-55.42 401.79,-53.15 392.28,-48.47 391.44,-55.42"/>
</a>
</g>
</g>
<!-- Node4 -->
<g id="Node000004" class="node">
<title>Node4</title>
<g id="a_Node000004"><a xlink:href="classApp_1_1Controllers_1_1AuthController.html#a722aae18417e35bad00c945dd381da08" target="_top" xlink:title="Crea una cookie segura.">
<polygon fill="white" stroke="#666666" points="768,-78 603,-78 603,-48 768,-48 768,-78"/>
<text text-anchor="start" x="611" y="-66" font-family="Helvetica,sans-Serif" font-size="10.00">App\Controllers\AuthController</text>
<text text-anchor="middle" x="685.5" y="-55" font-family="Helvetica,sans-Serif" font-size="10.00">\createSecureCookie</text>
</a>
</g>
</g>
<!-- Node3&#45;&gt;Node4 -->
<g id="edge3_Node000003_Node000004" class="edge">
<title>Node3&#45;&gt;Node4</title>
<g id="a_edge3_Node000003_Node000004"><a xlink:title=" ">
<path fill="none" stroke="#63b8ff" d="M547.92,-30.06C568.39,-34.99 591.3,-40.52 612.42,-45.61"/>
<polygon fill="#63b8ff" stroke="#63b8ff" points="611.76,-49.06 622.3,-48 613.4,-42.25 611.76,-49.06"/>
</a>
</g>
</g>
<!-- Node5 -->
<g id="Node000005" class="node">
<title>Node5</title>
<g id="a_Node000005"><a xlink:href="classApp_1_1Controllers_1_1AuthController.html#ab06917fbe57ab9b399e1d66d81807c4f" target="_top" xlink:title="Genera un token JWT.">
<polygon fill="white" stroke="#666666" points="768,-30 603,-30 603,0 768,0 768,-30"/>
<text text-anchor="start" x="611" y="-18" font-family="Helvetica,sans-Serif" font-size="10.00">App\Controllers\AuthController</text>
<text text-anchor="middle" x="685.5" y="-7" font-family="Helvetica,sans-Serif" font-size="10.00">\generateJWT</text>
</a>
</g>
</g>
<!-- Node3&#45;&gt;Node5 -->
<g id="edge4_Node000003_Node000005" class="edge">
<title>Node3&#45;&gt;Node5</title>
<g id="a_edge4_Node000003_Node000005"><a xlink:title=" ">
<path fill="none" stroke="#63b8ff" d="M567.02,-15C575.5,-15 584.17,-15 592.76,-15"/>
<polygon fill="#63b8ff" stroke="#63b8ff" points="592.79,-18.5 602.79,-15 592.79,-11.5 592.79,-18.5"/>
</a>
</g>
</g>
<!-- Node6 -->
<g id="Node000006" class="node">
<title>Node6</title>
<g id="a_Node000006"><a xlink:href="classApp_1_1Controllers_1_1AuthController.html#ae746c781d06673e1ce59121abf11c36c" target="_top" xlink:title="Codifica en Base64 URL seguro.">
<polygon fill="white" stroke="#666666" points="969,-30 804,-30 804,0 969,0 969,-30"/>
<text text-anchor="start" x="812" y="-18" font-family="Helvetica,sans-Serif" font-size="10.00">App\Controllers\AuthController</text>
<text text-anchor="middle" x="886.5" y="-7" font-family="Helvetica,sans-Serif" font-size="10.00">\base64URLEncode</text>
</a>
</g>
</g>
<!-- Node5&#45;&gt;Node6 -->
<g id="edge5_Node000005_Node000006" class="edge">
<title>Node5&#45;&gt;Node6</title>
<g id="a_edge5_Node000005_Node000006"><a xlink:title=" ">
<path fill="none" stroke="#63b8ff" d="M768.02,-15C776.5,-15 785.17,-15 793.76,-15"/>
<polygon fill="#63b8ff" stroke="#63b8ff" points="793.79,-18.5 803.79,-15 793.79,-11.5 793.79,-18.5"/>
</a>
</g>
</g>
<!-- Node7&#45;&gt;Node4 -->
<g id="edge7_Node000007_Node000004" class="edge">
<title>Node7&#45;&gt;Node4</title>
<g id="a_edge7_Node000007_Node000004"><a xlink:title=" ">
<path fill="none" stroke="#63b8ff" d="M567.02,-63C575.5,-63 584.17,-63 592.76,-63"/>
<polygon fill="#63b8ff" stroke="#63b8ff" points="592.79,-66.5 602.79,-63 592.79,-59.5 592.79,-66.5"/>
</a>
</g>
</g>
</g>
</svg>
