<?xml version="1.0" encoding="UTF-8" standalone="no"?>
<!DOCTYPE svg PUBLIC "-//W3C//DTD SVG 1.1//EN"
 "http://www.w3.org/Graphics/SVG/1.1/DTD/svg11.dtd">
<!-- Generated by graphviz version 2.43.0 (0)
 -->
<!-- Title: App\Controllers\Api\ApiAuthController\verifyJwtToken Pages: 1 -->
<svg width="396pt" height="86pt"
 viewBox="0.00 0.00 396.00 86.00" xmlns="http://www.w3.org/2000/svg" xmlns:xlink="http://www.w3.org/1999/xlink">
<g id="graph0" class="graph" transform="scale(1 1) rotate(0) translate(4 82)">
<title>App\Controllers\Api\ApiAuthController\verifyJwtToken</title>
<!-- Node1 -->
<g id="Node000001" class="node">
<title>Node1</title>
<g id="a_Node000001"><a xlink:title="Verifica un token JWT.">
<polygon fill="#999999" stroke="#666666" points="152,-59.5 0,-59.5 0,-18.5 152,-18.5 152,-59.5"/>
<text text-anchor="start" x="8" y="-47.5" font-family="Helvetica,sans-Serif" font-size="10.00">App\Controllers\Api</text>
<text text-anchor="start" x="8" y="-36.5" font-family="Helvetica,sans-Serif" font-size="10.00">\ApiAuthController\verifyJwt</text>
<text text-anchor="middle" x="76" y="-25.5" font-family="Helvetica,sans-Serif" font-size="10.00">Token</text>
</a>
</g>
</g>
<!-- Node2 -->
<g id="Node000002" class="node">
<title>Node2</title>
<g id="a_Node000002"><a xlink:href="classApp_1_1Controllers_1_1Api_1_1ApiAuthController.html#a3449497bf9ba2c33144f2ed5ddb2d09b" target="_top" xlink:title="Decodifica Base64 URL seguro.">
<polygon fill="white" stroke="#666666" points="388,-78 188,-78 188,-48 388,-48 388,-78"/>
<text text-anchor="start" x="196" y="-66" font-family="Helvetica,sans-Serif" font-size="10.00">App\Controllers\Api</text>
<text text-anchor="middle" x="288" y="-55" font-family="Helvetica,sans-Serif" font-size="10.00">\ApiAuthController\base64URLDecode</text>
</a>
</g>
</g>
<!-- Node1&#45;&gt;Node2 -->
<g id="edge1_Node000001_Node000002" class="edge">
<title>Node1&#45;&gt;Node2</title>
<g id="a_edge1_Node000001_Node000002"><a xlink:title=" ">
<path fill="none" stroke="#63b8ff" d="M152.22,-47.6C160.51,-48.54 169.07,-49.52 177.67,-50.51"/>
<polygon fill="#63b8ff" stroke="#63b8ff" points="177.43,-54 187.77,-51.66 178.23,-47.05 177.43,-54"/>
</a>
</g>
</g>
<!-- Node3 -->
<g id="Node000003" class="node">
<title>Node3</title>
<g id="a_Node000003"><a xlink:href="classApp_1_1Controllers_1_1Api_1_1ApiAuthController.html#a5a89660754ac9448207268439385a2cc" target="_top" xlink:title="Codifica en Base64 URL seguro.">
<polygon fill="white" stroke="#666666" points="387.5,-30 188.5,-30 188.5,0 387.5,0 387.5,-30"/>
<text text-anchor="start" x="196.5" y="-18" font-family="Helvetica,sans-Serif" font-size="10.00">App\Controllers\Api</text>
<text text-anchor="middle" x="288" y="-7" font-family="Helvetica,sans-Serif" font-size="10.00">\ApiAuthController\base64URLEncode</text>
</a>
</g>
</g>
<!-- Node1&#45;&gt;Node3 -->
<g id="edge2_Node000001_Node000003" class="edge">
<title>Node1&#45;&gt;Node3</title>
<g id="a_edge2_Node000001_Node000003"><a xlink:title=" ">
<path fill="none" stroke="#63b8ff" d="M152.22,-30.4C160.77,-29.43 169.61,-28.42 178.48,-27.4"/>
<polygon fill="#63b8ff" stroke="#63b8ff" points="178.96,-30.87 188.5,-26.26 178.17,-23.92 178.96,-30.87"/>
</a>
</g>
</g>
</g>
</svg>
