<?xml version="1.0" encoding="UTF-8" standalone="no"?>
<!DOCTYPE svg PUBLIC "-//W3C//DTD SVG 1.1//EN"
 "http://www.w3.org/Graphics/SVG/1.1/DTD/svg11.dtd">
<!-- Generated by graphviz version 2.43.0 (0)
 -->
<!-- Title: App\Controllers\FungiController\getRandomFungus Pages: 1 -->
<svg width="587pt" height="86pt"
 viewBox="0.00 0.00 587.00 86.00" xmlns="http://www.w3.org/2000/svg" xmlns:xlink="http://www.w3.org/1999/xlink">
<g id="graph0" class="graph" transform="scale(1 1) rotate(0) translate(4 82)">
<title>App\Controllers\FungiController\getRandomFungus</title>
<!-- Node1 -->
<g id="Node000001" class="node">
<title>Node1</title>
<g id="a_Node000001"><a xlink:title="Obtiene un hongo aleatorio de la base de datos.">
<polygon fill="#999999" stroke="#666666" points="169,-54 0,-54 0,-24 169,-24 169,-54"/>
<text text-anchor="start" x="8" y="-42" font-family="Helvetica,sans-Serif" font-size="10.00">App\Controllers\FungiController</text>
<text text-anchor="middle" x="84.5" y="-31" font-family="Helvetica,sans-Serif" font-size="10.00">\getRandomFungus</text>
</a>
</g>
</g>
<!-- Node2 -->
<g id="Node000002" class="node">
<title>Node2</title>
<g id="a_Node000002"><a xlink:href="classApp_1_1Controllers_1_1FungiController.html#a4e795756d06c8d0ff755c20645eddb12" target="_top" xlink:title="Incrementa el contador de vistas de un hongo.">
<polygon fill="white" stroke="#666666" points="374,-78 205,-78 205,-48 374,-48 374,-78"/>
<text text-anchor="start" x="213" y="-66" font-family="Helvetica,sans-Serif" font-size="10.00">App\Controllers\FungiController</text>
<text text-anchor="middle" x="289.5" y="-55" font-family="Helvetica,sans-Serif" font-size="10.00">\incrementFungiViews</text>
</a>
</g>
</g>
<!-- Node1&#45;&gt;Node2 -->
<g id="edge1_Node000001_Node000002" class="edge">
<title>Node1&#45;&gt;Node2</title>
<g id="a_edge1_Node000001_Node000002"><a xlink:title=" ">
<path fill="none" stroke="#63b8ff" d="M169.24,-48.9C177.72,-49.9 186.37,-50.93 194.94,-51.94"/>
<polygon fill="#63b8ff" stroke="#63b8ff" points="194.61,-55.42 204.95,-53.12 195.43,-48.47 194.61,-55.42"/>
</a>
</g>
</g>
<!-- Node3 -->
<g id="Node000003" class="node">
<title>Node3</title>
<g id="a_Node000003"><a xlink:href="classApp_1_1Controllers_1_1FungiController.html#a69ba801a8491aa101cefc5928144e616" target="_top" xlink:title="Carga las imágenes relacionadas con un hongo desde la tabla de relaciones.">
<polygon fill="white" stroke="#666666" points="374,-30 205,-30 205,0 374,0 374,-30"/>
<text text-anchor="start" x="213" y="-18" font-family="Helvetica,sans-Serif" font-size="10.00">App\Controllers\FungiController</text>
<text text-anchor="middle" x="289.5" y="-7" font-family="Helvetica,sans-Serif" font-size="10.00">\loadFungusImages</text>
</a>
</g>
</g>
<!-- Node1&#45;&gt;Node3 -->
<g id="edge2_Node000001_Node000003" class="edge">
<title>Node1&#45;&gt;Node3</title>
<g id="a_edge2_Node000001_Node000003"><a xlink:title=" ">
<path fill="none" stroke="#63b8ff" d="M169.24,-29.1C177.72,-28.1 186.37,-27.07 194.94,-26.06"/>
<polygon fill="#63b8ff" stroke="#63b8ff" points="195.43,-29.53 204.95,-24.88 194.61,-22.58 195.43,-29.53"/>
</a>
</g>
</g>
<!-- Node4 -->
<g id="Node000004" class="node">
<title>Node4</title>
<g id="a_Node000004"><a xlink:href="classApp_1_1Controllers_1_1FungiController.html#a7f868fa3d67eefa14cd17d62e80b3d3d" target="_top" xlink:title="Obtiene la ruta base para las imágenes según la clave de configuración.">
<polygon fill="white" stroke="#666666" points="579,-30 410,-30 410,0 579,0 579,-30"/>
<text text-anchor="start" x="418" y="-18" font-family="Helvetica,sans-Serif" font-size="10.00">App\Controllers\FungiController</text>
<text text-anchor="middle" x="494.5" y="-7" font-family="Helvetica,sans-Serif" font-size="10.00">\getImageBasePath</text>
</a>
</g>
</g>
<!-- Node3&#45;&gt;Node4 -->
<g id="edge3_Node000003_Node000004" class="edge">
<title>Node3&#45;&gt;Node4</title>
<g id="a_edge3_Node000003_Node000004"><a xlink:title=" ">
<path fill="none" stroke="#63b8ff" d="M374.24,-15C382.72,-15 391.37,-15 399.94,-15"/>
<polygon fill="#63b8ff" stroke="#63b8ff" points="399.95,-18.5 409.95,-15 399.95,-11.5 399.95,-18.5"/>
</a>
</g>
</g>
</g>
</svg>
