<?xml version="1.0" encoding="UTF-8" standalone="no"?>
<!DOCTYPE svg PUBLIC "-//W3C//DTD SVG 1.1//EN"
 "http://www.w3.org/Graphics/SVG/1.1/DTD/svg11.dtd">
<!-- Generated by graphviz version 2.43.0 (0)
 -->
<!-- Title: App\Controllers\ApiController\handleRequest Pages: 1 -->
<svg width="397pt" height="220pt"
 viewBox="0.00 0.00 397.00 219.50" xmlns="http://www.w3.org/2000/svg" xmlns:xlink="http://www.w3.org/1999/xlink">
<g id="graph0" class="graph" transform="scale(1 1) rotate(0) translate(4 215.5)">
<title>App\Controllers\ApiController\handleRequest</title>
<!-- Node1 -->
<g id="Node000001" class="node">
<title>Node1</title>
<g id="a_Node000001"><a xlink:title="Manejador de solicitudes HTTP.">
<polygon fill="#999999" stroke="#666666" points="158,-115.5 0,-115.5 0,-85.5 158,-85.5 158,-115.5"/>
<text text-anchor="start" x="8" y="-103.5" font-family="Helvetica,sans-Serif" font-size="10.00">App\Controllers\ApiController</text>
<text text-anchor="middle" x="79" y="-92.5" font-family="Helvetica,sans-Serif" font-size="10.00">\handleRequest</text>
</a>
</g>
</g>
<!-- Node2 -->
<g id="Node000002" class="node">
<title>Node2</title>
<g id="a_Node000002"><a xlink:href="classApp_1_1Controllers_1_1ApiController.html#a42d236c3d92bd345648219584a384e3e" target="_top" xlink:title="Manejador de solicitudes DELETE.">
<polygon fill="white" stroke="#666666" points="370.5,-211.5 212.5,-211.5 212.5,-181.5 370.5,-181.5 370.5,-211.5"/>
<text text-anchor="start" x="220.5" y="-199.5" font-family="Helvetica,sans-Serif" font-size="10.00">App\Controllers\ApiController</text>
<text text-anchor="middle" x="291.5" y="-188.5" font-family="Helvetica,sans-Serif" font-size="10.00">\handleDelete</text>
</a>
</g>
</g>
<!-- Node1&#45;&gt;Node2 -->
<g id="edge1_Node000001_Node000002" class="edge">
<title>Node1&#45;&gt;Node2</title>
<g id="a_edge1_Node000001_Node000002"><a xlink:title=" ">
<path fill="none" stroke="#63b8ff" d="M99.51,-115.58C121.39,-131.81 158.48,-157.33 194,-172.5 198.96,-174.62 204.15,-176.58 209.44,-178.38"/>
<polygon fill="#63b8ff" stroke="#63b8ff" points="208.44,-181.74 219.03,-181.47 210.58,-175.08 208.44,-181.74"/>
</a>
</g>
</g>
<!-- Node3 -->
<g id="Node000003" class="node">
<title>Node3</title>
<g id="a_Node000003"><a xlink:href="classApp_1_1Controllers_1_1ApiController.html#ada189fa85b1c852d7deb9f5d59f16109" target="_top" xlink:title="Manejador de solicitudes GET.">
<polygon fill="white" stroke="#666666" points="370.5,-163.5 212.5,-163.5 212.5,-133.5 370.5,-133.5 370.5,-163.5"/>
<text text-anchor="start" x="220.5" y="-151.5" font-family="Helvetica,sans-Serif" font-size="10.00">App\Controllers\ApiController</text>
<text text-anchor="middle" x="291.5" y="-140.5" font-family="Helvetica,sans-Serif" font-size="10.00">\handleGet</text>
</a>
</g>
</g>
<!-- Node1&#45;&gt;Node3 -->
<g id="edge2_Node000001_Node000003" class="edge">
<title>Node1&#45;&gt;Node3</title>
<g id="a_edge2_Node000001_Node000003"><a xlink:title=" ">
<path fill="none" stroke="#63b8ff" d="M146.03,-115.56C167.87,-120.54 192.35,-126.12 214.86,-131.25"/>
<polygon fill="#63b8ff" stroke="#63b8ff" points="214.18,-134.69 224.71,-133.5 215.74,-127.86 214.18,-134.69"/>
</a>
</g>
</g>
<!-- Node4 -->
<g id="Node000004" class="node">
<title>Node4</title>
<g id="a_Node000004"><a xlink:href="classApp_1_1Controllers_1_1ApiController.html#a8cd77387760dd2cc99af170a4edde2e7" target="_top" xlink:title="Manejador de solicitudes POST.">
<polygon fill="white" stroke="#666666" points="370.5,-115.5 212.5,-115.5 212.5,-85.5 370.5,-85.5 370.5,-115.5"/>
<text text-anchor="start" x="220.5" y="-103.5" font-family="Helvetica,sans-Serif" font-size="10.00">App\Controllers\ApiController</text>
<text text-anchor="middle" x="291.5" y="-92.5" font-family="Helvetica,sans-Serif" font-size="10.00">\handlePost</text>
</a>
</g>
</g>
<!-- Node1&#45;&gt;Node4 -->
<g id="edge3_Node000001_Node000004" class="edge">
<title>Node1&#45;&gt;Node4</title>
<g id="a_edge3_Node000001_Node000004"><a xlink:title=" ">
<path fill="none" stroke="#63b8ff" d="M158.08,-100.5C172.44,-100.5 187.52,-100.5 202.15,-100.5"/>
<polygon fill="#63b8ff" stroke="#63b8ff" points="202.19,-104 212.19,-100.5 202.19,-97 202.19,-104"/>
</a>
</g>
</g>
<!-- Node5 -->
<g id="Node000005" class="node">
<title>Node5</title>
<g id="a_Node000005"><a xlink:href="classApp_1_1Controllers_1_1ApiController.html#a44716cc151011ed147d461835bdd8c17" target="_top" xlink:title="Manejador de solicitudes PUT.">
<polygon fill="white" stroke="#666666" points="370.5,-67.5 212.5,-67.5 212.5,-37.5 370.5,-37.5 370.5,-67.5"/>
<text text-anchor="start" x="220.5" y="-55.5" font-family="Helvetica,sans-Serif" font-size="10.00">App\Controllers\ApiController</text>
<text text-anchor="middle" x="291.5" y="-44.5" font-family="Helvetica,sans-Serif" font-size="10.00">\handlePut</text>
</a>
</g>
</g>
<!-- Node1&#45;&gt;Node5 -->
<g id="edge4_Node000001_Node000005" class="edge">
<title>Node1&#45;&gt;Node5</title>
<g id="a_edge4_Node000001_Node000005"><a xlink:title=" ">
<path fill="none" stroke="#63b8ff" d="M146.03,-85.44C167.87,-80.46 192.35,-74.88 214.86,-69.75"/>
<polygon fill="#63b8ff" stroke="#63b8ff" points="215.74,-73.14 224.71,-67.5 214.18,-66.31 215.74,-73.14"/>
</a>
</g>
</g>
<!-- Node6 -->
<g id="Node000006" class="node">
<title>Node6</title>
<g id="a_Node000006"><a xlink:href="classApp_1_1Controllers_1_1DocsController.html#a26c7d871df293aeea872304083487788" target="_top" xlink:title="Muestra solo los endpoints de la API en formato JSON.">
<polygon fill="white" stroke="#666666" points="389,-19 194,-19 194,0 389,0 389,-19"/>
<text text-anchor="middle" x="291.5" y="-7" font-family="Helvetica,sans-Serif" font-size="10.00">App\Controllers\DocsController\show</text>
</a>
</g>
</g>
<!-- Node1&#45;&gt;Node6 -->
<g id="edge5_Node000001_Node000006" class="edge">
<title>Node1&#45;&gt;Node6</title>
<g id="a_edge5_Node000001_Node000006"><a xlink:title=" ">
<path fill="none" stroke="#63b8ff" d="M98.98,-85.39C120.68,-68.88 157.9,-42.87 194,-28.5 200.71,-25.83 207.83,-23.52 215.05,-21.53"/>
<polygon fill="#63b8ff" stroke="#63b8ff" points="216.1,-24.88 224.93,-19.01 214.37,-18.09 216.1,-24.88"/>
</a>
</g>
</g>
</g>
</svg>
