<?xml version="1.0" encoding="UTF-8" standalone="no"?>
<!DOCTYPE svg PUBLIC "-//W3C//DTD SVG 1.1//EN"
 "http://www.w3.org/Graphics/SVG/1.1/DTD/svg11.dtd">
<!-- Generated by graphviz version 2.43.0 (0)
 -->
<!-- Title: App\Controllers\StatsController\statisticsPageHandler Pages: 1 -->
<svg width="784pt" height="38pt"
 viewBox="0.00 0.00 784.00 38.00" xmlns="http://www.w3.org/2000/svg" xmlns:xlink="http://www.w3.org/1999/xlink">
<g id="graph0" class="graph" transform="scale(1 1) rotate(0) translate(4 34)">
<title>App\Controllers\StatsController\statisticsPageHandler</title>
<!-- Node1 -->
<g id="Node000001" class="node">
<title>Node1</title>
<g id="a_Node000001"><a xlink:title="Manejador de la página de estadísticas.">
<polygon fill="#999999" stroke="#666666" points="167,-30 0,-30 0,0 167,0 167,-30"/>
<text text-anchor="start" x="8" y="-18" font-family="Helvetica,sans-Serif" font-size="10.00">App\Controllers\StatsController</text>
<text text-anchor="middle" x="83.5" y="-7" font-family="Helvetica,sans-Serif" font-size="10.00">\statisticsPageHandler</text>
</a>
</g>
</g>
<!-- Node2 -->
<g id="Node000002" class="node">
<title>Node2</title>
<g id="a_Node000002"><a xlink:href="classApp_1_1Controllers_1_1StatsController.html#af2a1c7f7fb5c2ec3ddc6a82c7c9b5944" target="_top" xlink:title="Obtiene todas las estadísticas necesarias para la página de estadísticas.">
<polygon fill="white" stroke="#666666" points="370,-30 203,-30 203,0 370,0 370,-30"/>
<text text-anchor="start" x="211" y="-18" font-family="Helvetica,sans-Serif" font-size="10.00">App\Controllers\StatsController</text>
<text text-anchor="middle" x="286.5" y="-7" font-family="Helvetica,sans-Serif" font-size="10.00">\getAllStatsForPage</text>
</a>
</g>
</g>
<!-- Node1&#45;&gt;Node2 -->
<g id="edge1_Node000001_Node000002" class="edge">
<title>Node1&#45;&gt;Node2</title>
<g id="a_edge1_Node000001_Node000002"><a xlink:title=" ">
<path fill="none" stroke="#63b8ff" d="M167.12,-15C175.61,-15 184.27,-15 192.85,-15"/>
<polygon fill="#63b8ff" stroke="#63b8ff" points="192.87,-18.5 202.87,-15 192.87,-11.5 192.87,-18.5"/>
</a>
</g>
</g>
<!-- Node3 -->
<g id="Node000003" class="node">
<title>Node3</title>
<g id="a_Node000003"><a xlink:href="classApp_1_1Controllers_1_1StatsController.html#a339d384906766d15e008dbfda50a2ca8" target="_top" xlink:title="Obtiene estadísticas de comestibilidad de hongos.">
<polygon fill="white" stroke="#666666" points="573,-30 406,-30 406,0 573,0 573,-30"/>
<text text-anchor="start" x="414" y="-18" font-family="Helvetica,sans-Serif" font-size="10.00">App\Controllers\StatsController</text>
<text text-anchor="middle" x="489.5" y="-7" font-family="Helvetica,sans-Serif" font-size="10.00">\getEdibilityStats</text>
</a>
</g>
</g>
<!-- Node2&#45;&gt;Node3 -->
<g id="edge2_Node000002_Node000003" class="edge">
<title>Node2&#45;&gt;Node3</title>
<g id="a_edge2_Node000002_Node000003"><a xlink:title=" ">
<path fill="none" stroke="#63b8ff" d="M370.12,-15C378.61,-15 387.27,-15 395.85,-15"/>
<polygon fill="#63b8ff" stroke="#63b8ff" points="395.87,-18.5 405.87,-15 395.87,-11.5 395.87,-18.5"/>
</a>
</g>
</g>
<!-- Node4 -->
<g id="Node000004" class="node">
<title>Node4</title>
<g id="a_Node000004"><a xlink:href="classApp_1_1Controllers_1_1StatsController.html#acbcc9cd24df7ea83bb72e818e3cf4ebe" target="_top" xlink:title="Genera la condición SQL para filtrar por rango de tiempo.">
<polygon fill="white" stroke="#666666" points="776,-30 609,-30 609,0 776,0 776,-30"/>
<text text-anchor="start" x="617" y="-18" font-family="Helvetica,sans-Serif" font-size="10.00">App\Controllers\StatsController</text>
<text text-anchor="middle" x="692.5" y="-7" font-family="Helvetica,sans-Serif" font-size="10.00">\getTimeRangeCondition</text>
</a>
</g>
</g>
<!-- Node3&#45;&gt;Node4 -->
<g id="edge3_Node000003_Node000004" class="edge">
<title>Node3&#45;&gt;Node4</title>
<g id="a_edge3_Node000003_Node000004"><a xlink:title=" ">
<path fill="none" stroke="#63b8ff" d="M573.12,-15C581.61,-15 590.27,-15 598.85,-15"/>
<polygon fill="#63b8ff" stroke="#63b8ff" points="598.87,-18.5 608.87,-15 598.87,-11.5 598.87,-18.5"/>
</a>
</g>
</g>
</g>
</svg>
