<?xml version="1.0" encoding="UTF-8" standalone="no"?>
<!DOCTYPE svg PUBLIC "-//W3C//DTD SVG 1.1//EN"
 "http://www.w3.org/Graphics/SVG/1.1/DTD/svg11.dtd">
<!-- Generated by graphviz version 2.43.0 (0)
 -->
<!-- Title: App\Controllers\StatsController\getTimeRangeCondition Pages: 1 -->
<svg width="581pt" height="278pt"
 viewBox="0.00 0.00 581.00 278.00" xmlns="http://www.w3.org/2000/svg" xmlns:xlink="http://www.w3.org/1999/xlink">
<g id="graph0" class="graph" transform="scale(1 1) rotate(0) translate(4 274)">
<title>App\Controllers\StatsController\getTimeRangeCondition</title>
<!-- Node1 -->
<g id="Node000001" class="node">
<title>Node1</title>
<g id="a_Node000001"><a xlink:title="Genera la condición SQL para filtrar por rango de tiempo.">
<polygon fill="#999999" stroke="#666666" points="573,-150 406,-150 406,-120 573,-120 573,-150"/>
<text text-anchor="start" x="414" y="-138" font-family="Helvetica,sans-Serif" font-size="10.00">App\Controllers\StatsController</text>
<text text-anchor="middle" x="489.5" y="-127" font-family="Helvetica,sans-Serif" font-size="10.00">\getTimeRangeCondition</text>
</a>
</g>
</g>
<!-- Node2 -->
<g id="Node000002" class="node">
<title>Node2</title>
<g id="a_Node000002"><a xlink:href="classApp_1_1Controllers_1_1StatsController.html#a19103b3b40588b307b330f1b37e408d8" target="_top" xlink:title="Obtiene estadísticas sobre las clases taxonómicas de hongos.">
<polygon fill="white" stroke="#666666" points="370,-270 203,-270 203,-240 370,-240 370,-270"/>
<text text-anchor="start" x="211" y="-258" font-family="Helvetica,sans-Serif" font-size="10.00">App\Controllers\StatsController</text>
<text text-anchor="middle" x="286.5" y="-247" font-family="Helvetica,sans-Serif" font-size="10.00">\getClassStats</text>
</a>
</g>
</g>
<!-- Node1&#45;&gt;Node2 -->
<g id="edge1_Node000001_Node000002" class="edge">
<title>Node1&#45;&gt;Node2</title>
<g id="a_edge1_Node000001_Node000002"><a xlink:title=" ">
<path fill="none" stroke="#63b8ff" d="M466.52,-157.41C444.08,-179.09 407.36,-211.46 370,-231 363.52,-234.39 356.5,-237.36 349.39,-239.95"/>
<polygon fill="#63b8ff" stroke="#63b8ff" points="469.15,-159.73 473.83,-150.22 464.24,-154.73 469.15,-159.73"/>
</a>
</g>
</g>
<!-- Node4 -->
<g id="Node000004" class="node">
<title>Node4</title>
<g id="a_Node000004"><a xlink:href="classApp_1_1Controllers_1_1StatsController.html#a42b7befe748ebafdfaf9a1e1669b6a4a" target="_top" xlink:title="Obtiene estadísticas sobre las divisiones taxonómicas de hongos.">
<polygon fill="white" stroke="#666666" points="370,-222 203,-222 203,-192 370,-192 370,-222"/>
<text text-anchor="start" x="211" y="-210" font-family="Helvetica,sans-Serif" font-size="10.00">App\Controllers\StatsController</text>
<text text-anchor="middle" x="286.5" y="-199" font-family="Helvetica,sans-Serif" font-size="10.00">\getDivisionStats</text>
</a>
</g>
</g>
<!-- Node1&#45;&gt;Node4 -->
<g id="edge3_Node000001_Node000004" class="edge">
<title>Node1&#45;&gt;Node4</title>
<g id="a_edge3_Node000001_Node000004"><a xlink:title=" ">
<path fill="none" stroke="#63b8ff" d="M444.64,-154.01C422.47,-163.3 395.03,-174.32 370,-183 361.12,-186.08 351.62,-189.1 342.33,-191.9"/>
<polygon fill="#63b8ff" stroke="#63b8ff" points="446.26,-157.12 454.11,-150.01 443.54,-150.68 446.26,-157.12"/>
</a>
</g>
</g>
<!-- Node5 -->
<g id="Node000005" class="node">
<title>Node5</title>
<g id="a_Node000005"><a xlink:href="classApp_1_1Controllers_1_1StatsController.html#af64065be7583a66e68d38bfade5585bb" target="_top" xlink:title="Obtiene estadísticas sobre la comestibilidad de los hongos.">
<polygon fill="white" stroke="#666666" points="370,-174 203,-174 203,-144 370,-144 370,-174"/>
<text text-anchor="start" x="211" y="-162" font-family="Helvetica,sans-Serif" font-size="10.00">App\Controllers\StatsController</text>
<text text-anchor="middle" x="286.5" y="-151" font-family="Helvetica,sans-Serif" font-size="10.00">\getEdibilityStats</text>
</a>
</g>
</g>
<!-- Node1&#45;&gt;Node5 -->
<g id="edge5_Node000001_Node000005" class="edge">
<title>Node1&#45;&gt;Node5</title>
<g id="a_edge5_Node000001_Node000005"><a xlink:title=" ">
<path fill="none" stroke="#63b8ff" d="M395.85,-146.06C387.27,-147.09 378.61,-148.12 370.13,-149.13"/>
<polygon fill="#63b8ff" stroke="#63b8ff" points="396.36,-149.53 405.88,-144.87 395.53,-142.58 396.36,-149.53"/>
</a>
</g>
</g>
<!-- Node6 -->
<g id="Node000006" class="node">
<title>Node6</title>
<g id="a_Node000006"><a xlink:href="classApp_1_1Controllers_1_1StatsController.html#a9e0cdd48bfd132bccade19031dca3c25" target="_top" xlink:title="Obtiene estadísticas sobre las familias de hongos más comunes.">
<polygon fill="white" stroke="#666666" points="370,-126 203,-126 203,-96 370,-96 370,-126"/>
<text text-anchor="start" x="211" y="-114" font-family="Helvetica,sans-Serif" font-size="10.00">App\Controllers\StatsController</text>
<text text-anchor="middle" x="286.5" y="-103" font-family="Helvetica,sans-Serif" font-size="10.00">\getFamilyStats</text>
</a>
</g>
</g>
<!-- Node1&#45;&gt;Node6 -->
<g id="edge7_Node000001_Node000006" class="edge">
<title>Node1&#45;&gt;Node6</title>
<g id="a_edge7_Node000001_Node000006"><a xlink:title=" ">
<path fill="none" stroke="#63b8ff" d="M395.85,-123.94C387.27,-122.91 378.61,-121.88 370.13,-120.87"/>
<polygon fill="#63b8ff" stroke="#63b8ff" points="395.53,-127.42 405.88,-125.13 396.36,-120.47 395.53,-127.42"/>
</a>
</g>
</g>
<!-- Node7 -->
<g id="Node000007" class="node">
<title>Node7</title>
<g id="a_Node000007"><a xlink:href="classApp_1_1Controllers_1_1StatsController.html#a2ff7db3ac8f173dbccfbbb9d61b9412f" target="_top" xlink:title="Obtiene estadísticas sobre los órdenes taxonómicos de hongos.">
<polygon fill="white" stroke="#666666" points="370,-78 203,-78 203,-48 370,-48 370,-78"/>
<text text-anchor="start" x="211" y="-66" font-family="Helvetica,sans-Serif" font-size="10.00">App\Controllers\StatsController</text>
<text text-anchor="middle" x="286.5" y="-55" font-family="Helvetica,sans-Serif" font-size="10.00">\getOrderStats</text>
</a>
</g>
</g>
<!-- Node1&#45;&gt;Node7 -->
<g id="edge9_Node000001_Node000007" class="edge">
<title>Node1&#45;&gt;Node7</title>
<g id="a_edge9_Node000001_Node000007"><a xlink:title=" ">
<path fill="none" stroke="#63b8ff" d="M444.64,-115.99C422.47,-106.7 395.03,-95.68 370,-87 361.12,-83.92 351.62,-80.9 342.33,-78.1"/>
<polygon fill="#63b8ff" stroke="#63b8ff" points="443.54,-119.32 454.11,-119.99 446.26,-112.88 443.54,-119.32"/>
</a>
</g>
</g>
<!-- Node8 -->
<g id="Node000008" class="node">
<title>Node8</title>
<g id="a_Node000008"><a xlink:href="classApp_1_1Controllers_1_1StatsController.html#a9e81a77bff8dcf7481dbc58a4265ebe8" target="_top" xlink:title="Obtiene los hongos más populares basados en vistas.">
<polygon fill="white" stroke="#666666" points="370,-30 203,-30 203,0 370,0 370,-30"/>
<text text-anchor="start" x="211" y="-18" font-family="Helvetica,sans-Serif" font-size="10.00">App\Controllers\StatsController</text>
<text text-anchor="middle" x="286.5" y="-7" font-family="Helvetica,sans-Serif" font-size="10.00">\getPopularFungi</text>
</a>
</g>
</g>
<!-- Node1&#45;&gt;Node8 -->
<g id="edge11_Node000001_Node000008" class="edge">
<title>Node1&#45;&gt;Node8</title>
<g id="a_edge11_Node000001_Node000008"><a xlink:title=" ">
<path fill="none" stroke="#63b8ff" d="M466.52,-112.59C444.08,-90.91 407.36,-58.54 370,-39 363.52,-35.61 356.5,-32.64 349.39,-30.05"/>
<polygon fill="#63b8ff" stroke="#63b8ff" points="464.24,-115.27 473.83,-119.78 469.15,-110.27 464.24,-115.27"/>
</a>
</g>
</g>
<!-- Node3 -->
<g id="Node000003" class="node">
<title>Node3</title>
<g id="a_Node000003"><a xlink:href="classApp_1_1Controllers_1_1StatsController.html#a944a68a075295dfdc85e7e403b469358" target="_top" xlink:title="Obtiene todas las estadísticas relacionadas con hongos.">
<polygon fill="white" stroke="#666666" points="167,-150 0,-150 0,-120 167,-120 167,-150"/>
<text text-anchor="start" x="8" y="-138" font-family="Helvetica,sans-Serif" font-size="10.00">App\Controllers\StatsController</text>
<text text-anchor="middle" x="83.5" y="-127" font-family="Helvetica,sans-Serif" font-size="10.00">\getFungiStats</text>
</a>
</g>
</g>
<!-- Node2&#45;&gt;Node3 -->
<g id="edge2_Node000002_Node000003" class="edge">
<title>Node2&#45;&gt;Node3</title>
<g id="a_edge2_Node000002_Node000003"><a xlink:title=" ">
<path fill="none" stroke="#63b8ff" d="M214.04,-236.19C210.25,-234.58 206.54,-232.85 203,-231 161.24,-209.15 120.26,-171.28 99.17,-150.22"/>
<polygon fill="#63b8ff" stroke="#63b8ff" points="213.03,-239.55 223.61,-239.95 215.58,-233.04 213.03,-239.55"/>
</a>
</g>
</g>
<!-- Node4&#45;&gt;Node3 -->
<g id="edge4_Node000004_Node000003" class="edge">
<title>Node4&#45;&gt;Node3</title>
<g id="a_edge4_Node000004_Node000003"><a xlink:title=" ">
<path fill="none" stroke="#63b8ff" d="M221.05,-188.94C214.92,-187.02 208.83,-185.02 203,-183 174.27,-173.03 142.35,-159.99 118.89,-150.01"/>
<polygon fill="#63b8ff" stroke="#63b8ff" points="220.08,-192.3 230.67,-191.9 222.14,-185.61 220.08,-192.3"/>
</a>
</g>
</g>
<!-- Node5&#45;&gt;Node3 -->
<g id="edge6_Node000005_Node000003" class="edge">
<title>Node5&#45;&gt;Node3</title>
<g id="a_edge6_Node000005_Node000003"><a xlink:title=" ">
<path fill="none" stroke="#63b8ff" d="M192.85,-147.94C184.27,-146.91 175.61,-145.88 167.13,-144.87"/>
<polygon fill="#63b8ff" stroke="#63b8ff" points="192.53,-151.42 202.88,-149.13 193.36,-144.47 192.53,-151.42"/>
</a>
</g>
</g>
<!-- Node6&#45;&gt;Node3 -->
<g id="edge8_Node000006_Node000003" class="edge">
<title>Node6&#45;&gt;Node3</title>
<g id="a_edge8_Node000006_Node000003"><a xlink:title=" ">
<path fill="none" stroke="#63b8ff" d="M192.85,-122.06C184.27,-123.09 175.61,-124.12 167.13,-125.13"/>
<polygon fill="#63b8ff" stroke="#63b8ff" points="193.36,-125.53 202.88,-120.87 192.53,-118.58 193.36,-125.53"/>
</a>
</g>
</g>
<!-- Node7&#45;&gt;Node3 -->
<g id="edge10_Node000007_Node000003" class="edge">
<title>Node7&#45;&gt;Node3</title>
<g id="a_edge10_Node000007_Node000003"><a xlink:title=" ">
<path fill="none" stroke="#63b8ff" d="M221.05,-81.06C214.92,-82.98 208.83,-84.98 203,-87 174.27,-96.97 142.35,-110.01 118.89,-119.99"/>
<polygon fill="#63b8ff" stroke="#63b8ff" points="222.14,-84.39 230.67,-78.1 220.08,-77.7 222.14,-84.39"/>
</a>
</g>
</g>
<!-- Node8&#45;&gt;Node3 -->
<g id="edge12_Node000008_Node000003" class="edge">
<title>Node8&#45;&gt;Node3</title>
<g id="a_edge12_Node000008_Node000003"><a xlink:title=" ">
<path fill="none" stroke="#63b8ff" d="M214.04,-33.81C210.25,-35.42 206.54,-37.15 203,-39 161.24,-60.85 120.26,-98.72 99.17,-119.78"/>
<polygon fill="#63b8ff" stroke="#63b8ff" points="215.58,-36.96 223.61,-30.05 213.03,-30.45 215.58,-36.96"/>
</a>
</g>
</g>
</g>
</svg>
