<?xml version="1.0" encoding="UTF-8" standalone="no"?>
<!DOCTYPE svg PUBLIC "-//W3C//DTD SVG 1.1//EN"
 "http://www.w3.org/Graphics/SVG/1.1/DTD/svg11.dtd">
<!-- Generated by graphviz version 2.43.0 (0)
 -->
<!-- Title: App\Controllers\Api\ApiAuthController\getUserFromRequest Pages: 1 -->
<svg width="579pt" height="86pt"
 viewBox="0.00 0.00 579.00 86.00" xmlns="http://www.w3.org/2000/svg" xmlns:xlink="http://www.w3.org/1999/xlink">
<g id="graph0" class="graph" transform="scale(1 1) rotate(0) translate(4 82)">
<title>App\Controllers\Api\ApiAuthController\getUserFromRequest</title>
<!-- Node1 -->
<g id="Node000001" class="node">
<title>Node1</title>
<g id="a_Node000001"><a xlink:title="Obtiene el usuario autenticado de la solicitud actual.">
<polygon fill="#999999" stroke="#666666" points="147,-59.5 0,-59.5 0,-18.5 147,-18.5 147,-59.5"/>
<text text-anchor="start" x="8" y="-47.5" font-family="Helvetica,sans-Serif" font-size="10.00">App\Controllers\Api</text>
<text text-anchor="start" x="8" y="-36.5" font-family="Helvetica,sans-Serif" font-size="10.00">\ApiAuthController\getUser</text>
<text text-anchor="middle" x="73.5" y="-25.5" font-family="Helvetica,sans-Serif" font-size="10.00">FromRequest</text>
</a>
</g>
</g>
<!-- Node2 -->
<g id="Node000002" class="node">
<title>Node2</title>
<g id="a_Node000002"><a xlink:href="classApp_1_1Controllers_1_1Api_1_1ApiAuthController.html#aec3b7a5727ca308724b736b9df0ba995" target="_top" xlink:title="Verifica un token JWT.">
<polygon fill="white" stroke="#666666" points="335,-59.5 183,-59.5 183,-18.5 335,-18.5 335,-59.5"/>
<text text-anchor="start" x="191" y="-47.5" font-family="Helvetica,sans-Serif" font-size="10.00">App\Controllers\Api</text>
<text text-anchor="start" x="191" y="-36.5" font-family="Helvetica,sans-Serif" font-size="10.00">\ApiAuthController\verifyJwt</text>
<text text-anchor="middle" x="259" y="-25.5" font-family="Helvetica,sans-Serif" font-size="10.00">Token</text>
</a>
</g>
</g>
<!-- Node1&#45;&gt;Node2 -->
<g id="edge1_Node000001_Node000002" class="edge">
<title>Node1&#45;&gt;Node2</title>
<g id="a_edge1_Node000001_Node000002"><a xlink:title=" ">
<path fill="none" stroke="#63b8ff" d="M147.02,-39C155.52,-39 164.25,-39 172.89,-39"/>
<polygon fill="#63b8ff" stroke="#63b8ff" points="172.99,-42.5 182.99,-39 172.99,-35.5 172.99,-42.5"/>
</a>
</g>
</g>
<!-- Node3 -->
<g id="Node000003" class="node">
<title>Node3</title>
<g id="a_Node000003"><a xlink:href="classApp_1_1Controllers_1_1Api_1_1ApiAuthController.html#a3449497bf9ba2c33144f2ed5ddb2d09b" target="_top" xlink:title="Decodifica Base64 URL seguro.">
<polygon fill="white" stroke="#666666" points="571,-78 371,-78 371,-48 571,-48 571,-78"/>
<text text-anchor="start" x="379" y="-66" font-family="Helvetica,sans-Serif" font-size="10.00">App\Controllers\Api</text>
<text text-anchor="middle" x="471" y="-55" font-family="Helvetica,sans-Serif" font-size="10.00">\ApiAuthController\base64URLDecode</text>
</a>
</g>
</g>
<!-- Node2&#45;&gt;Node3 -->
<g id="edge2_Node000002_Node000003" class="edge">
<title>Node2&#45;&gt;Node3</title>
<g id="a_edge2_Node000002_Node000003"><a xlink:title=" ">
<path fill="none" stroke="#63b8ff" d="M335.22,-47.6C343.51,-48.54 352.07,-49.52 360.67,-50.51"/>
<polygon fill="#63b8ff" stroke="#63b8ff" points="360.43,-54 370.77,-51.66 361.23,-47.05 360.43,-54"/>
</a>
</g>
</g>
<!-- Node4 -->
<g id="Node000004" class="node">
<title>Node4</title>
<g id="a_Node000004"><a xlink:href="classApp_1_1Controllers_1_1Api_1_1ApiAuthController.html#a5a89660754ac9448207268439385a2cc" target="_top" xlink:title="Codifica en Base64 URL seguro.">
<polygon fill="white" stroke="#666666" points="570.5,-30 371.5,-30 371.5,0 570.5,0 570.5,-30"/>
<text text-anchor="start" x="379.5" y="-18" font-family="Helvetica,sans-Serif" font-size="10.00">App\Controllers\Api</text>
<text text-anchor="middle" x="471" y="-7" font-family="Helvetica,sans-Serif" font-size="10.00">\ApiAuthController\base64URLEncode</text>
</a>
</g>
</g>
<!-- Node2&#45;&gt;Node4 -->
<g id="edge3_Node000002_Node000004" class="edge">
<title>Node2&#45;&gt;Node4</title>
<g id="a_edge3_Node000002_Node000004"><a xlink:title=" ">
<path fill="none" stroke="#63b8ff" d="M335.22,-30.4C343.77,-29.43 352.61,-28.42 361.48,-27.4"/>
<polygon fill="#63b8ff" stroke="#63b8ff" points="361.96,-30.87 371.5,-26.26 361.17,-23.92 361.96,-30.87"/>
</a>
</g>
</g>
</g>
</svg>
