<?xml version="1.0" encoding="UTF-8" standalone="no"?>
<!DOCTYPE svg PUBLIC "-//W3C//DTD SVG 1.1//EN"
 "http://www.w3.org/Graphics/SVG/1.1/DTD/svg11.dtd">
<!-- Generated by graphviz version 2.43.0 (0)
 -->
<!-- Title: App\Controllers\AuthController\createJWT Pages: 1 -->
<svg width="575pt" height="86pt"
 viewBox="0.00 0.00 575.00 86.00" xmlns="http://www.w3.org/2000/svg" xmlns:xlink="http://www.w3.org/1999/xlink">
<g id="graph0" class="graph" transform="scale(1 1) rotate(0) translate(4 82)">
<title>App\Controllers\AuthController\createJWT</title>
<!-- Node1 -->
<g id="Node000001" class="node">
<title>Node1</title>
<g id="a_Node000001"><a xlink:title="Crea un token JWT para el usuario.">
<polygon fill="#999999" stroke="#666666" points="165,-54 0,-54 0,-24 165,-24 165,-54"/>
<text text-anchor="start" x="8" y="-42" font-family="Helvetica,sans-Serif" font-size="10.00">App\Controllers\AuthController</text>
<text text-anchor="middle" x="82.5" y="-31" font-family="Helvetica,sans-Serif" font-size="10.00">\createJWT</text>
</a>
</g>
</g>
<!-- Node2 -->
<g id="Node000002" class="node">
<title>Node2</title>
<g id="a_Node000002"><a xlink:href="classApp_1_1Controllers_1_1AuthController.html#a722aae18417e35bad00c945dd381da08" target="_top" xlink:title="Crea una cookie segura.">
<polygon fill="white" stroke="#666666" points="366,-78 201,-78 201,-48 366,-48 366,-78"/>
<text text-anchor="start" x="209" y="-66" font-family="Helvetica,sans-Serif" font-size="10.00">App\Controllers\AuthController</text>
<text text-anchor="middle" x="283.5" y="-55" font-family="Helvetica,sans-Serif" font-size="10.00">\createSecureCookie</text>
</a>
</g>
</g>
<!-- Node1&#45;&gt;Node2 -->
<g id="edge1_Node000001_Node000002" class="edge">
<title>Node1&#45;&gt;Node2</title>
<g id="a_edge1_Node000001_Node000002"><a xlink:title=" ">
<path fill="none" stroke="#63b8ff" d="M165.02,-48.83C173.5,-49.85 182.17,-50.9 190.76,-51.94"/>
<polygon fill="#63b8ff" stroke="#63b8ff" points="190.44,-55.42 200.79,-53.15 191.28,-48.47 190.44,-55.42"/>
</a>
</g>
</g>
<!-- Node3 -->
<g id="Node000003" class="node">
<title>Node3</title>
<g id="a_Node000003"><a xlink:href="classApp_1_1Controllers_1_1AuthController.html#ab06917fbe57ab9b399e1d66d81807c4f" target="_top" xlink:title="Genera un token JWT.">
<polygon fill="white" stroke="#666666" points="366,-30 201,-30 201,0 366,0 366,-30"/>
<text text-anchor="start" x="209" y="-18" font-family="Helvetica,sans-Serif" font-size="10.00">App\Controllers\AuthController</text>
<text text-anchor="middle" x="283.5" y="-7" font-family="Helvetica,sans-Serif" font-size="10.00">\generateJWT</text>
</a>
</g>
</g>
<!-- Node1&#45;&gt;Node3 -->
<g id="edge2_Node000001_Node000003" class="edge">
<title>Node1&#45;&gt;Node3</title>
<g id="a_edge2_Node000001_Node000003"><a xlink:title=" ">
<path fill="none" stroke="#63b8ff" d="M165.02,-29.17C173.5,-28.15 182.17,-27.1 190.76,-26.06"/>
<polygon fill="#63b8ff" stroke="#63b8ff" points="191.28,-29.53 200.79,-24.85 190.44,-22.58 191.28,-29.53"/>
</a>
</g>
</g>
<!-- Node4 -->
<g id="Node000004" class="node">
<title>Node4</title>
<g id="a_Node000004"><a xlink:href="classApp_1_1Controllers_1_1AuthController.html#ae746c781d06673e1ce59121abf11c36c" target="_top" xlink:title="Codifica en Base64 URL seguro.">
<polygon fill="white" stroke="#666666" points="567,-30 402,-30 402,0 567,0 567,-30"/>
<text text-anchor="start" x="410" y="-18" font-family="Helvetica,sans-Serif" font-size="10.00">App\Controllers\AuthController</text>
<text text-anchor="middle" x="484.5" y="-7" font-family="Helvetica,sans-Serif" font-size="10.00">\base64URLEncode</text>
</a>
</g>
</g>
<!-- Node3&#45;&gt;Node4 -->
<g id="edge3_Node000003_Node000004" class="edge">
<title>Node3&#45;&gt;Node4</title>
<g id="a_edge3_Node000003_Node000004"><a xlink:title=" ">
<path fill="none" stroke="#63b8ff" d="M366.02,-15C374.5,-15 383.17,-15 391.76,-15"/>
<polygon fill="#63b8ff" stroke="#63b8ff" points="391.79,-18.5 401.79,-15 391.79,-11.5 391.79,-18.5"/>
</a>
</g>
</g>
</g>
</svg>
