<?xml version="1.0" encoding="UTF-8" standalone="no"?>
<!DOCTYPE svg PUBLIC "-//W3C//DTD SVG 1.1//EN"
 "http://www.w3.org/Graphics/SVG/1.1/DTD/svg11.dtd">
<!-- Generated by graphviz version 2.43.0 (0)
 -->
<!-- Title: App\Controllers\SessionController Pages: 1 -->
<svg width="182pt" height="282pt"
 viewBox="0.00 0.00 182.00 282.00" xmlns="http://www.w3.org/2000/svg" xmlns:xlink="http://www.w3.org/1999/xlink">
<g id="graph0" class="graph" transform="scale(1 1) rotate(0) translate(4 278)">
<title>App\Controllers\SessionController</title>
<!-- Node1 -->
<g id="Node000001" class="node">
<title>Node1</title>
<g id="a_Node000001"><a xlink:title=" ">
<polygon fill="#999999" stroke="transparent" points="174,-274 0,-274 0,0 174,0 174,-274"/>
<text text-anchor="start" x="5" y="-262" font-family="Helvetica,sans-Serif" font-size="10.00">App\Controllers\SessionController</text>
<text text-anchor="start" x="19.5" y="-247" font-family="Helvetica,sans-Serif" font-size="10.00">&#45;</text>
<text text-anchor="start" x="43" y="-247" font-family="Helvetica,sans-Serif" font-size="10.00">$db</text>
<text text-anchor="start" x="17" y="-232" font-family="Helvetica,sans-Serif" font-size="10.00">+</text>
<text text-anchor="start" x="43" y="-232" font-family="Helvetica,sans-Serif" font-size="10.00">__construct()</text>
<text text-anchor="start" x="17" y="-217" font-family="Helvetica,sans-Serif" font-size="10.00">+</text>
<text text-anchor="start" x="43" y="-217" font-family="Helvetica,sans-Serif" font-size="10.00">getUserData()</text>
<text text-anchor="start" x="17" y="-202" font-family="Helvetica,sans-Serif" font-size="10.00">+</text>
<text text-anchor="start" x="43" y="-202" font-family="Helvetica,sans-Serif" font-size="10.00">isAdmin()</text>
<text text-anchor="start" x="17" y="-187" font-family="Helvetica,sans-Serif" font-size="10.00">+</text>
<text text-anchor="start" x="43" y="-187" font-family="Helvetica,sans-Serif" font-size="10.00">isLoggedIn()</text>
<text text-anchor="start" x="17" y="-172" font-family="Helvetica,sans-Serif" font-size="10.00">+</text>
<text text-anchor="start" x="43" y="-172" font-family="Helvetica,sans-Serif" font-size="10.00">userExists()</text>
<text text-anchor="start" x="17" y="-157" font-family="Helvetica,sans-Serif" font-size="10.00">+</text>
<text text-anchor="start" x="43" y="-157" font-family="Helvetica,sans-Serif" font-size="10.00">userLogin()</text>
<text text-anchor="start" x="17" y="-142" font-family="Helvetica,sans-Serif" font-size="10.00">+</text>
<text text-anchor="start" x="43" y="-142" font-family="Helvetica,sans-Serif" font-size="10.00">userLogout()</text>
<text text-anchor="start" x="17" y="-127" font-family="Helvetica,sans-Serif" font-size="10.00">+</text>
<text text-anchor="start" x="43" y="-127" font-family="Helvetica,sans-Serif" font-size="10.00">userSignUp()</text>
<text text-anchor="start" x="17" y="-112" font-family="Helvetica,sans-Serif" font-size="10.00">+</text>
<text text-anchor="start" x="43" y="-112" font-family="Helvetica,sans-Serif" font-size="10.00">verifyJWT()</text>
<text text-anchor="start" x="17" y="-97" font-family="Helvetica,sans-Serif" font-size="10.00">+</text>
<text text-anchor="start" x="43" y="-97" font-family="Helvetica,sans-Serif" font-size="10.00">verifyJWTCookie()</text>
<text text-anchor="start" x="17" y="-82" font-family="Helvetica,sans-Serif" font-size="10.00">+</text>
<text text-anchor="start" x="43" y="-82" font-family="Helvetica,sans-Serif" font-size="10.00">verifyTokenCookie()</text>
<text text-anchor="start" x="19.5" y="-67" font-family="Helvetica,sans-Serif" font-size="10.00">&#45;</text>
<text text-anchor="start" x="43" y="-67" font-family="Helvetica,sans-Serif" font-size="10.00">base64URLDecode()</text>
<text text-anchor="start" x="19.5" y="-52" font-family="Helvetica,sans-Serif" font-size="10.00">&#45;</text>
<text text-anchor="start" x="43" y="-52" font-family="Helvetica,sans-Serif" font-size="10.00">base64URLEncode()</text>
<text text-anchor="start" x="19.5" y="-37" font-family="Helvetica,sans-Serif" font-size="10.00">&#45;</text>
<text text-anchor="start" x="43" y="-37" font-family="Helvetica,sans-Serif" font-size="10.00">createJWT()</text>
<text text-anchor="start" x="19.5" y="-22" font-family="Helvetica,sans-Serif" font-size="10.00">&#45;</text>
<text text-anchor="start" x="43" y="-22" font-family="Helvetica,sans-Serif" font-size="10.00">generateJWT()</text>
<text text-anchor="start" x="19.5" y="-7" font-family="Helvetica,sans-Serif" font-size="10.00">&#45;</text>
<text text-anchor="start" x="43" y="-7" font-family="Helvetica,sans-Serif" font-size="10.00">getSecretKey()</text>
<polygon fill="#666666" stroke="#666666" points="0,-257 0,-257 174,-257 174,-257 0,-257"/>
<polygon fill="#666666" stroke="#666666" points="0,-242 0,-242 41,-242 41,-242 0,-242"/>
<polygon fill="#666666" stroke="#666666" points="41,-242 41,-242 174,-242 174,-242 41,-242"/>
<polygon fill="none" stroke="#666666" points="0,0 0,-274 174,-274 174,0 0,0"/>
</a>
</g>
</g>
</g>
</svg>
