<?xml version="1.0" encoding="UTF-8" standalone="no"?>
<!DOCTYPE svg PUBLIC "-//W3C//DTD SVG 1.1//EN"
 "http://www.w3.org/Graphics/SVG/1.1/DTD/svg11.dtd">
<!-- Generated by graphviz version 2.43.0 (0)
 -->
<!-- Title: App\Controllers\StatsController\getFungiStats Pages: 1 -->
<!--zoomable 278 -->

<svg id="main" version="1.1" xmlns="http://www.w3.org/2000/svg" xmlns:xlink="http://www.w3.org/1999/xlink" xml:space="preserve" onload="init(evt)">
<style type="text/css"><![CDATA[
.node, .edge {opacity: 0.7;}
.node.selected, .edge.selected {opacity: 1;}
.edge:hover path { stroke: red; }
.edge:hover polygon { stroke: red; fill: red; }
]]></style>

<defs>
  <circle id="rim" cx="0" cy="0" r="7"/>
  <circle id="rim2" cx="0" cy="0" r="3.5"/>
  <g id="zoomPlus">
    <use xlink:href="#rim" fill="#404040"><set attributeName="fill" to="#808080" begin="zoomplus.mouseover" end="zoomplus.mouseout"/></use>
    <path d="M-4,0h8M0,-4v8" fill="none" stroke="white" stroke-width="1.5" pointer-events="none"/>
  </g>
  <g id="zoomMin">
    <use xlink:href="#rim" fill="#404040"><set attributeName="fill" to="#808080" begin="zoomminus.mouseover" end="zoomminus.mouseout"/></use>
    <path d="M-4,0h8" fill="none" stroke="white" stroke-width="1.5" pointer-events="none"/>
  </g>
  <g id="arrowUp" transform="translate(30 24)">
    <use xlink:href="#rim"/>
    <path pointer-events="none" fill="none" stroke="white" stroke-width="1.5" d="M0,-3.0v7 M-2.5,-0.5L0,-3.0L2.5,-0.5"/>
  </g>
  <g id="arrowRight" transform="rotate(90) translate(36 -43)">
    <use xlink:href="#rim"/>
    <path pointer-events="none" fill="none" stroke="white" stroke-width="1.5" d="M0,-3.0v7 M-2.5,-0.5L0,-3.0L2.5,-0.5"/>
  </g>
  <g id="arrowDown" transform="rotate(180) translate(-30 -48)">
    <use xlink:href="#rim"/>
    <path pointer-events="none" fill="none" stroke="white" stroke-width="1.5" d="M0,-3.0v7 M-2.5,-0.5L0,-3.0L2.5,-0.5"/>
  </g>
  <g id="arrowLeft" transform="rotate(270) translate(-36 17)">
    <use xlink:href="#rim"/>
    <path pointer-events="none" fill="none" stroke="white" stroke-width="1.5" d="M0,-3.0v7 M-2.5,-0.5L0,-3.0L2.5,-0.5"/>
  </g>
  <g id="resetDef">
    <use xlink:href="#rim2" fill="#404040"><set attributeName="fill" to="#808080" begin="reset.mouseover" end="reset.mouseout"/></use>
  </g>
</defs>
<script type="application/ecmascript">
var viewWidth = 581;
var viewHeight = 278;
var sectionId = 'dynsection-9';
</script>
<script type="application/ecmascript" xlink:href="svg.min.js"/>
<svg id="graph" class="graph">
<g id="viewport">
<title>App\Controllers\StatsController\getFungiStats</title>
<!-- Node1 -->
<g id="Node000001" class="node">
<title>Node1</title>
<g id="a_Node000001"><a xlink:title="Obtiene todas las estadísticas relacionadas con hongos.">
<polygon fill="#999999" stroke="#666666" points="167,-150 0,-150 0,-120 167,-120 167,-150"/>
<text text-anchor="start" x="8" y="-138" font-family="Helvetica,sans-Serif" font-size="10.00">App\Controllers\StatsController</text>
<text text-anchor="middle" x="83.5" y="-127" font-family="Helvetica,sans-Serif" font-size="10.00">\getFungiStats</text>
</a>
</g>
</g>
<!-- Node2 -->
<g id="Node000002" class="node">
<title>Node2</title>
<g id="a_Node000002"><a xlink:href="classApp_1_1Controllers_1_1StatsController.html#a19103b3b40588b307b330f1b37e408d8" target="_top" xlink:title="Obtiene estadísticas sobre las clases taxonómicas de hongos.">
<polygon fill="white" stroke="#666666" points="370,-270 203,-270 203,-240 370,-240 370,-270"/>
<text text-anchor="start" x="211" y="-258" font-family="Helvetica,sans-Serif" font-size="10.00">App\Controllers\StatsController</text>
<text text-anchor="middle" x="286.5" y="-247" font-family="Helvetica,sans-Serif" font-size="10.00">\getClassStats</text>
</a>
</g>
</g>
<!-- Node1&#45;&gt;Node2 -->
<g id="edge1_Node000001_Node000002" class="edge">
<title>Node1&#45;&gt;Node2</title>
<g id="a_edge1_Node000001_Node000002"><a xlink:title=" ">
<path fill="none" stroke="#63b8ff" d="M99.17,-150.22C120.26,-171.28 161.24,-209.15 203,-231 206.54,-232.85 210.25,-234.58 214.04,-236.19"/>
<polygon fill="#63b8ff" stroke="#63b8ff" points="213.03,-239.55 223.61,-239.95 215.58,-233.04 213.03,-239.55"/>
</a>
</g>
</g>
<!-- Node4 -->
<g id="Node000004" class="node">
<title>Node4</title>
<g id="a_Node000004"><a xlink:href="classApp_1_1Controllers_1_1StatsController.html#a42b7befe748ebafdfaf9a1e1669b6a4a" target="_top" xlink:title="Obtiene estadísticas sobre las divisiones taxonómicas de hongos.">
<polygon fill="white" stroke="#666666" points="370,-222 203,-222 203,-192 370,-192 370,-222"/>
<text text-anchor="start" x="211" y="-210" font-family="Helvetica,sans-Serif" font-size="10.00">App\Controllers\StatsController</text>
<text text-anchor="middle" x="286.5" y="-199" font-family="Helvetica,sans-Serif" font-size="10.00">\getDivisionStats</text>
</a>
</g>
</g>
<!-- Node1&#45;&gt;Node4 -->
<g id="edge3_Node000001_Node000004" class="edge">
<title>Node1&#45;&gt;Node4</title>
<g id="a_edge3_Node000001_Node000004"><a xlink:title=" ">
<path fill="none" stroke="#63b8ff" d="M118.89,-150.01C142.35,-159.99 174.27,-173.03 203,-183 208.83,-185.02 214.92,-187.02 221.05,-188.94"/>
<polygon fill="#63b8ff" stroke="#63b8ff" points="220.08,-192.3 230.67,-191.9 222.14,-185.61 220.08,-192.3"/>
</a>
</g>
</g>
<!-- Node5 -->
<g id="Node000005" class="node">
<title>Node5</title>
<g id="a_Node000005"><a xlink:href="classApp_1_1Controllers_1_1StatsController.html#a339d384906766d15e008dbfda50a2ca8" target="_top" xlink:title="Obtiene estadísticas de comestibilidad de hongos.">
<polygon fill="white" stroke="#666666" points="370,-174 203,-174 203,-144 370,-144 370,-174"/>
<text text-anchor="start" x="211" y="-162" font-family="Helvetica,sans-Serif" font-size="10.00">App\Controllers\StatsController</text>
<text text-anchor="middle" x="286.5" y="-151" font-family="Helvetica,sans-Serif" font-size="10.00">\getEdibilityStats</text>
</a>
</g>
</g>
<!-- Node1&#45;&gt;Node5 -->
<g id="edge5_Node000001_Node000005" class="edge">
<title>Node1&#45;&gt;Node5</title>
<g id="a_edge5_Node000001_Node000005"><a xlink:title=" ">
<path fill="none" stroke="#63b8ff" d="M167.12,-144.87C175.61,-145.88 184.27,-146.91 192.85,-147.94"/>
<polygon fill="#63b8ff" stroke="#63b8ff" points="192.53,-151.42 202.87,-149.13 193.36,-144.47 192.53,-151.42"/>
</a>
</g>
</g>
<!-- Node6 -->
<g id="Node000006" class="node">
<title>Node6</title>
<g id="a_Node000006"><a xlink:href="classApp_1_1Controllers_1_1StatsController.html#a9e0cdd48bfd132bccade19031dca3c25" target="_top" xlink:title="Obtiene estadísticas sobre las familias de hongos más comunes.">
<polygon fill="white" stroke="#666666" points="370,-126 203,-126 203,-96 370,-96 370,-126"/>
<text text-anchor="start" x="211" y="-114" font-family="Helvetica,sans-Serif" font-size="10.00">App\Controllers\StatsController</text>
<text text-anchor="middle" x="286.5" y="-103" font-family="Helvetica,sans-Serif" font-size="10.00">\getFamilyStats</text>
</a>
</g>
</g>
<!-- Node1&#45;&gt;Node6 -->
<g id="edge7_Node000001_Node000006" class="edge">
<title>Node1&#45;&gt;Node6</title>
<g id="a_edge7_Node000001_Node000006"><a xlink:title=" ">
<path fill="none" stroke="#63b8ff" d="M167.12,-125.13C175.61,-124.12 184.27,-123.09 192.85,-122.06"/>
<polygon fill="#63b8ff" stroke="#63b8ff" points="193.36,-125.53 202.87,-120.87 192.53,-118.58 193.36,-125.53"/>
</a>
</g>
</g>
<!-- Node7 -->
<g id="Node000007" class="node">
<title>Node7</title>
<g id="a_Node000007"><a xlink:href="classApp_1_1Controllers_1_1StatsController.html#a2ff7db3ac8f173dbccfbbb9d61b9412f" target="_top" xlink:title="Obtiene estadísticas sobre los órdenes taxonómicos de hongos.">
<polygon fill="white" stroke="#666666" points="370,-78 203,-78 203,-48 370,-48 370,-78"/>
<text text-anchor="start" x="211" y="-66" font-family="Helvetica,sans-Serif" font-size="10.00">App\Controllers\StatsController</text>
<text text-anchor="middle" x="286.5" y="-55" font-family="Helvetica,sans-Serif" font-size="10.00">\getOrderStats</text>
</a>
</g>
</g>
<!-- Node1&#45;&gt;Node7 -->
<g id="edge9_Node000001_Node000007" class="edge">
<title>Node1&#45;&gt;Node7</title>
<g id="a_edge9_Node000001_Node000007"><a xlink:title=" ">
<path fill="none" stroke="#63b8ff" d="M118.89,-119.99C142.35,-110.01 174.27,-96.97 203,-87 208.83,-84.98 214.92,-82.98 221.05,-81.06"/>
<polygon fill="#63b8ff" stroke="#63b8ff" points="222.14,-84.39 230.67,-78.1 220.08,-77.7 222.14,-84.39"/>
</a>
</g>
</g>
<!-- Node8 -->
<g id="Node000008" class="node">
<title>Node8</title>
<g id="a_Node000008"><a xlink:href="classApp_1_1Controllers_1_1StatsController.html#a9e81a77bff8dcf7481dbc58a4265ebe8" target="_top" xlink:title="Obtiene los hongos más populares basados en vistas.">
<polygon fill="white" stroke="#666666" points="370,-30 203,-30 203,0 370,0 370,-30"/>
<text text-anchor="start" x="211" y="-18" font-family="Helvetica,sans-Serif" font-size="10.00">App\Controllers\StatsController</text>
<text text-anchor="middle" x="286.5" y="-7" font-family="Helvetica,sans-Serif" font-size="10.00">\getPopularFungi</text>
</a>
</g>
</g>
<!-- Node1&#45;&gt;Node8 -->
<g id="edge11_Node000001_Node000008" class="edge">
<title>Node1&#45;&gt;Node8</title>
<g id="a_edge11_Node000001_Node000008"><a xlink:title=" ">
<path fill="none" stroke="#63b8ff" d="M99.17,-119.78C120.26,-98.72 161.24,-60.85 203,-39 206.54,-37.15 210.25,-35.42 214.04,-33.81"/>
<polygon fill="#63b8ff" stroke="#63b8ff" points="215.58,-36.96 223.61,-30.05 213.03,-30.45 215.58,-36.96"/>
</a>
</g>
</g>
<!-- Node3 -->
<g id="Node000003" class="node">
<title>Node3</title>
<g id="a_Node000003"><a xlink:href="classApp_1_1Controllers_1_1StatsController.html#acbcc9cd24df7ea83bb72e818e3cf4ebe" target="_top" xlink:title="Genera la condición SQL para filtrar por rango de tiempo.">
<polygon fill="white" stroke="#666666" points="573,-150 406,-150 406,-120 573,-120 573,-150"/>
<text text-anchor="start" x="414" y="-138" font-family="Helvetica,sans-Serif" font-size="10.00">App\Controllers\StatsController</text>
<text text-anchor="middle" x="489.5" y="-127" font-family="Helvetica,sans-Serif" font-size="10.00">\getTimeRangeCondition</text>
</a>
</g>
</g>
<!-- Node2&#45;&gt;Node3 -->
<g id="edge2_Node000002_Node000003" class="edge">
<title>Node2&#45;&gt;Node3</title>
<g id="a_edge2_Node000002_Node000003"><a xlink:title=" ">
<path fill="none" stroke="#63b8ff" d="M349.39,-239.95C356.5,-237.36 363.52,-234.39 370,-231 407.36,-211.46 444.08,-179.09 466.52,-157.41"/>
<polygon fill="#63b8ff" stroke="#63b8ff" points="469.15,-159.73 473.83,-150.22 464.24,-154.73 469.15,-159.73"/>
</a>
</g>
</g>
<!-- Node4&#45;&gt;Node3 -->
<g id="edge4_Node000004_Node000003" class="edge">
<title>Node4&#45;&gt;Node3</title>
<g id="a_edge4_Node000004_Node000003"><a xlink:title=" ">
<path fill="none" stroke="#63b8ff" d="M342.33,-191.9C351.62,-189.1 361.12,-186.08 370,-183 395.03,-174.32 422.47,-163.3 444.64,-154.01"/>
<polygon fill="#63b8ff" stroke="#63b8ff" points="446.26,-157.12 454.11,-150.01 443.54,-150.68 446.26,-157.12"/>
</a>
</g>
</g>
<!-- Node5&#45;&gt;Node3 -->
<g id="edge6_Node000005_Node000003" class="edge">
<title>Node5&#45;&gt;Node3</title>
<g id="a_edge6_Node000005_Node000003"><a xlink:title=" ">
<path fill="none" stroke="#63b8ff" d="M370.12,-149.13C378.61,-148.12 387.27,-147.09 395.85,-146.06"/>
<polygon fill="#63b8ff" stroke="#63b8ff" points="396.36,-149.53 405.87,-144.87 395.53,-142.58 396.36,-149.53"/>
</a>
</g>
</g>
<!-- Node6&#45;&gt;Node3 -->
<g id="edge8_Node000006_Node000003" class="edge">
<title>Node6&#45;&gt;Node3</title>
<g id="a_edge8_Node000006_Node000003"><a xlink:title=" ">
<path fill="none" stroke="#63b8ff" d="M370.12,-120.87C378.61,-121.88 387.27,-122.91 395.85,-123.94"/>
<polygon fill="#63b8ff" stroke="#63b8ff" points="395.53,-127.42 405.87,-125.13 396.36,-120.47 395.53,-127.42"/>
</a>
</g>
</g>
<!-- Node7&#45;&gt;Node3 -->
<g id="edge10_Node000007_Node000003" class="edge">
<title>Node7&#45;&gt;Node3</title>
<g id="a_edge10_Node000007_Node000003"><a xlink:title=" ">
<path fill="none" stroke="#63b8ff" d="M342.33,-78.1C351.62,-80.9 361.12,-83.92 370,-87 395.03,-95.68 422.47,-106.7 444.64,-115.99"/>
<polygon fill="#63b8ff" stroke="#63b8ff" points="443.54,-119.32 454.11,-119.99 446.26,-112.88 443.54,-119.32"/>
</a>
</g>
</g>
<!-- Node8&#45;&gt;Node3 -->
<g id="edge12_Node000008_Node000003" class="edge">
<title>Node8&#45;&gt;Node3</title>
<g id="a_edge12_Node000008_Node000003"><a xlink:title=" ">
<path fill="none" stroke="#63b8ff" d="M349.39,-30.05C356.5,-32.64 363.52,-35.61 370,-39 407.36,-58.54 444.08,-90.91 466.52,-112.59"/>
<polygon fill="#63b8ff" stroke="#63b8ff" points="464.24,-115.27 473.83,-119.78 469.15,-110.27 464.24,-115.27"/>
</a>
</g>
</g>
</g>
</svg>

<g id="navigator" transform="translate(0 0)" fill="#404254">
  <rect fill="#f2f5e9" fill-opacity="0.5" stroke="#606060" stroke-width=".5" x="0" y="0" width="60" height="60"/>
  <use id="zoomplus" xlink:href="#zoomPlus" x="17" y="9" onmousedown="handleZoom(evt,'in')"/>
  <use id="zoomminus" xlink:href="#zoomMin" x="42" y="9" onmousedown="handleZoom(evt,'out')"/>
  <use id="reset" xlink:href="#resetDef" x="30" y="36" onmousedown="handleReset()"/>
   <use id="arrowup" xlink:href="#arrowUp" x="0" y="0" onmousedown="handlePan(0,-1)"/>
  <use id="arrowright" xlink:href="#arrowRight" x="0" y="0" onmousedown="handlePan(1,0)"/>
  <use id="arrowdown" xlink:href="#arrowDown" x="0" y="0" onmousedown="handlePan(0,1)"/>
  <use id="arrowleft" xlink:href="#arrowLeft" x="0" y="0" onmousedown="handlePan(-1,0)"/>
</g>
<svg viewBox="0 0 15 15" width="100%" height="30px" preserveAspectRatio="xMaxYMin meet">
 <g id="arrow_out" transform="scale(0.3 0.3)">
  <a xlink:href="classApp_1_1Controllers_1_1StatsController_a944a68a075295dfdc85e7e403b469358_cgraph_org.svg" target="_base">
   <rect id="button" ry="5" rx="5" y="6" x="6" height="38" width="38"
        fill="#f2f5e9" fill-opacity="0.5" stroke="#606060" stroke-width="1.0"/>
   <path id="arrow"
     d="M 11.500037,31.436501 C 11.940474,20.09759 22.043105,11.32322 32.158766,21.979434 L 37.068811,17.246167 C 37.068811,17.246167 37.088388,32 37.088388,32 L 22.160133,31.978069 C 22.160133,31.978069 26.997745,27.140456 26.997745,27.140456 C 18.528582,18.264221 13.291696,25.230495 11.500037,31.436501 z"
     style="fill:#404040;"/>
  </a>
 </g>
</svg>

<style type='text/css'>
<![CDATA[
[data-mouse-over-selected='false'] { opacity: 0.7; }
[data-mouse-over-selected='true']  { opacity: 1.0; }
]]>
</style>
<script type="application/ecmascript"><![CDATA[
document.addEventListener('DOMContentLoaded', (event) => {
  highlightEdges();
  highlightAdjacentNodes();
});
]]></script>
</svg>
