<?xml version="1.0" encoding="UTF-8" standalone="no"?>
<!DOCTYPE svg PUBLIC "-//W3C//DTD SVG 1.1//EN"
 "http://www.w3.org/Graphics/SVG/1.1/DTD/svg11.dtd">
<!-- Generated by graphviz version 2.43.0 (0)
 -->
<!-- Title: App\Controllers\UserController Pages: 1 -->
<svg width="167pt" height="177pt"
 viewBox="0.00 0.00 167.00 177.00" xmlns="http://www.w3.org/2000/svg" xmlns:xlink="http://www.w3.org/1999/xlink">
<g id="graph0" class="graph" transform="scale(1 1) rotate(0) translate(4 173)">
<title>App\Controllers\UserController</title>
<!-- Node1 -->
<g id="Node000001" class="node">
<title>Node1</title>
<g id="a_Node000001"><a xlink:title="Controlador para gestionar operaciones relacionadas con usuarios.">
<polygon fill="#999999" stroke="transparent" points="159,-169 0,-169 0,0 159,0 159,-169"/>
<text text-anchor="start" x="5.5" y="-156.5" font-family="Helvetica,sans-Serif" font-size="10.00">App\Controllers\UserController</text>
<text text-anchor="start" x="13" y="-141.5" font-family="Helvetica,sans-Serif" font-size="10.00">&#45;</text>
<text text-anchor="start" x="29.5" y="-141.5" font-family="Helvetica,sans-Serif" font-size="10.00">$auth</text>
<text text-anchor="start" x="13" y="-126.5" font-family="Helvetica,sans-Serif" font-size="10.00">&#45;</text>
<text text-anchor="start" x="29.5" y="-126.5" font-family="Helvetica,sans-Serif" font-size="10.00">$db</text>
<text text-anchor="start" x="13" y="-111.5" font-family="Helvetica,sans-Serif" font-size="10.00">&#45;</text>
<text text-anchor="start" x="29.5" y="-111.5" font-family="Helvetica,sans-Serif" font-size="10.00">$session</text>
<text text-anchor="start" x="10.5" y="-96.5" font-family="Helvetica,sans-Serif" font-size="10.00">+</text>
<text text-anchor="start" x="29.5" y="-96.5" font-family="Helvetica,sans-Serif" font-size="10.00">__construct()</text>
<text text-anchor="start" x="10.5" y="-81.5" font-family="Helvetica,sans-Serif" font-size="10.00">+</text>
<text text-anchor="start" x="29.5" y="-81.5" font-family="Helvetica,sans-Serif" font-size="10.00">createUser()</text>
<text text-anchor="start" x="10.5" y="-66.5" font-family="Helvetica,sans-Serif" font-size="10.00">+</text>
<text text-anchor="start" x="29.5" y="-66.5" font-family="Helvetica,sans-Serif" font-size="10.00">deleteUser()</text>
<text text-anchor="start" x="10.5" y="-51.5" font-family="Helvetica,sans-Serif" font-size="10.00">+</text>
<text text-anchor="start" x="29.5" y="-51.5" font-family="Helvetica,sans-Serif" font-size="10.00">getAllUsers()</text>
<text text-anchor="start" x="10.5" y="-36.5" font-family="Helvetica,sans-Serif" font-size="10.00">+</text>
<text text-anchor="start" x="29.5" y="-36.5" font-family="Helvetica,sans-Serif" font-size="10.00">profileHandler()</text>
<text text-anchor="start" x="10.5" y="-21.5" font-family="Helvetica,sans-Serif" font-size="10.00">+</text>
<text text-anchor="start" x="29.5" y="-21.5" font-family="Helvetica,sans-Serif" font-size="10.00">updateUserProfile()</text>
<text text-anchor="start" x="13" y="-6.5" font-family="Helvetica,sans-Serif" font-size="10.00">&#45;</text>
<text text-anchor="start" x="29.5" y="-6.5" font-family="Helvetica,sans-Serif" font-size="10.00">validateProfileUpdate()</text>
<polygon fill="#666666" stroke="#666666" points="0.5,-151.5 0.5,-151.5 159.5,-151.5 159.5,-151.5 0.5,-151.5"/>
<polygon fill="#666666" stroke="#666666" points="0.5,-106.5 0.5,-106.5 27.5,-106.5 27.5,-106.5 0.5,-106.5"/>
<polygon fill="#666666" stroke="#666666" points="27.5,-106.5 27.5,-106.5 159.5,-106.5 159.5,-106.5 27.5,-106.5"/>
<polygon fill="none" stroke="#666666" points="0,0 0,-169 159,-169 159,0 0,0"/>
</a>
</g>
</g>
</g>
</svg>
