<?xml version="1.0" encoding="UTF-8" standalone="no"?>
<!DOCTYPE svg PUBLIC "-//W3C//DTD SVG 1.1//EN"
 "http://www.w3.org/Graphics/SVG/1.1/DTD/svg11.dtd">
<!-- Generated by graphviz version 2.43.0 (0)
 -->
<!-- Title: App\Controllers\AuthController\base64URLEncode Pages: 1 -->
<svg width="977pt" height="86pt"
 viewBox="0.00 0.00 977.00 86.00" xmlns="http://www.w3.org/2000/svg" xmlns:xlink="http://www.w3.org/1999/xlink">
<g id="graph0" class="graph" transform="scale(1 1) rotate(0) translate(4 82)">
<title>App\Controllers\AuthController\base64URLEncode</title>
<!-- Node1 -->
<g id="Node000001" class="node">
<title>Node1</title>
<g id="a_Node000001"><a xlink:title="Codifica en Base64 URL seguro.">
<polygon fill="#999999" stroke="#666666" points="969,-54 804,-54 804,-24 969,-24 969,-54"/>
<text text-anchor="start" x="812" y="-42" font-family="Helvetica,sans-Serif" font-size="10.00">App\Controllers\AuthController</text>
<text text-anchor="middle" x="886.5" y="-31" font-family="Helvetica,sans-Serif" font-size="10.00">\base64URLEncode</text>
</a>
</g>
</g>
<!-- Node2 -->
<g id="Node000002" class="node">
<title>Node2</title>
<g id="a_Node000002"><a xlink:href="classApp_1_1Controllers_1_1AuthController.html#ab06917fbe57ab9b399e1d66d81807c4f" target="_top" xlink:title="Genera un token JWT.">
<polygon fill="white" stroke="#666666" points="768,-78 603,-78 603,-48 768,-48 768,-78"/>
<text text-anchor="start" x="611" y="-66" font-family="Helvetica,sans-Serif" font-size="10.00">App\Controllers\AuthController</text>
<text text-anchor="middle" x="685.5" y="-55" font-family="Helvetica,sans-Serif" font-size="10.00">\generateJWT</text>
</a>
</g>
</g>
<!-- Node1&#45;&gt;Node2 -->
<g id="edge1_Node000001_Node000002" class="edge">
<title>Node1&#45;&gt;Node2</title>
<g id="a_edge1_Node000001_Node000002"><a xlink:title=" ">
<path fill="none" stroke="#63b8ff" d="M793.96,-50.04C785.37,-51.08 776.7,-52.12 768.21,-53.15"/>
<polygon fill="#63b8ff" stroke="#63b8ff" points="794.48,-53.5 803.98,-48.83 793.64,-46.55 794.48,-53.5"/>
</a>
</g>
</g>
<!-- Node6 -->
<g id="Node000006" class="node">
<title>Node6</title>
<g id="a_Node000006"><a xlink:href="classApp_1_1Controllers_1_1AuthController.html#af4fd64293b9488b0ec68a243b7cdd6d0" target="_top" xlink:title="Verifica un token JWT.">
<polygon fill="white" stroke="#666666" points="768,-30 603,-30 603,0 768,0 768,-30"/>
<text text-anchor="start" x="611" y="-18" font-family="Helvetica,sans-Serif" font-size="10.00">App\Controllers\AuthController</text>
<text text-anchor="middle" x="685.5" y="-7" font-family="Helvetica,sans-Serif" font-size="10.00">\verifyToken</text>
</a>
</g>
</g>
<!-- Node1&#45;&gt;Node6 -->
<g id="edge5_Node000001_Node000006" class="edge">
<title>Node1&#45;&gt;Node6</title>
<g id="a_edge5_Node000001_Node000006"><a xlink:title=" ">
<path fill="none" stroke="#63b8ff" d="M793.96,-27.96C785.37,-26.92 776.7,-25.88 768.21,-24.85"/>
<polygon fill="#63b8ff" stroke="#63b8ff" points="793.64,-31.45 803.98,-29.17 794.48,-24.5 793.64,-31.45"/>
</a>
</g>
</g>
<!-- Node3 -->
<g id="Node000003" class="node">
<title>Node3</title>
<g id="a_Node000003"><a xlink:href="classApp_1_1Controllers_1_1AuthController.html#acbdad71780d5fdd8b8245739664aba6b" target="_top" xlink:title="Crea un token JWT para el usuario.">
<polygon fill="white" stroke="#666666" points="567,-78 402,-78 402,-48 567,-48 567,-78"/>
<text text-anchor="start" x="410" y="-66" font-family="Helvetica,sans-Serif" font-size="10.00">App\Controllers\AuthController</text>
<text text-anchor="middle" x="484.5" y="-55" font-family="Helvetica,sans-Serif" font-size="10.00">\createJWT</text>
</a>
</g>
</g>
<!-- Node2&#45;&gt;Node3 -->
<g id="edge2_Node000002_Node000003" class="edge">
<title>Node2&#45;&gt;Node3</title>
<g id="a_edge2_Node000002_Node000003"><a xlink:title=" ">
<path fill="none" stroke="#63b8ff" d="M592.96,-63C584.37,-63 575.7,-63 567.21,-63"/>
<polygon fill="#63b8ff" stroke="#63b8ff" points="592.98,-66.5 602.98,-63 592.98,-59.5 592.98,-66.5"/>
</a>
</g>
</g>
<!-- Node4 -->
<g id="Node000004" class="node">
<title>Node4</title>
<g id="a_Node000004"><a xlink:href="classApp_1_1Controllers_1_1AuthController.html#af4914b619824cf44e74a5c7c625cab73" target="_top" xlink:title="Inicia sesión de un usuario.">
<polygon fill="white" stroke="#666666" points="366,-78 201,-78 201,-48 366,-48 366,-78"/>
<text text-anchor="start" x="209" y="-66" font-family="Helvetica,sans-Serif" font-size="10.00">App\Controllers\AuthController</text>
<text text-anchor="middle" x="283.5" y="-55" font-family="Helvetica,sans-Serif" font-size="10.00">\login</text>
</a>
</g>
</g>
<!-- Node3&#45;&gt;Node4 -->
<g id="edge3_Node000003_Node000004" class="edge">
<title>Node3&#45;&gt;Node4</title>
<g id="a_edge3_Node000003_Node000004"><a xlink:title=" ">
<path fill="none" stroke="#63b8ff" d="M391.96,-63C383.37,-63 374.7,-63 366.21,-63"/>
<polygon fill="#63b8ff" stroke="#63b8ff" points="391.98,-66.5 401.98,-63 391.98,-59.5 391.98,-66.5"/>
</a>
</g>
</g>
<!-- Node5 -->
<g id="Node000005" class="node">
<title>Node5</title>
<g id="a_Node000005"><a xlink:href="classApp_1_1Controllers_1_1AuthController.html#a2898c39d96be7bc4075106d3ffa29d86" target="_top" xlink:title="Maneja la solicitud de inicio de sesión.">
<polygon fill="white" stroke="#666666" points="165,-78 0,-78 0,-48 165,-48 165,-78"/>
<text text-anchor="start" x="8" y="-66" font-family="Helvetica,sans-Serif" font-size="10.00">App\Controllers\AuthController</text>
<text text-anchor="middle" x="82.5" y="-55" font-family="Helvetica,sans-Serif" font-size="10.00">\loginHandler</text>
</a>
</g>
</g>
<!-- Node4&#45;&gt;Node5 -->
<g id="edge4_Node000004_Node000005" class="edge">
<title>Node4&#45;&gt;Node5</title>
<g id="a_edge4_Node000004_Node000005"><a xlink:title=" ">
<path fill="none" stroke="#63b8ff" d="M190.96,-63C182.37,-63 173.7,-63 165.21,-63"/>
<polygon fill="#63b8ff" stroke="#63b8ff" points="190.98,-66.5 200.98,-63 190.98,-59.5 190.98,-66.5"/>
</a>
</g>
</g>
<!-- Node7 -->
<g id="Node000007" class="node">
<title>Node7</title>
<g id="a_Node000007"><a xlink:href="classApp_1_1Controllers_1_1AuthController.html#aa0db53139c1ebc5414b5e4985a46b4ae" target="_top" xlink:title="Verifica si el usuario está autenticado.">
<polygon fill="white" stroke="#666666" points="567,-30 402,-30 402,0 567,0 567,-30"/>
<text text-anchor="start" x="410" y="-18" font-family="Helvetica,sans-Serif" font-size="10.00">App\Controllers\AuthController</text>
<text text-anchor="middle" x="484.5" y="-7" font-family="Helvetica,sans-Serif" font-size="10.00">\isLoggedIn</text>
</a>
</g>
</g>
<!-- Node6&#45;&gt;Node7 -->
<g id="edge6_Node000006_Node000007" class="edge">
<title>Node6&#45;&gt;Node7</title>
<g id="a_edge6_Node000006_Node000007"><a xlink:title=" ">
<path fill="none" stroke="#63b8ff" d="M592.96,-15C584.37,-15 575.7,-15 567.21,-15"/>
<polygon fill="#63b8ff" stroke="#63b8ff" points="592.98,-18.5 602.98,-15 592.98,-11.5 592.98,-18.5"/>
</a>
</g>
</g>
</g>
</svg>
