<?xml version="1.0" encoding="UTF-8" standalone="no"?>
<!DOCTYPE svg PUBLIC "-//W3C//DTD SVG 1.1//EN"
 "http://www.w3.org/Graphics/SVG/1.1/DTD/svg11.dtd">
<!-- Generated by graphviz version 2.43.0 (0)
 -->
<!-- Title: App\Controllers\Api\ApiAuthController\requireAuth Pages: 1 -->
<svg width="781pt" height="86pt"
 viewBox="0.00 0.00 781.00 86.00" xmlns="http://www.w3.org/2000/svg" xmlns:xlink="http://www.w3.org/1999/xlink">
<g id="graph0" class="graph" transform="scale(1 1) rotate(0) translate(4 82)">
<title>App\Controllers\Api\ApiAuthController\requireAuth</title>
<!-- Node1 -->
<g id="Node000001" class="node">
<title>Node1</title>
<g id="a_Node000001"><a xlink:title="Verifica si el usuario tiene acceso a un recurso y responde con error 401 si no.">
<polygon fill="#999999" stroke="#666666" points="166,-54 0,-54 0,-24 166,-24 166,-54"/>
<text text-anchor="start" x="8" y="-42" font-family="Helvetica,sans-Serif" font-size="10.00">App\Controllers\Api</text>
<text text-anchor="middle" x="83" y="-31" font-family="Helvetica,sans-Serif" font-size="10.00">\ApiAuthController\requireAuth</text>
</a>
</g>
</g>
<!-- Node2 -->
<g id="Node000002" class="node">
<title>Node2</title>
<g id="a_Node000002"><a xlink:href="classApp_1_1Controllers_1_1Api_1_1ApiAuthController.html#aa789b2214dd7edb964e7a56a5ffb8396" target="_top" xlink:title="Obtiene el usuario autenticado de la solicitud actual.">
<polygon fill="white" stroke="#666666" points="349,-59.5 202,-59.5 202,-18.5 349,-18.5 349,-59.5"/>
<text text-anchor="start" x="210" y="-47.5" font-family="Helvetica,sans-Serif" font-size="10.00">App\Controllers\Api</text>
<text text-anchor="start" x="210" y="-36.5" font-family="Helvetica,sans-Serif" font-size="10.00">\ApiAuthController\getUser</text>
<text text-anchor="middle" x="275.5" y="-25.5" font-family="Helvetica,sans-Serif" font-size="10.00">FromRequest</text>
</a>
</g>
</g>
<!-- Node1&#45;&gt;Node2 -->
<g id="edge1_Node000001_Node000002" class="edge">
<title>Node1&#45;&gt;Node2</title>
<g id="a_edge1_Node000001_Node000002"><a xlink:title=" ">
<path fill="none" stroke="#63b8ff" d="M166.17,-39C174.62,-39 183.21,-39 191.66,-39"/>
<polygon fill="#63b8ff" stroke="#63b8ff" points="191.89,-42.5 201.89,-39 191.89,-35.5 191.89,-42.5"/>
</a>
</g>
</g>
<!-- Node3 -->
<g id="Node000003" class="node">
<title>Node3</title>
<g id="a_Node000003"><a xlink:href="classApp_1_1Controllers_1_1Api_1_1ApiAuthController.html#aec3b7a5727ca308724b736b9df0ba995" target="_top" xlink:title="Verifica un token JWT.">
<polygon fill="white" stroke="#666666" points="537,-59.5 385,-59.5 385,-18.5 537,-18.5 537,-59.5"/>
<text text-anchor="start" x="393" y="-47.5" font-family="Helvetica,sans-Serif" font-size="10.00">App\Controllers\Api</text>
<text text-anchor="start" x="393" y="-36.5" font-family="Helvetica,sans-Serif" font-size="10.00">\ApiAuthController\verifyJwt</text>
<text text-anchor="middle" x="461" y="-25.5" font-family="Helvetica,sans-Serif" font-size="10.00">Token</text>
</a>
</g>
</g>
<!-- Node2&#45;&gt;Node3 -->
<g id="edge2_Node000002_Node000003" class="edge">
<title>Node2&#45;&gt;Node3</title>
<g id="a_edge2_Node000002_Node000003"><a xlink:title=" ">
<path fill="none" stroke="#63b8ff" d="M349.02,-39C357.52,-39 366.25,-39 374.89,-39"/>
<polygon fill="#63b8ff" stroke="#63b8ff" points="374.99,-42.5 384.99,-39 374.99,-35.5 374.99,-42.5"/>
</a>
</g>
</g>
<!-- Node4 -->
<g id="Node000004" class="node">
<title>Node4</title>
<g id="a_Node000004"><a xlink:href="classApp_1_1Controllers_1_1Api_1_1ApiAuthController.html#a3449497bf9ba2c33144f2ed5ddb2d09b" target="_top" xlink:title="Decodifica Base64 URL seguro.">
<polygon fill="white" stroke="#666666" points="773,-78 573,-78 573,-48 773,-48 773,-78"/>
<text text-anchor="start" x="581" y="-66" font-family="Helvetica,sans-Serif" font-size="10.00">App\Controllers\Api</text>
<text text-anchor="middle" x="673" y="-55" font-family="Helvetica,sans-Serif" font-size="10.00">\ApiAuthController\base64URLDecode</text>
</a>
</g>
</g>
<!-- Node3&#45;&gt;Node4 -->
<g id="edge3_Node000003_Node000004" class="edge">
<title>Node3&#45;&gt;Node4</title>
<g id="a_edge3_Node000003_Node000004"><a xlink:title=" ">
<path fill="none" stroke="#63b8ff" d="M537.22,-47.6C545.51,-48.54 554.07,-49.52 562.67,-50.51"/>
<polygon fill="#63b8ff" stroke="#63b8ff" points="562.43,-54 572.77,-51.66 563.23,-47.05 562.43,-54"/>
</a>
</g>
</g>
<!-- Node5 -->
<g id="Node000005" class="node">
<title>Node5</title>
<g id="a_Node000005"><a xlink:href="classApp_1_1Controllers_1_1Api_1_1ApiAuthController.html#a5a89660754ac9448207268439385a2cc" target="_top" xlink:title="Codifica en Base64 URL seguro.">
<polygon fill="white" stroke="#666666" points="772.5,-30 573.5,-30 573.5,0 772.5,0 772.5,-30"/>
<text text-anchor="start" x="581.5" y="-18" font-family="Helvetica,sans-Serif" font-size="10.00">App\Controllers\Api</text>
<text text-anchor="middle" x="673" y="-7" font-family="Helvetica,sans-Serif" font-size="10.00">\ApiAuthController\base64URLEncode</text>
</a>
</g>
</g>
<!-- Node3&#45;&gt;Node5 -->
<g id="edge4_Node000003_Node000005" class="edge">
<title>Node3&#45;&gt;Node5</title>
<g id="a_edge4_Node000003_Node000005"><a xlink:title=" ">
<path fill="none" stroke="#63b8ff" d="M537.22,-30.4C545.77,-29.43 554.61,-28.42 563.48,-27.4"/>
<polygon fill="#63b8ff" stroke="#63b8ff" points="563.96,-30.87 573.5,-26.26 563.17,-23.92 563.96,-30.87"/>
</a>
</g>
</g>
</g>
</svg>
