<?xml version="1.0" encoding="UTF-8" standalone="no"?>
<!DOCTYPE svg PUBLIC "-//W3C//DTD SVG 1.1//EN"
 "http://www.w3.org/Graphics/SVG/1.1/DTD/svg11.dtd">
<!-- Generated by graphviz version 2.43.0 (0)
 -->
<!-- Title: App\Controllers\StatsController\getDashboardStats Pages: 1 -->
<svg width="784pt" height="278pt"
 viewBox="0.00 0.00 784.00 278.00" xmlns="http://www.w3.org/2000/svg" xmlns:xlink="http://www.w3.org/1999/xlink">
<g id="graph0" class="graph" transform="scale(1 1) rotate(0) translate(4 274)">
<title>App\Controllers\StatsController\getDashboardStats</title>
<!-- Node1 -->
<g id="Node000001" class="node">
<title>Node1</title>
<g id="a_Node000001"><a xlink:title="Obtiene todas las estadísticas necesarias para el panel de administración.">
<polygon fill="#999999" stroke="#666666" points="167,-150 0,-150 0,-120 167,-120 167,-150"/>
<text text-anchor="start" x="8" y="-138" font-family="Helvetica,sans-Serif" font-size="10.00">App\Controllers\StatsController</text>
<text text-anchor="middle" x="83.5" y="-127" font-family="Helvetica,sans-Serif" font-size="10.00">\getDashboardStats</text>
</a>
</g>
</g>
<!-- Node2 -->
<g id="Node000002" class="node">
<title>Node2</title>
<g id="a_Node000002"><a xlink:href="classApp_1_1Controllers_1_1StatsController.html#a944a68a075295dfdc85e7e403b469358" target="_top" xlink:title="Obtiene todas las estadísticas relacionadas con hongos.">
<polygon fill="white" stroke="#666666" points="370,-150 203,-150 203,-120 370,-120 370,-150"/>
<text text-anchor="start" x="211" y="-138" font-family="Helvetica,sans-Serif" font-size="10.00">App\Controllers\StatsController</text>
<text text-anchor="middle" x="286.5" y="-127" font-family="Helvetica,sans-Serif" font-size="10.00">\getFungiStats</text>
</a>
</g>
</g>
<!-- Node1&#45;&gt;Node2 -->
<g id="edge1_Node000001_Node000002" class="edge">
<title>Node1&#45;&gt;Node2</title>
<g id="a_edge1_Node000001_Node000002"><a xlink:title=" ">
<path fill="none" stroke="#63b8ff" d="M167.12,-135C175.61,-135 184.27,-135 192.85,-135"/>
<polygon fill="#63b8ff" stroke="#63b8ff" points="192.87,-138.5 202.87,-135 192.87,-131.5 192.87,-138.5"/>
</a>
</g>
</g>
<!-- Node3 -->
<g id="Node000003" class="node">
<title>Node3</title>
<g id="a_Node000003"><a xlink:href="classApp_1_1Controllers_1_1StatsController.html#a19103b3b40588b307b330f1b37e408d8" target="_top" xlink:title="Obtiene estadísticas sobre las clases taxonómicas de hongos.">
<polygon fill="white" stroke="#666666" points="573,-270 406,-270 406,-240 573,-240 573,-270"/>
<text text-anchor="start" x="414" y="-258" font-family="Helvetica,sans-Serif" font-size="10.00">App\Controllers\StatsController</text>
<text text-anchor="middle" x="489.5" y="-247" font-family="Helvetica,sans-Serif" font-size="10.00">\getClassStats</text>
</a>
</g>
</g>
<!-- Node2&#45;&gt;Node3 -->
<g id="edge2_Node000002_Node000003" class="edge">
<title>Node2&#45;&gt;Node3</title>
<g id="a_edge2_Node000002_Node000003"><a xlink:title=" ">
<path fill="none" stroke="#63b8ff" d="M302.17,-150.22C323.26,-171.28 364.24,-209.15 406,-231 409.54,-232.85 413.25,-234.58 417.04,-236.19"/>
<polygon fill="#63b8ff" stroke="#63b8ff" points="416.03,-239.55 426.61,-239.95 418.58,-233.04 416.03,-239.55"/>
</a>
</g>
</g>
<!-- Node5 -->
<g id="Node000005" class="node">
<title>Node5</title>
<g id="a_Node000005"><a xlink:href="classApp_1_1Controllers_1_1StatsController.html#a42b7befe748ebafdfaf9a1e1669b6a4a" target="_top" xlink:title="Obtiene estadísticas sobre las divisiones taxonómicas de hongos.">
<polygon fill="white" stroke="#666666" points="573,-222 406,-222 406,-192 573,-192 573,-222"/>
<text text-anchor="start" x="414" y="-210" font-family="Helvetica,sans-Serif" font-size="10.00">App\Controllers\StatsController</text>
<text text-anchor="middle" x="489.5" y="-199" font-family="Helvetica,sans-Serif" font-size="10.00">\getDivisionStats</text>
</a>
</g>
</g>
<!-- Node2&#45;&gt;Node5 -->
<g id="edge4_Node000002_Node000005" class="edge">
<title>Node2&#45;&gt;Node5</title>
<g id="a_edge4_Node000002_Node000005"><a xlink:title=" ">
<path fill="none" stroke="#63b8ff" d="M321.89,-150.01C345.35,-159.99 377.27,-173.03 406,-183 411.83,-185.02 417.92,-187.02 424.05,-188.94"/>
<polygon fill="#63b8ff" stroke="#63b8ff" points="423.08,-192.3 433.67,-191.9 425.14,-185.61 423.08,-192.3"/>
</a>
</g>
</g>
<!-- Node6 -->
<g id="Node000006" class="node">
<title>Node6</title>
<g id="a_Node000006"><a xlink:href="classApp_1_1Controllers_1_1StatsController.html#a339d384906766d15e008dbfda50a2ca8" target="_top" xlink:title="Obtiene estadísticas de comestibilidad de hongos.">
<polygon fill="white" stroke="#666666" points="573,-174 406,-174 406,-144 573,-144 573,-174"/>
<text text-anchor="start" x="414" y="-162" font-family="Helvetica,sans-Serif" font-size="10.00">App\Controllers\StatsController</text>
<text text-anchor="middle" x="489.5" y="-151" font-family="Helvetica,sans-Serif" font-size="10.00">\getEdibilityStats</text>
</a>
</g>
</g>
<!-- Node2&#45;&gt;Node6 -->
<g id="edge6_Node000002_Node000006" class="edge">
<title>Node2&#45;&gt;Node6</title>
<g id="a_edge6_Node000002_Node000006"><a xlink:title=" ">
<path fill="none" stroke="#63b8ff" d="M370.12,-144.87C378.61,-145.88 387.27,-146.91 395.85,-147.94"/>
<polygon fill="#63b8ff" stroke="#63b8ff" points="395.53,-151.42 405.87,-149.13 396.36,-144.47 395.53,-151.42"/>
</a>
</g>
</g>
<!-- Node7 -->
<g id="Node000007" class="node">
<title>Node7</title>
<g id="a_Node000007"><a xlink:href="classApp_1_1Controllers_1_1StatsController.html#a9e0cdd48bfd132bccade19031dca3c25" target="_top" xlink:title="Obtiene estadísticas sobre las familias de hongos más comunes.">
<polygon fill="white" stroke="#666666" points="573,-126 406,-126 406,-96 573,-96 573,-126"/>
<text text-anchor="start" x="414" y="-114" font-family="Helvetica,sans-Serif" font-size="10.00">App\Controllers\StatsController</text>
<text text-anchor="middle" x="489.5" y="-103" font-family="Helvetica,sans-Serif" font-size="10.00">\getFamilyStats</text>
</a>
</g>
</g>
<!-- Node2&#45;&gt;Node7 -->
<g id="edge8_Node000002_Node000007" class="edge">
<title>Node2&#45;&gt;Node7</title>
<g id="a_edge8_Node000002_Node000007"><a xlink:title=" ">
<path fill="none" stroke="#63b8ff" d="M370.12,-125.13C378.61,-124.12 387.27,-123.09 395.85,-122.06"/>
<polygon fill="#63b8ff" stroke="#63b8ff" points="396.36,-125.53 405.87,-120.87 395.53,-118.58 396.36,-125.53"/>
</a>
</g>
</g>
<!-- Node8 -->
<g id="Node000008" class="node">
<title>Node8</title>
<g id="a_Node000008"><a xlink:href="classApp_1_1Controllers_1_1StatsController.html#a2ff7db3ac8f173dbccfbbb9d61b9412f" target="_top" xlink:title="Obtiene estadísticas sobre los órdenes taxonómicos de hongos.">
<polygon fill="white" stroke="#666666" points="573,-78 406,-78 406,-48 573,-48 573,-78"/>
<text text-anchor="start" x="414" y="-66" font-family="Helvetica,sans-Serif" font-size="10.00">App\Controllers\StatsController</text>
<text text-anchor="middle" x="489.5" y="-55" font-family="Helvetica,sans-Serif" font-size="10.00">\getOrderStats</text>
</a>
</g>
</g>
<!-- Node2&#45;&gt;Node8 -->
<g id="edge10_Node000002_Node000008" class="edge">
<title>Node2&#45;&gt;Node8</title>
<g id="a_edge10_Node000002_Node000008"><a xlink:title=" ">
<path fill="none" stroke="#63b8ff" d="M321.89,-119.99C345.35,-110.01 377.27,-96.97 406,-87 411.83,-84.98 417.92,-82.98 424.05,-81.06"/>
<polygon fill="#63b8ff" stroke="#63b8ff" points="425.14,-84.39 433.67,-78.1 423.08,-77.7 425.14,-84.39"/>
</a>
</g>
</g>
<!-- Node9 -->
<g id="Node000009" class="node">
<title>Node9</title>
<g id="a_Node000009"><a xlink:href="classApp_1_1Controllers_1_1StatsController.html#a9e81a77bff8dcf7481dbc58a4265ebe8" target="_top" xlink:title="Obtiene los hongos más populares basados en vistas.">
<polygon fill="white" stroke="#666666" points="573,-30 406,-30 406,0 573,0 573,-30"/>
<text text-anchor="start" x="414" y="-18" font-family="Helvetica,sans-Serif" font-size="10.00">App\Controllers\StatsController</text>
<text text-anchor="middle" x="489.5" y="-7" font-family="Helvetica,sans-Serif" font-size="10.00">\getPopularFungi</text>
</a>
</g>
</g>
<!-- Node2&#45;&gt;Node9 -->
<g id="edge12_Node000002_Node000009" class="edge">
<title>Node2&#45;&gt;Node9</title>
<g id="a_edge12_Node000002_Node000009"><a xlink:title=" ">
<path fill="none" stroke="#63b8ff" d="M302.17,-119.78C323.26,-98.72 364.24,-60.85 406,-39 409.54,-37.15 413.25,-35.42 417.04,-33.81"/>
<polygon fill="#63b8ff" stroke="#63b8ff" points="418.58,-36.96 426.61,-30.05 416.03,-30.45 418.58,-36.96"/>
</a>
</g>
</g>
<!-- Node4 -->
<g id="Node000004" class="node">
<title>Node4</title>
<g id="a_Node000004"><a xlink:href="classApp_1_1Controllers_1_1StatsController.html#acbcc9cd24df7ea83bb72e818e3cf4ebe" target="_top" xlink:title="Genera la condición SQL para filtrar por rango de tiempo.">
<polygon fill="white" stroke="#666666" points="776,-150 609,-150 609,-120 776,-120 776,-150"/>
<text text-anchor="start" x="617" y="-138" font-family="Helvetica,sans-Serif" font-size="10.00">App\Controllers\StatsController</text>
<text text-anchor="middle" x="692.5" y="-127" font-family="Helvetica,sans-Serif" font-size="10.00">\getTimeRangeCondition</text>
</a>
</g>
</g>
<!-- Node3&#45;&gt;Node4 -->
<g id="edge3_Node000003_Node000004" class="edge">
<title>Node3&#45;&gt;Node4</title>
<g id="a_edge3_Node000003_Node000004"><a xlink:title=" ">
<path fill="none" stroke="#63b8ff" d="M552.39,-239.95C559.5,-237.36 566.52,-234.39 573,-231 610.36,-211.46 647.08,-179.09 669.52,-157.41"/>
<polygon fill="#63b8ff" stroke="#63b8ff" points="672.15,-159.73 676.83,-150.22 667.24,-154.73 672.15,-159.73"/>
</a>
</g>
</g>
<!-- Node5&#45;&gt;Node4 -->
<g id="edge5_Node000005_Node000004" class="edge">
<title>Node5&#45;&gt;Node4</title>
<g id="a_edge5_Node000005_Node000004"><a xlink:title=" ">
<path fill="none" stroke="#63b8ff" d="M545.33,-191.9C554.62,-189.1 564.12,-186.08 573,-183 598.03,-174.32 625.47,-163.3 647.64,-154.01"/>
<polygon fill="#63b8ff" stroke="#63b8ff" points="649.26,-157.12 657.11,-150.01 646.54,-150.68 649.26,-157.12"/>
</a>
</g>
</g>
<!-- Node6&#45;&gt;Node4 -->
<g id="edge7_Node000006_Node000004" class="edge">
<title>Node6&#45;&gt;Node4</title>
<g id="a_edge7_Node000006_Node000004"><a xlink:title=" ">
<path fill="none" stroke="#63b8ff" d="M573.12,-149.13C581.61,-148.12 590.27,-147.09 598.85,-146.06"/>
<polygon fill="#63b8ff" stroke="#63b8ff" points="599.36,-149.53 608.87,-144.87 598.53,-142.58 599.36,-149.53"/>
</a>
</g>
</g>
<!-- Node7&#45;&gt;Node4 -->
<g id="edge9_Node000007_Node000004" class="edge">
<title>Node7&#45;&gt;Node4</title>
<g id="a_edge9_Node000007_Node000004"><a xlink:title=" ">
<path fill="none" stroke="#63b8ff" d="M573.12,-120.87C581.61,-121.88 590.27,-122.91 598.85,-123.94"/>
<polygon fill="#63b8ff" stroke="#63b8ff" points="598.53,-127.42 608.87,-125.13 599.36,-120.47 598.53,-127.42"/>
</a>
</g>
</g>
<!-- Node8&#45;&gt;Node4 -->
<g id="edge11_Node000008_Node000004" class="edge">
<title>Node8&#45;&gt;Node4</title>
<g id="a_edge11_Node000008_Node000004"><a xlink:title=" ">
<path fill="none" stroke="#63b8ff" d="M545.33,-78.1C554.62,-80.9 564.12,-83.92 573,-87 598.03,-95.68 625.47,-106.7 647.64,-115.99"/>
<polygon fill="#63b8ff" stroke="#63b8ff" points="646.54,-119.32 657.11,-119.99 649.26,-112.88 646.54,-119.32"/>
</a>
</g>
</g>
<!-- Node9&#45;&gt;Node4 -->
<g id="edge13_Node000009_Node000004" class="edge">
<title>Node9&#45;&gt;Node4</title>
<g id="a_edge13_Node000009_Node000004"><a xlink:title=" ">
<path fill="none" stroke="#63b8ff" d="M552.39,-30.05C559.5,-32.64 566.52,-35.61 573,-39 610.36,-58.54 647.08,-90.91 669.52,-112.59"/>
<polygon fill="#63b8ff" stroke="#63b8ff" points="667.24,-115.27 676.83,-119.78 672.15,-110.27 667.24,-115.27"/>
</a>
</g>
</g>
</g>
</svg>
