<?xml version="1.0" encoding="UTF-8" standalone="no"?>
<!DOCTYPE svg PUBLIC "-//W3C//DTD SVG 1.1//EN"
 "http://www.w3.org/Graphics/SVG/1.1/DTD/svg11.dtd">
<!-- Generated by graphviz version 2.43.0 (0)
 -->
<!-- Title: App\Controllers\LangController\isLanguageSupported Pages: 1 -->
<svg width="578pt" height="108pt"
 viewBox="0.00 0.00 578.00 108.00" xmlns="http://www.w3.org/2000/svg" xmlns:xlink="http://www.w3.org/1999/xlink">
<g id="graph0" class="graph" transform="scale(1 1) rotate(0) translate(4 104)">
<title>App\Controllers\LangController\isLanguageSupported</title>
<!-- Node1 -->
<g id="Node000001" class="node">
<title>Node1</title>
<g id="a_Node000001"><a xlink:title="Verifica si un idioma está soportado.">
<polygon fill="#999999" stroke="#666666" points="570,-52 404,-52 404,-22 570,-22 570,-52"/>
<text text-anchor="start" x="412" y="-40" font-family="Helvetica,sans-Serif" font-size="10.00">App\Controllers\LangController</text>
<text text-anchor="middle" x="487" y="-29" font-family="Helvetica,sans-Serif" font-size="10.00">\isLanguageSupported</text>
</a>
</g>
</g>
<!-- Node2 -->
<g id="Node000002" class="node">
<title>Node2</title>
<g id="a_Node000002"><a xlink:href="classApp_1_1Controllers_1_1LangController.html#a13fbc690481f06279c66dd4e168bbc14" target="_top" xlink:title="Cambia el idioma de la aplicación.">
<polygon fill="white" stroke="#666666" points="368,-100 202,-100 202,-70 368,-70 368,-100"/>
<text text-anchor="start" x="210" y="-88" font-family="Helvetica,sans-Serif" font-size="10.00">App\Controllers\LangController</text>
<text text-anchor="middle" x="285" y="-77" font-family="Helvetica,sans-Serif" font-size="10.00">\changeLanguage</text>
</a>
</g>
</g>
<!-- Node1&#45;&gt;Node2 -->
<g id="edge1_Node000001_Node000002" class="edge">
<title>Node1&#45;&gt;Node2</title>
<g id="a_edge1_Node000001_Node000002"><a xlink:title=" ">
<path fill="none" stroke="#63b8ff" d="M413.33,-54.44C392.09,-59.54 369.06,-65.07 348.51,-70"/>
<polygon fill="#63b8ff" stroke="#63b8ff" points="414.36,-57.79 423.27,-52.06 412.73,-50.99 414.36,-57.79"/>
</a>
</g>
</g>
<!-- Node3 -->
<g id="Node000003" class="node">
<title>Node3</title>
<g id="a_Node000003"><a xlink:href="classApp_1_1Controllers_1_1LangController.html#a6f8a96985210b857478f7abb5a1608fd" target="_top" xlink:title="Configura el entorno local (gettext) para el idioma seleccionado.">
<polygon fill="white" stroke="#666666" points="368,-52 202,-52 202,-22 368,-22 368,-52"/>
<text text-anchor="start" x="210" y="-40" font-family="Helvetica,sans-Serif" font-size="10.00">App\Controllers\LangController</text>
<text text-anchor="middle" x="285" y="-29" font-family="Helvetica,sans-Serif" font-size="10.00">\configureLocale</text>
</a>
</g>
</g>
<!-- Node1&#45;&gt;Node3 -->
<g id="edge2_Node000001_Node000003" class="edge">
<title>Node1&#45;&gt;Node3</title>
<g id="a_edge2_Node000001_Node000003"><a xlink:title=" ">
<path fill="none" stroke="#63b8ff" d="M393.53,-37C385.09,-37 376.57,-37 368.22,-37"/>
<polygon fill="#63b8ff" stroke="#63b8ff" points="393.79,-40.5 403.79,-37 393.79,-33.5 393.79,-40.5"/>
</a>
</g>
</g>
<!-- Node4 -->
<g id="Node000004" class="node">
<title>Node4</title>
<g id="a_Node000004"><a xlink:href="classApp_1_1Controllers_1_1LangController.html#af5571544f9e3d28aa142583ede742466" target="_top" xlink:title="Inicializa el idioma de la aplicación.">
<polygon fill="white" stroke="#666666" points="166,-30 0,-30 0,0 166,0 166,-30"/>
<text text-anchor="start" x="8" y="-18" font-family="Helvetica,sans-Serif" font-size="10.00">App\Controllers\LangController</text>
<text text-anchor="middle" x="83" y="-7" font-family="Helvetica,sans-Serif" font-size="10.00">\initializeLanguage</text>
</a>
</g>
</g>
<!-- Node1&#45;&gt;Node4 -->
<g id="edge4_Node000001_Node000004" class="edge">
<title>Node1&#45;&gt;Node4</title>
<g id="a_edge4_Node000001_Node000004"><a xlink:title=" ">
<path fill="none" stroke="#63b8ff" d="M414.08,-19.99C398.95,-17.08 383.02,-14.51 368,-13 300.3,-6.18 223.06,-7.3 166.24,-9.77"/>
<polygon fill="#63b8ff" stroke="#63b8ff" points="413.4,-23.42 423.89,-21.94 414.77,-16.55 413.4,-23.42"/>
</a>
</g>
</g>
<!-- Node3&#45;&gt;Node4 -->
<g id="edge3_Node000003_Node000004" class="edge">
<title>Node3&#45;&gt;Node4</title>
<g id="a_edge3_Node000003_Node000004"><a xlink:title=" ">
<path fill="none" stroke="#63b8ff" d="M191.81,-26.86C183.27,-25.92 174.66,-24.97 166.22,-24.04"/>
<polygon fill="#63b8ff" stroke="#63b8ff" points="191.46,-30.34 201.79,-27.96 192.23,-23.38 191.46,-30.34"/>
</a>
</g>
</g>
</g>
</svg>
