<?xml version="1.0" encoding="UTF-8" standalone="no"?>
<!DOCTYPE svg PUBLIC "-//W3C//DTD SVG 1.1//EN"
 "http://www.w3.org/Graphics/SVG/1.1/DTD/svg11.dtd">
<!-- Generated by graphviz version 2.43.0 (0)
 -->
<!-- Title: App\Controllers\RouteController\handleRequest Pages: 1 -->
<svg width="722pt" height="81pt"
 viewBox="0.00 0.00 722.00 81.00" xmlns="http://www.w3.org/2000/svg" xmlns:xlink="http://www.w3.org/1999/xlink">
<g id="graph0" class="graph" transform="scale(1 1) rotate(0) translate(4 77)">
<title>App\Controllers\RouteController\handleRequest</title>
<!-- Node1 -->
<g id="Node000001" class="node">
<title>Node1</title>
<g id="a_Node000001"><a xlink:title="Maneja la solicitud de ruta actual.">
<polygon fill="#999999" stroke="#666666" points="171,-51 0,-51 0,-21 171,-21 171,-51"/>
<text text-anchor="start" x="8" y="-39" font-family="Helvetica,sans-Serif" font-size="10.00">App\Controllers\RouteController</text>
<text text-anchor="middle" x="85.5" y="-28" font-family="Helvetica,sans-Serif" font-size="10.00">\handleRequest</text>
</a>
</g>
</g>
<!-- Node2 -->
<g id="Node000002" class="node">
<title>Node2</title>
<g id="a_Node000002"><a xlink:href="classApp_1_1Controllers_1_1RouteController.html#a2bbf8018284952d53e25713fac3bb798" target="_top" xlink:title="Procesa rutas que coinciden con patrones de expresiones regulares.">
<polygon fill="white" stroke="#666666" points="378,-30 207,-30 207,0 378,0 378,-30"/>
<text text-anchor="start" x="215" y="-18" font-family="Helvetica,sans-Serif" font-size="10.00">App\Controllers\RouteController</text>
<text text-anchor="middle" x="292.5" y="-7" font-family="Helvetica,sans-Serif" font-size="10.00">\processPatternRoutes</text>
</a>
</g>
</g>
<!-- Node1&#45;&gt;Node2 -->
<g id="edge1_Node000001_Node000002" class="edge">
<title>Node1&#45;&gt;Node2</title>
<g id="a_edge1_Node000001_Node000002"><a xlink:title=" ">
<path fill="none" stroke="#63b8ff" d="M171.06,-27.34C179.55,-26.47 188.2,-25.58 196.78,-24.7"/>
<polygon fill="#63b8ff" stroke="#63b8ff" points="197.21,-28.18 206.8,-23.68 196.49,-21.21 197.21,-28.18"/>
</a>
</g>
</g>
<!-- Node3 -->
<g id="Node000003" class="node">
<title>Node3</title>
<g id="a_Node000003"><a xlink:href="classApp_1_1Controllers_1_1RouteController.html#a1ab0ab07cd77cb1c6c62390f0ed7fae3" target="_top" xlink:title="Procesa una ruta específica y maneja las redirecciones, autenticación y renderizado.">
<polygon fill="white" stroke="#666666" points="585,-73 414,-73 414,-43 585,-43 585,-73"/>
<text text-anchor="start" x="422" y="-61" font-family="Helvetica,sans-Serif" font-size="10.00">App\Controllers\RouteController</text>
<text text-anchor="middle" x="499.5" y="-50" font-family="Helvetica,sans-Serif" font-size="10.00">\processRoute</text>
</a>
</g>
</g>
<!-- Node1&#45;&gt;Node3 -->
<g id="edge5_Node000001_Node000003" class="edge">
<title>Node1&#45;&gt;Node3</title>
<g id="a_edge5_Node000001_Node000003"><a xlink:title=" ">
<path fill="none" stroke="#63b8ff" d="M171.37,-40.53C238.95,-44.14 333.5,-49.19 403.59,-52.93"/>
<polygon fill="#63b8ff" stroke="#63b8ff" points="403.57,-56.44 413.74,-53.47 403.94,-49.45 403.57,-56.44"/>
</a>
</g>
</g>
<!-- Node2&#45;&gt;Node3 -->
<g id="edge2_Node000002_Node000003" class="edge">
<title>Node2&#45;&gt;Node3</title>
<g id="a_edge2_Node000002_Node000003"><a xlink:title=" ">
<path fill="none" stroke="#63b8ff" d="M365.2,-30.04C381.9,-33.54 399.8,-37.3 416.89,-40.88"/>
<polygon fill="#63b8ff" stroke="#63b8ff" points="416.34,-44.34 426.84,-42.97 417.77,-37.49 416.34,-44.34"/>
</a>
</g>
</g>
<!-- Node4 -->
<g id="Node000004" class="node">
<title>Node4</title>
<g id="a_Node000004"><a xlink:href="routes_8php.html#a6c204a36e81bc356bb38645948b15f75" target="_top" xlink:title="Renderiza una plantilla con los datos proporcionados.">
<polygon fill="white" stroke="#666666" points="714,-45.5 621,-45.5 621,-26.5 714,-26.5 714,-45.5"/>
<text text-anchor="middle" x="667.5" y="-33.5" font-family="Helvetica,sans-Serif" font-size="10.00">renderTemplate</text>
</a>
</g>
</g>
<!-- Node2&#45;&gt;Node4 -->
<g id="edge4_Node000002_Node000004" class="edge">
<title>Node2&#45;&gt;Node4</title>
<g id="a_edge4_Node000002_Node000004"><a xlink:title=" ">
<path fill="none" stroke="#63b8ff" d="M378.14,-19.77C449.26,-23.77 548.88,-29.38 610.46,-32.85"/>
<polygon fill="#63b8ff" stroke="#63b8ff" points="610.58,-36.36 620.76,-33.42 610.97,-29.37 610.58,-36.36"/>
</a>
</g>
</g>
<!-- Node3&#45;&gt;Node4 -->
<g id="edge3_Node000003_Node000004" class="edge">
<title>Node3&#45;&gt;Node4</title>
<g id="a_edge3_Node000003_Node000004"><a xlink:title=" ">
<path fill="none" stroke="#63b8ff" d="M585.45,-46.74C593.97,-45.61 602.47,-44.49 610.58,-43.41"/>
<polygon fill="#63b8ff" stroke="#63b8ff" points="611.16,-46.86 620.62,-42.08 610.24,-39.93 611.16,-46.86"/>
</a>
</g>
</g>
</g>
</svg>
