<?xml version="1.0" encoding="UTF-8" standalone="no"?>
<!DOCTYPE svg PUBLIC "-//W3C//DTD SVG 1.1//EN"
 "http://www.w3.org/Graphics/SVG/1.1/DTD/svg11.dtd">
<!-- Generated by graphviz version 2.43.0 (0)
 -->
<!-- Title: App\Controllers\SessionController\createJWT Pages: 1 -->
<svg width="620pt" height="86pt"
 viewBox="0.00 0.00 620.00 86.00" xmlns="http://www.w3.org/2000/svg" xmlns:xlink="http://www.w3.org/1999/xlink">
<g id="graph0" class="graph" transform="scale(1 1) rotate(0) translate(4 82)">
<title>App\Controllers\SessionController\createJWT</title>
<!-- Node1 -->
<g id="Node000001" class="node">
<title>Node1</title>
<g id="a_Node000001"><a xlink:title="Crea un JWT para el usuario.">
<polygon fill="#999999" stroke="#666666" points="180,-54 0,-54 0,-24 180,-24 180,-54"/>
<text text-anchor="start" x="8" y="-42" font-family="Helvetica,sans-Serif" font-size="10.00">App\Controllers\SessionController</text>
<text text-anchor="middle" x="90" y="-31" font-family="Helvetica,sans-Serif" font-size="10.00">\createJWT</text>
</a>
</g>
</g>
<!-- Node2 -->
<g id="Node000002" class="node">
<title>Node2</title>
<g id="a_Node000002"><a xlink:href="classApp_1_1Controllers_1_1SessionController.html#a6470d3ef78fcc052c47033950d37d3ea" target="_top" xlink:title="Genera un JWT.">
<polygon fill="white" stroke="#666666" points="396,-78 216,-78 216,-48 396,-48 396,-78"/>
<text text-anchor="start" x="224" y="-66" font-family="Helvetica,sans-Serif" font-size="10.00">App\Controllers\SessionController</text>
<text text-anchor="middle" x="306" y="-55" font-family="Helvetica,sans-Serif" font-size="10.00">\generateJWT</text>
</a>
</g>
</g>
<!-- Node1&#45;&gt;Node2 -->
<g id="edge1_Node000001_Node000002" class="edge">
<title>Node1&#45;&gt;Node2</title>
<g id="a_edge1_Node000001_Node000002"><a xlink:title=" ">
<path fill="none" stroke="#63b8ff" d="M180.21,-49C188.7,-49.96 197.34,-50.93 205.92,-51.89"/>
<polygon fill="#63b8ff" stroke="#63b8ff" points="205.61,-55.38 215.94,-53.01 206.39,-48.42 205.61,-55.38"/>
</a>
</g>
</g>
<!-- Node4 -->
<g id="Node000004" class="node">
<title>Node4</title>
<g id="a_Node000004"><a xlink:href="classApp_1_1Controllers_1_1SessionController.html#a3b17420266868d8c5927e8527e91ce89" target="_top" xlink:title="Obtiene la clave secreta para JWT.">
<polygon fill="white" stroke="#666666" points="396,-30 216,-30 216,0 396,0 396,-30"/>
<text text-anchor="start" x="224" y="-18" font-family="Helvetica,sans-Serif" font-size="10.00">App\Controllers\SessionController</text>
<text text-anchor="middle" x="306" y="-7" font-family="Helvetica,sans-Serif" font-size="10.00">\getSecretKey</text>
</a>
</g>
</g>
<!-- Node1&#45;&gt;Node4 -->
<g id="edge3_Node000001_Node000004" class="edge">
<title>Node1&#45;&gt;Node4</title>
<g id="a_edge3_Node000001_Node000004"><a xlink:title=" ">
<path fill="none" stroke="#63b8ff" d="M180.21,-29C188.7,-28.04 197.34,-27.07 205.92,-26.11"/>
<polygon fill="#63b8ff" stroke="#63b8ff" points="206.39,-29.58 215.94,-24.99 205.61,-22.62 206.39,-29.58"/>
</a>
</g>
</g>
<!-- Node3 -->
<g id="Node000003" class="node">
<title>Node3</title>
<g id="a_Node000003"><a xlink:href="classApp_1_1Controllers_1_1SessionController.html#a15a75fb60a2c6f562aae8279a9f4c452" target="_top" xlink:title="Codifica en Base64 URL seguro.">
<polygon fill="white" stroke="#666666" points="612,-78 432,-78 432,-48 612,-48 612,-78"/>
<text text-anchor="start" x="440" y="-66" font-family="Helvetica,sans-Serif" font-size="10.00">App\Controllers\SessionController</text>
<text text-anchor="middle" x="522" y="-55" font-family="Helvetica,sans-Serif" font-size="10.00">\base64URLEncode</text>
</a>
</g>
</g>
<!-- Node2&#45;&gt;Node3 -->
<g id="edge2_Node000002_Node000003" class="edge">
<title>Node2&#45;&gt;Node3</title>
<g id="a_edge2_Node000002_Node000003"><a xlink:title=" ">
<path fill="none" stroke="#63b8ff" d="M396.21,-63C404.7,-63 413.34,-63 421.92,-63"/>
<polygon fill="#63b8ff" stroke="#63b8ff" points="421.94,-66.5 431.94,-63 421.94,-59.5 421.94,-66.5"/>
</a>
</g>
</g>
</g>
</svg>
