<?xml version="1.0" encoding="UTF-8" standalone="no"?>
<!DOCTYPE svg PUBLIC "-//W3C//DTD SVG 1.1//EN"
 "http://www.w3.org/Graphics/SVG/1.1/DTD/svg11.dtd">
<!-- Generated by graphviz version 2.43.0 (0)
 -->
<!-- Title: App\Controllers\FungiController\randomFungusHandler Pages: 1 -->
<svg width="792pt" height="134pt"
 viewBox="0.00 0.00 792.00 134.00" xmlns="http://www.w3.org/2000/svg" xmlns:xlink="http://www.w3.org/1999/xlink">
<g id="graph0" class="graph" transform="scale(1 1) rotate(0) translate(4 130)">
<title>App\Controllers\FungiController\randomFungusHandler</title>
<!-- Node1 -->
<g id="Node000001" class="node">
<title>Node1</title>
<g id="a_Node000001"><a xlink:title="Manejador para la ruta de hongo aleatorio.">
<polygon fill="#999999" stroke="#666666" points="169,-102 0,-102 0,-72 169,-72 169,-102"/>
<text text-anchor="start" x="8" y="-90" font-family="Helvetica,sans-Serif" font-size="10.00">App\Controllers\FungiController</text>
<text text-anchor="middle" x="84.5" y="-79" font-family="Helvetica,sans-Serif" font-size="10.00">\randomFungusHandler</text>
</a>
</g>
</g>
<!-- Node2 -->
<g id="Node000002" class="node">
<title>Node2</title>
<g id="a_Node000002"><a xlink:href="classApp_1_1Controllers_1_1FungiController.html#add0b456287a79c088c78a9fe8c469451" target="_top" xlink:title="Añade el estado de like de un usuario a la información de un hongo.">
<polygon fill="white" stroke="#666666" points="374,-126 205,-126 205,-96 374,-96 374,-126"/>
<text text-anchor="start" x="213" y="-114" font-family="Helvetica,sans-Serif" font-size="10.00">App\Controllers\FungiController</text>
<text text-anchor="middle" x="289.5" y="-103" font-family="Helvetica,sans-Serif" font-size="10.00">\getFungusWithLikeStatus</text>
</a>
</g>
</g>
<!-- Node1&#45;&gt;Node2 -->
<g id="edge1_Node000001_Node000002" class="edge">
<title>Node1&#45;&gt;Node2</title>
<g id="a_edge1_Node000001_Node000002"><a xlink:title=" ">
<path fill="none" stroke="#63b8ff" d="M169.24,-96.9C177.72,-97.9 186.37,-98.93 194.94,-99.94"/>
<polygon fill="#63b8ff" stroke="#63b8ff" points="194.61,-103.42 204.95,-101.12 195.43,-96.47 194.61,-103.42"/>
</a>
</g>
</g>
<!-- Node4 -->
<g id="Node000004" class="node">
<title>Node4</title>
<g id="a_Node000004"><a xlink:href="classApp_1_1Controllers_1_1FungiController.html#a3a07c5dd018b701663a2a46a52f74a6d" target="_top" xlink:title="Obtiene un hongo aleatorio de la base de datos.">
<polygon fill="white" stroke="#666666" points="374,-78 205,-78 205,-48 374,-48 374,-78"/>
<text text-anchor="start" x="213" y="-66" font-family="Helvetica,sans-Serif" font-size="10.00">App\Controllers\FungiController</text>
<text text-anchor="middle" x="289.5" y="-55" font-family="Helvetica,sans-Serif" font-size="10.00">\getRandomFungus</text>
</a>
</g>
</g>
<!-- Node1&#45;&gt;Node4 -->
<g id="edge3_Node000001_Node000004" class="edge">
<title>Node1&#45;&gt;Node4</title>
<g id="a_edge3_Node000001_Node000004"><a xlink:title=" ">
<path fill="none" stroke="#63b8ff" d="M169.24,-77.1C177.72,-76.1 186.37,-75.07 194.94,-74.06"/>
<polygon fill="#63b8ff" stroke="#63b8ff" points="195.43,-77.53 204.95,-72.88 194.61,-70.58 195.43,-77.53"/>
</a>
</g>
</g>
<!-- Node3 -->
<g id="Node000003" class="node">
<title>Node3</title>
<g id="a_Node000003"><a xlink:href="classApp_1_1Controllers_1_1FungiController.html#a35fbbcc5cad471348611c0e1cfafebd7" target="_top" xlink:title="Verifica si un usuario ha dado like a un hongo.">
<polygon fill="white" stroke="#666666" points="579,-126 410,-126 410,-96 579,-96 579,-126"/>
<text text-anchor="start" x="418" y="-114" font-family="Helvetica,sans-Serif" font-size="10.00">App\Controllers\FungiController</text>
<text text-anchor="middle" x="494.5" y="-103" font-family="Helvetica,sans-Serif" font-size="10.00">\hasUserLikedFungi</text>
</a>
</g>
</g>
<!-- Node2&#45;&gt;Node3 -->
<g id="edge2_Node000002_Node000003" class="edge">
<title>Node2&#45;&gt;Node3</title>
<g id="a_edge2_Node000002_Node000003"><a xlink:title=" ">
<path fill="none" stroke="#63b8ff" d="M374.24,-111C382.72,-111 391.37,-111 399.94,-111"/>
<polygon fill="#63b8ff" stroke="#63b8ff" points="399.95,-114.5 409.95,-111 399.95,-107.5 399.95,-114.5"/>
</a>
</g>
</g>
<!-- Node5 -->
<g id="Node000005" class="node">
<title>Node5</title>
<g id="a_Node000005"><a xlink:href="classApp_1_1Controllers_1_1FungiController.html#a4e795756d06c8d0ff755c20645eddb12" target="_top" xlink:title="Incrementa el contador de vistas de un hongo.">
<polygon fill="white" stroke="#666666" points="579,-78 410,-78 410,-48 579,-48 579,-78"/>
<text text-anchor="start" x="418" y="-66" font-family="Helvetica,sans-Serif" font-size="10.00">App\Controllers\FungiController</text>
<text text-anchor="middle" x="494.5" y="-55" font-family="Helvetica,sans-Serif" font-size="10.00">\incrementFungiViews</text>
</a>
</g>
</g>
<!-- Node4&#45;&gt;Node5 -->
<g id="edge4_Node000004_Node000005" class="edge">
<title>Node4&#45;&gt;Node5</title>
<g id="a_edge4_Node000004_Node000005"><a xlink:title=" ">
<path fill="none" stroke="#63b8ff" d="M374.24,-63C382.72,-63 391.37,-63 399.94,-63"/>
<polygon fill="#63b8ff" stroke="#63b8ff" points="399.95,-66.5 409.95,-63 399.95,-59.5 399.95,-66.5"/>
</a>
</g>
</g>
<!-- Node6 -->
<g id="Node000006" class="node">
<title>Node6</title>
<g id="a_Node000006"><a xlink:href="classApp_1_1Controllers_1_1FungiController.html#a69ba801a8491aa101cefc5928144e616" target="_top" xlink:title="Carga las imágenes relacionadas con un hongo desde la tabla de relaciones.">
<polygon fill="white" stroke="#666666" points="579,-30 410,-30 410,0 579,0 579,-30"/>
<text text-anchor="start" x="418" y="-18" font-family="Helvetica,sans-Serif" font-size="10.00">App\Controllers\FungiController</text>
<text text-anchor="middle" x="494.5" y="-7" font-family="Helvetica,sans-Serif" font-size="10.00">\loadFungusImages</text>
</a>
</g>
</g>
<!-- Node4&#45;&gt;Node6 -->
<g id="edge5_Node000004_Node000006" class="edge">
<title>Node4&#45;&gt;Node6</title>
<g id="a_edge5_Node000004_Node000006"><a xlink:title=" ">
<path fill="none" stroke="#63b8ff" d="M354.17,-47.94C375.15,-42.99 398.63,-37.43 420.26,-32.32"/>
<polygon fill="#63b8ff" stroke="#63b8ff" points="421.13,-35.71 430.05,-30 419.52,-28.9 421.13,-35.71"/>
</a>
</g>
</g>
<!-- Node7 -->
<g id="Node000007" class="node">
<title>Node7</title>
<g id="a_Node000007"><a xlink:href="classApp_1_1Controllers_1_1FungiController.html#a7f868fa3d67eefa14cd17d62e80b3d3d" target="_top" xlink:title="Obtiene la ruta base para las imágenes según la clave de configuración.">
<polygon fill="white" stroke="#666666" points="784,-30 615,-30 615,0 784,0 784,-30"/>
<text text-anchor="start" x="623" y="-18" font-family="Helvetica,sans-Serif" font-size="10.00">App\Controllers\FungiController</text>
<text text-anchor="middle" x="699.5" y="-7" font-family="Helvetica,sans-Serif" font-size="10.00">\getImageBasePath</text>
</a>
</g>
</g>
<!-- Node6&#45;&gt;Node7 -->
<g id="edge6_Node000006_Node000007" class="edge">
<title>Node6&#45;&gt;Node7</title>
<g id="a_edge6_Node000006_Node000007"><a xlink:title=" ">
<path fill="none" stroke="#63b8ff" d="M579.24,-15C587.72,-15 596.37,-15 604.94,-15"/>
<polygon fill="#63b8ff" stroke="#63b8ff" points="604.95,-18.5 614.95,-15 604.95,-11.5 604.95,-18.5"/>
</a>
</g>
</g>
</g>
</svg>
