<?xml version="1.0" encoding="UTF-8" standalone="no"?>
<!DOCTYPE svg PUBLIC "-//W3C//DTD SVG 1.1//EN"
 "http://www.w3.org/Graphics/SVG/1.1/DTD/svg11.dtd">
<!-- Generated by graphviz version 2.43.0 (0)
 -->
<!-- Title: App\Controllers\StatsController\getTimeRangeCondition Pages: 1 -->
<svg width="581pt" height="422pt"
 viewBox="0.00 0.00 581.00 422.00" xmlns="http://www.w3.org/2000/svg" xmlns:xlink="http://www.w3.org/1999/xlink">
<g id="graph0" class="graph" transform="scale(1 1) rotate(0) translate(4 418)">
<title>App\Controllers\StatsController\getTimeRangeCondition</title>
<!-- Node1 -->
<g id="Node000001" class="node">
<title>Node1</title>
<g id="a_Node000001"><a xlink:title="Genera la condición SQL para filtrar por rango de tiempo.">
<polygon fill="#999999" stroke="#666666" points="573,-222 406,-222 406,-192 573,-192 573,-222"/>
<text text-anchor="start" x="414" y="-210" font-family="Helvetica,sans-Serif" font-size="10.00">App\Controllers\StatsController</text>
<text text-anchor="middle" x="489.5" y="-199" font-family="Helvetica,sans-Serif" font-size="10.00">\getTimeRangeCondition</text>
</a>
</g>
</g>
<!-- Node2 -->
<g id="Node000002" class="node">
<title>Node2</title>
<g id="a_Node000002"><a xlink:href="classApp_1_1Controllers_1_1StatsController.html#a19103b3b40588b307b330f1b37e408d8" target="_top" xlink:title="Obtiene estadísticas sobre las clases taxonómicas de hongos.">
<polygon fill="white" stroke="#666666" points="370,-414 203,-414 203,-384 370,-384 370,-414"/>
<text text-anchor="start" x="211" y="-402" font-family="Helvetica,sans-Serif" font-size="10.00">App\Controllers\StatsController</text>
<text text-anchor="middle" x="286.5" y="-391" font-family="Helvetica,sans-Serif" font-size="10.00">\getClassStats</text>
</a>
</g>
</g>
<!-- Node1&#45;&gt;Node2 -->
<g id="edge1_Node000001_Node000002" class="edge">
<title>Node1&#45;&gt;Node2</title>
<g id="a_edge1_Node000001_Node000002"><a xlink:title=" ">
<path fill="none" stroke="#63b8ff" d="M477.75,-231.6C460.42,-268.35 422.85,-337.29 370,-375 365.14,-378.47 359.79,-381.43 354.21,-383.98"/>
<polygon fill="#63b8ff" stroke="#63b8ff" points="481.1,-232.69 482.09,-222.14 474.74,-229.77 481.1,-232.69"/>
</a>
</g>
</g>
<!-- Node4 -->
<g id="Node000004" class="node">
<title>Node4</title>
<g id="a_Node000004"><a xlink:href="classApp_1_1Controllers_1_1StatsController.html#a42b7befe748ebafdfaf9a1e1669b6a4a" target="_top" xlink:title="Obtiene estadísticas sobre las divisiones taxonómicas de hongos.">
<polygon fill="white" stroke="#666666" points="370,-366 203,-366 203,-336 370,-336 370,-366"/>
<text text-anchor="start" x="211" y="-354" font-family="Helvetica,sans-Serif" font-size="10.00">App\Controllers\StatsController</text>
<text text-anchor="middle" x="286.5" y="-343" font-family="Helvetica,sans-Serif" font-size="10.00">\getDivisionStats</text>
</a>
</g>
</g>
<!-- Node1&#45;&gt;Node4 -->
<g id="edge3_Node000001_Node000004" class="edge">
<title>Node1&#45;&gt;Node4</title>
<g id="a_edge3_Node000001_Node000004"><a xlink:title=" ">
<path fill="none" stroke="#63b8ff" d="M471.37,-230.51C450.42,-257.62 412.44,-301.71 370,-327 364.23,-330.44 357.95,-333.41 351.5,-335.97"/>
<polygon fill="#63b8ff" stroke="#63b8ff" points="474.31,-232.43 477.57,-222.35 468.73,-228.2 474.31,-232.43"/>
</a>
</g>
</g>
<!-- Node5 -->
<g id="Node000005" class="node">
<title>Node5</title>
<g id="a_Node000005"><a xlink:href="classApp_1_1Controllers_1_1StatsController.html#a339d384906766d15e008dbfda50a2ca8" target="_top" xlink:title="Obtiene estadísticas de comestibilidad de hongos.">
<polygon fill="white" stroke="#666666" points="370,-174 203,-174 203,-144 370,-144 370,-174"/>
<text text-anchor="start" x="211" y="-162" font-family="Helvetica,sans-Serif" font-size="10.00">App\Controllers\StatsController</text>
<text text-anchor="middle" x="286.5" y="-151" font-family="Helvetica,sans-Serif" font-size="10.00">\getEdibilityStats</text>
</a>
</g>
</g>
<!-- Node1&#45;&gt;Node5 -->
<g id="edge5_Node000001_Node000005" class="edge">
<title>Node1&#45;&gt;Node5</title>
<g id="a_edge5_Node000001_Node000005"><a xlink:title=" ">
<path fill="none" stroke="#63b8ff" d="M415.46,-189.56C394.12,-184.46 370.98,-178.93 350.32,-174"/>
<polygon fill="#63b8ff" stroke="#63b8ff" points="414.91,-193.03 425.45,-191.94 416.54,-186.22 414.91,-193.03"/>
</a>
</g>
</g>
<!-- Node7 -->
<g id="Node000007" class="node">
<title>Node7</title>
<g id="a_Node000007"><a xlink:href="classApp_1_1Controllers_1_1StatsController.html#a9e0cdd48bfd132bccade19031dca3c25" target="_top" xlink:title="Obtiene estadísticas sobre las familias de hongos más comunes.">
<polygon fill="white" stroke="#666666" points="370,-318 203,-318 203,-288 370,-288 370,-318"/>
<text text-anchor="start" x="211" y="-306" font-family="Helvetica,sans-Serif" font-size="10.00">App\Controllers\StatsController</text>
<text text-anchor="middle" x="286.5" y="-295" font-family="Helvetica,sans-Serif" font-size="10.00">\getFamilyStats</text>
</a>
</g>
</g>
<!-- Node1&#45;&gt;Node7 -->
<g id="edge8_Node000001_Node000007" class="edge">
<title>Node1&#45;&gt;Node7</title>
<g id="a_edge8_Node000001_Node000007"><a xlink:title=" ">
<path fill="none" stroke="#63b8ff" d="M459.21,-227.8C435.92,-243.59 402.04,-264.9 370,-279 362.49,-282.3 354.4,-285.3 346.32,-287.96"/>
<polygon fill="#63b8ff" stroke="#63b8ff" points="461.32,-230.6 467.59,-222.05 457.36,-224.82 461.32,-230.6"/>
</a>
</g>
</g>
<!-- Node8 -->
<g id="Node000008" class="node">
<title>Node8</title>
<g id="a_Node000008"><a xlink:href="classApp_1_1Controllers_1_1StatsController.html#a2ff7db3ac8f173dbccfbbb9d61b9412f" target="_top" xlink:title="Obtiene estadísticas sobre los órdenes taxonómicos de hongos.">
<polygon fill="white" stroke="#666666" points="370,-270 203,-270 203,-240 370,-240 370,-270"/>
<text text-anchor="start" x="211" y="-258" font-family="Helvetica,sans-Serif" font-size="10.00">App\Controllers\StatsController</text>
<text text-anchor="middle" x="286.5" y="-247" font-family="Helvetica,sans-Serif" font-size="10.00">\getOrderStats</text>
</a>
</g>
</g>
<!-- Node1&#45;&gt;Node8 -->
<g id="edge10_Node000001_Node000008" class="edge">
<title>Node1&#45;&gt;Node8</title>
<g id="a_edge10_Node000001_Node000008"><a xlink:title=" ">
<path fill="none" stroke="#63b8ff" d="M415.46,-224.44C394.12,-229.54 370.98,-235.07 350.32,-240"/>
<polygon fill="#63b8ff" stroke="#63b8ff" points="416.54,-227.78 425.45,-222.06 414.91,-220.97 416.54,-227.78"/>
</a>
</g>
</g>
<!-- Node9 -->
<g id="Node000009" class="node">
<title>Node9</title>
<g id="a_Node000009"><a xlink:href="classApp_1_1Controllers_1_1StatsController.html#a9e81a77bff8dcf7481dbc58a4265ebe8" target="_top" xlink:title="Obtiene los hongos más populares basados en vistas.">
<polygon fill="white" stroke="#666666" points="370,-222 203,-222 203,-192 370,-192 370,-222"/>
<text text-anchor="start" x="211" y="-210" font-family="Helvetica,sans-Serif" font-size="10.00">App\Controllers\StatsController</text>
<text text-anchor="middle" x="286.5" y="-199" font-family="Helvetica,sans-Serif" font-size="10.00">\getPopularFungi</text>
</a>
</g>
</g>
<!-- Node1&#45;&gt;Node9 -->
<g id="edge12_Node000001_Node000009" class="edge">
<title>Node1&#45;&gt;Node9</title>
<g id="a_edge12_Node000001_Node000009"><a xlink:title=" ">
<path fill="none" stroke="#63b8ff" d="M395.85,-207C387.27,-207 378.61,-207 370.13,-207"/>
<polygon fill="#63b8ff" stroke="#63b8ff" points="395.88,-210.5 405.88,-207 395.88,-203.5 395.88,-210.5"/>
</a>
</g>
</g>
<!-- Node10 -->
<g id="Node000010" class="node">
<title>Node10</title>
<g id="a_Node000010"><a xlink:href="classApp_1_1Controllers_1_1StatsController.html#acbbde5b1dcd9bfac461c687cc57236c7" target="_top" xlink:title="Obtiene los hongos añadidos recientemente.">
<polygon fill="white" stroke="#666666" points="370,-126 203,-126 203,-96 370,-96 370,-126"/>
<text text-anchor="start" x="211" y="-114" font-family="Helvetica,sans-Serif" font-size="10.00">App\Controllers\StatsController</text>
<text text-anchor="middle" x="286.5" y="-103" font-family="Helvetica,sans-Serif" font-size="10.00">\getRecentAdditions</text>
</a>
</g>
</g>
<!-- Node1&#45;&gt;Node10 -->
<g id="edge14_Node000001_Node000010" class="edge">
<title>Node1&#45;&gt;Node10</title>
<g id="a_edge14_Node000001_Node000010"><a xlink:title=" ">
<path fill="none" stroke="#63b8ff" d="M459.21,-186.2C435.92,-170.41 402.04,-149.1 370,-135 362.49,-131.7 354.4,-128.7 346.32,-126.04"/>
<polygon fill="#63b8ff" stroke="#63b8ff" points="457.36,-189.18 467.59,-191.95 461.32,-183.4 457.36,-189.18"/>
</a>
</g>
</g>
<!-- Node11 -->
<g id="Node000011" class="node">
<title>Node11</title>
<g id="a_Node000011"><a xlink:href="classApp_1_1Controllers_1_1StatsController.html#abaa9ec5f3cfb54693308bfb1ec304163" target="_top" xlink:title="Obtiene las familias de hongos más comunes.">
<polygon fill="white" stroke="#666666" points="370,-78 203,-78 203,-48 370,-48 370,-78"/>
<text text-anchor="start" x="211" y="-66" font-family="Helvetica,sans-Serif" font-size="10.00">App\Controllers\StatsController</text>
<text text-anchor="middle" x="286.5" y="-55" font-family="Helvetica,sans-Serif" font-size="10.00">\getTopFamilies</text>
</a>
</g>
</g>
<!-- Node1&#45;&gt;Node11 -->
<g id="edge16_Node000001_Node000011" class="edge">
<title>Node1&#45;&gt;Node11</title>
<g id="a_edge16_Node000001_Node000011"><a xlink:title=" ">
<path fill="none" stroke="#63b8ff" d="M471.37,-183.49C450.42,-156.38 412.44,-112.29 370,-87 364.23,-83.56 357.95,-80.59 351.5,-78.03"/>
<polygon fill="#63b8ff" stroke="#63b8ff" points="468.73,-185.8 477.57,-191.65 474.31,-181.57 468.73,-185.8"/>
</a>
</g>
</g>
<!-- Node12 -->
<g id="Node000012" class="node">
<title>Node12</title>
<g id="a_Node000012"><a xlink:href="classApp_1_1Controllers_1_1StatsController.html#aa6d98d1284d05b3772442f189f643a88" target="_top" xlink:title="Obtiene el número total de hongos en la base de datos.">
<polygon fill="white" stroke="#666666" points="370,-30 203,-30 203,0 370,0 370,-30"/>
<text text-anchor="start" x="211" y="-18" font-family="Helvetica,sans-Serif" font-size="10.00">App\Controllers\StatsController</text>
<text text-anchor="middle" x="286.5" y="-7" font-family="Helvetica,sans-Serif" font-size="10.00">\getTotalFungiCount</text>
</a>
</g>
</g>
<!-- Node1&#45;&gt;Node12 -->
<g id="edge17_Node000001_Node000012" class="edge">
<title>Node1&#45;&gt;Node12</title>
<g id="a_edge17_Node000001_Node000012"><a xlink:title=" ">
<path fill="none" stroke="#63b8ff" d="M477.75,-182.4C460.42,-145.65 422.85,-76.71 370,-39 365.14,-35.53 359.79,-32.57 354.21,-30.02"/>
<polygon fill="#63b8ff" stroke="#63b8ff" points="474.74,-184.23 482.09,-191.86 481.1,-181.31 474.74,-184.23"/>
</a>
</g>
</g>
<!-- Node3 -->
<g id="Node000003" class="node">
<title>Node3</title>
<g id="a_Node000003"><a xlink:href="classApp_1_1Controllers_1_1StatsController.html#a944a68a075295dfdc85e7e403b469358" target="_top" xlink:title="Obtiene todas las estadísticas relacionadas con hongos.">
<polygon fill="white" stroke="#666666" points="167,-294 0,-294 0,-264 167,-264 167,-294"/>
<text text-anchor="start" x="8" y="-282" font-family="Helvetica,sans-Serif" font-size="10.00">App\Controllers\StatsController</text>
<text text-anchor="middle" x="83.5" y="-271" font-family="Helvetica,sans-Serif" font-size="10.00">\getFungiStats</text>
</a>
</g>
</g>
<!-- Node2&#45;&gt;Node3 -->
<g id="edge2_Node000002_Node000003" class="edge">
<title>Node2&#45;&gt;Node3</title>
<g id="a_edge2_Node000002_Node000003"><a xlink:title=" ">
<path fill="none" stroke="#63b8ff" d="M214.04,-380.19C210.25,-378.58 206.54,-376.85 203,-375 161.24,-353.15 120.26,-315.28 99.17,-294.22"/>
<polygon fill="#63b8ff" stroke="#63b8ff" points="213.03,-383.55 223.61,-383.95 215.58,-377.04 213.03,-383.55"/>
</a>
</g>
</g>
<!-- Node4&#45;&gt;Node3 -->
<g id="edge4_Node000004_Node000003" class="edge">
<title>Node4&#45;&gt;Node3</title>
<g id="a_edge4_Node000004_Node000003"><a xlink:title=" ">
<path fill="none" stroke="#63b8ff" d="M221.05,-332.94C214.92,-331.02 208.83,-329.02 203,-327 174.27,-317.03 142.35,-303.99 118.89,-294.01"/>
<polygon fill="#63b8ff" stroke="#63b8ff" points="220.08,-336.3 230.67,-335.9 222.14,-329.61 220.08,-336.3"/>
</a>
</g>
</g>
<!-- Node5&#45;&gt;Node3 -->
<g id="edge6_Node000005_Node000003" class="edge">
<title>Node5&#45;&gt;Node3</title>
<g id="a_edge6_Node000005_Node000003"><a xlink:title=" ">
<path fill="none" stroke="#63b8ff" d="M214.04,-177.81C210.25,-179.42 206.54,-181.15 203,-183 161.24,-204.85 120.26,-242.72 99.17,-263.78"/>
<polygon fill="#63b8ff" stroke="#63b8ff" points="215.58,-180.96 223.61,-174.05 213.03,-174.45 215.58,-180.96"/>
</a>
</g>
</g>
<!-- Node6 -->
<g id="Node000006" class="node">
<title>Node6</title>
<g id="a_Node000006"><a xlink:href="classApp_1_1Controllers_1_1StatsController.html#a6c42f9fa6d2e3d47cd1910b324b710a3" target="_top" xlink:title="Obtiene estadísticas generales sobre los hongos en la base de datos.">
<polygon fill="white" stroke="#666666" points="167,-126 0,-126 0,-96 167,-96 167,-126"/>
<text text-anchor="start" x="8" y="-114" font-family="Helvetica,sans-Serif" font-size="10.00">App\Controllers\StatsController</text>
<text text-anchor="middle" x="83.5" y="-103" font-family="Helvetica,sans-Serif" font-size="10.00">\getGeneralStats</text>
</a>
</g>
</g>
<!-- Node5&#45;&gt;Node6 -->
<g id="edge7_Node000005_Node000006" class="edge">
<title>Node5&#45;&gt;Node6</title>
<g id="a_edge7_Node000005_Node000006"><a xlink:title=" ">
<path fill="none" stroke="#63b8ff" d="M212.46,-141.56C191.12,-136.46 167.98,-130.93 147.32,-126"/>
<polygon fill="#63b8ff" stroke="#63b8ff" points="211.91,-145.03 222.45,-143.94 213.54,-138.22 211.91,-145.03"/>
</a>
</g>
</g>
<!-- Node7&#45;&gt;Node3 -->
<g id="edge9_Node000007_Node000003" class="edge">
<title>Node7&#45;&gt;Node3</title>
<g id="a_edge9_Node000007_Node000003"><a xlink:title=" ">
<path fill="none" stroke="#63b8ff" d="M192.85,-291.94C184.27,-290.91 175.61,-289.88 167.13,-288.87"/>
<polygon fill="#63b8ff" stroke="#63b8ff" points="192.53,-295.42 202.88,-293.13 193.36,-288.47 192.53,-295.42"/>
</a>
</g>
</g>
<!-- Node8&#45;&gt;Node3 -->
<g id="edge11_Node000008_Node000003" class="edge">
<title>Node8&#45;&gt;Node3</title>
<g id="a_edge11_Node000008_Node000003"><a xlink:title=" ">
<path fill="none" stroke="#63b8ff" d="M192.85,-266.06C184.27,-267.09 175.61,-268.12 167.13,-269.13"/>
<polygon fill="#63b8ff" stroke="#63b8ff" points="193.36,-269.53 202.88,-264.87 192.53,-262.58 193.36,-269.53"/>
</a>
</g>
</g>
<!-- Node9&#45;&gt;Node3 -->
<g id="edge13_Node000009_Node000003" class="edge">
<title>Node9&#45;&gt;Node3</title>
<g id="a_edge13_Node000009_Node000003"><a xlink:title=" ">
<path fill="none" stroke="#63b8ff" d="M221.05,-225.06C214.92,-226.98 208.83,-228.98 203,-231 174.27,-240.97 142.35,-254.01 118.89,-263.99"/>
<polygon fill="#63b8ff" stroke="#63b8ff" points="222.14,-228.39 230.67,-222.1 220.08,-221.7 222.14,-228.39"/>
</a>
</g>
</g>
<!-- Node10&#45;&gt;Node6 -->
<g id="edge15_Node000010_Node000006" class="edge">
<title>Node10&#45;&gt;Node6</title>
<g id="a_edge15_Node000010_Node000006"><a xlink:title=" ">
<path fill="none" stroke="#63b8ff" d="M192.85,-111C184.27,-111 175.61,-111 167.13,-111"/>
<polygon fill="#63b8ff" stroke="#63b8ff" points="192.88,-114.5 202.88,-111 192.88,-107.5 192.88,-114.5"/>
</a>
</g>
</g>
<!-- Node12&#45;&gt;Node6 -->
<g id="edge18_Node000012_Node000006" class="edge">
<title>Node12&#45;&gt;Node6</title>
<g id="a_edge18_Node000012_Node000006"><a xlink:title=" ">
<path fill="none" stroke="#63b8ff" d="M216.87,-33.45C212.12,-35.19 207.46,-37.04 203,-39 166.86,-54.9 128.4,-79.98 105.41,-95.95"/>
<polygon fill="#63b8ff" stroke="#63b8ff" points="218.38,-36.63 226.68,-30.04 216.08,-30.02 218.38,-36.63"/>
</a>
</g>
</g>
</g>
</svg>
