<?xml version="1.0" encoding="UTF-8" standalone="no"?>
<!DOCTYPE svg PUBLIC "-//W3C//DTD SVG 1.1//EN"
 "http://www.w3.org/Graphics/SVG/1.1/DTD/svg11.dtd">
<!-- Generated by graphviz version 2.43.0 (0)
 -->
<!-- Title: App\Controllers\ApiController\handleRequest Pages: 1 -->
<svg width="360pt" height="230pt"
 viewBox="0.00 0.00 360.00 230.00" xmlns="http://www.w3.org/2000/svg" xmlns:xlink="http://www.w3.org/1999/xlink">

<svg id="main" version="1.1" xmlns="http://www.w3.org/2000/svg" xmlns:xlink="http://www.w3.org/1999/xlink" xml:space="preserve" onload="init(evt)">
<style type="text/css"><![CDATA[
.node, .edge {opacity: 0.7;}
.node.selected, .edge.selected {opacity: 1;}
.edge:hover path { stroke: red; }
.edge:hover polygon { stroke: red; fill: red; }
]]></style>
<script type="application/ecmascript" xlink:href="svg.min.js"/>
<svg id="graph" class="graph">
<g id="graph0" class="graph" transform="scale(1 1) rotate(0) translate(4 226)">
<title>App\Controllers\ApiController\handleRequest</title>
<!-- Node1 -->
<g id="Node000001" class="node">
<title>Node1</title>
<g id="a_Node000001"><a xlink:title="Manejador de solicitudes HTTP.">
<polygon fill="#999999" stroke="#666666" points="158,-126 0,-126 0,-96 158,-96 158,-126"/>
<text text-anchor="start" x="8" y="-114" font-family="Helvetica,sans-Serif" font-size="10.00">App\Controllers\ApiController</text>
<text text-anchor="middle" x="79" y="-103" font-family="Helvetica,sans-Serif" font-size="10.00">\handleRequest</text>
</a>
</g>
</g>
<!-- Node2 -->
<g id="Node000002" class="node">
<title>Node2</title>
<g id="a_Node000002"><a xlink:href="classApp_1_1Controllers_1_1ApiController.html#a42d236c3d92bd345648219584a384e3e" target="_top" xlink:title="Manejador de solicitudes DELETE.">
<polygon fill="white" stroke="#666666" points="352,-222 194,-222 194,-192 352,-192 352,-222"/>
<text text-anchor="start" x="202" y="-210" font-family="Helvetica,sans-Serif" font-size="10.00">App\Controllers\ApiController</text>
<text text-anchor="middle" x="273" y="-199" font-family="Helvetica,sans-Serif" font-size="10.00">\handleDelete</text>
</a>
</g>
</g>
<!-- Node1&#45;&gt;Node2 -->
<g id="edge1_Node000001_Node000002" class="edge">
<title>Node1&#45;&gt;Node2</title>
<g id="a_edge1_Node000001_Node000002"><a xlink:title=" ">
<path fill="none" stroke="#63b8ff" d="M100.07,-126C122.14,-141.93 159.12,-166.96 194,-183 198.09,-184.88 202.37,-186.67 206.73,-188.35"/>
<polygon fill="#63b8ff" stroke="#63b8ff" points="205.75,-191.72 216.35,-191.87 208.16,-185.14 205.75,-191.72"/>
</a>
</g>
</g>
<!-- Node3 -->
<g id="Node000003" class="node">
<title>Node3</title>
<g id="a_Node000003"><a xlink:href="classApp_1_1Controllers_1_1ApiController.html#ada189fa85b1c852d7deb9f5d59f16109" target="_top" xlink:title="Manejador de solicitudes GET.">
<polygon fill="white" stroke="#666666" points="352,-174 194,-174 194,-144 352,-144 352,-174"/>
<text text-anchor="start" x="202" y="-162" font-family="Helvetica,sans-Serif" font-size="10.00">App\Controllers\ApiController</text>
<text text-anchor="middle" x="273" y="-151" font-family="Helvetica,sans-Serif" font-size="10.00">\handleGet</text>
</a>
</g>
</g>
<!-- Node1&#45;&gt;Node3 -->
<g id="edge2_Node000001_Node000003" class="edge">
<title>Node1&#45;&gt;Node3</title>
<g id="a_edge2_Node000001_Node000003"><a xlink:title=" ">
<path fill="none" stroke="#63b8ff" d="M140.22,-126.06C159.88,-130.97 181.87,-136.47 202.18,-141.54"/>
<polygon fill="#63b8ff" stroke="#63b8ff" points="201.44,-144.97 211.99,-144 203.14,-138.18 201.44,-144.97"/>
</a>
</g>
</g>
<!-- Node4 -->
<g id="Node000004" class="node">
<title>Node4</title>
<g id="a_Node000004"><a xlink:href="classApp_1_1Controllers_1_1ApiController.html#a8cd77387760dd2cc99af170a4edde2e7" target="_top" xlink:title="Manejador de solicitudes POST.">
<polygon fill="white" stroke="#666666" points="352,-126 194,-126 194,-96 352,-96 352,-126"/>
<text text-anchor="start" x="202" y="-114" font-family="Helvetica,sans-Serif" font-size="10.00">App\Controllers\ApiController</text>
<text text-anchor="middle" x="273" y="-103" font-family="Helvetica,sans-Serif" font-size="10.00">\handlePost</text>
</a>
</g>
</g>
<!-- Node1&#45;&gt;Node4 -->
<g id="edge3_Node000001_Node000004" class="edge">
<title>Node1&#45;&gt;Node4</title>
<g id="a_edge3_Node000001_Node000004"><a xlink:title=" ">
<path fill="none" stroke="#63b8ff" d="M158.09,-111C166.6,-111 175.3,-111 183.92,-111"/>
<polygon fill="#63b8ff" stroke="#63b8ff" points="183.98,-114.5 193.98,-111 183.98,-107.5 183.98,-114.5"/>
</a>
</g>
</g>
<!-- Node5 -->
<g id="Node000005" class="node">
<title>Node5</title>
<g id="a_Node000005"><a xlink:href="classApp_1_1Controllers_1_1ApiController.html#a44716cc151011ed147d461835bdd8c17" target="_top" xlink:title="Manejador de solicitudes PUT.">
<polygon fill="white" stroke="#666666" points="352,-78 194,-78 194,-48 352,-48 352,-78"/>
<text text-anchor="start" x="202" y="-66" font-family="Helvetica,sans-Serif" font-size="10.00">App\Controllers\ApiController</text>
<text text-anchor="middle" x="273" y="-55" font-family="Helvetica,sans-Serif" font-size="10.00">\handlePut</text>
</a>
</g>
</g>
<!-- Node1&#45;&gt;Node5 -->
<g id="edge4_Node000001_Node000005" class="edge">
<title>Node1&#45;&gt;Node5</title>
<g id="a_edge4_Node000001_Node000005"><a xlink:title=" ">
<path fill="none" stroke="#63b8ff" d="M140.22,-95.94C159.88,-91.03 181.87,-85.53 202.18,-80.46"/>
<polygon fill="#63b8ff" stroke="#63b8ff" points="203.14,-83.82 211.99,-78 201.44,-77.03 203.14,-83.82"/>
</a>
</g>
</g>
<!-- Node6 -->
<g id="Node000006" class="node">
<title>Node6</title>
<g id="a_Node000006"><a xlink:href="classApp_1_1Controllers_1_1Api_1_1ApiInfoController.html#a6f0396bbb1893cc0976fb804a48faa59" target="_top" xlink:title="Muestra la documentación general de la API.">
<polygon fill="white" stroke="#666666" points="338.5,-30 207.5,-30 207.5,0 338.5,0 338.5,-30"/>
<text text-anchor="start" x="215.5" y="-18" font-family="Helvetica,sans-Serif" font-size="10.00">App\Controllers\Api</text>
<text text-anchor="middle" x="273" y="-7" font-family="Helvetica,sans-Serif" font-size="10.00">\ApiInfoController\show</text>
</a>
</g>
</g>
<!-- Node1&#45;&gt;Node6 -->
<g id="edge5_Node000001_Node000006" class="edge">
<title>Node1&#45;&gt;Node6</title>
<g id="a_edge5_Node000001_Node000006"><a xlink:title=" ">
<path fill="none" stroke="#63b8ff" d="M100.07,-96C122.14,-80.07 159.12,-55.04 194,-39 198.09,-37.12 202.37,-35.33 206.73,-33.65"/>
<polygon fill="#63b8ff" stroke="#63b8ff" points="208.16,-36.86 216.35,-30.13 205.75,-30.28 208.16,-36.86"/>
</a>
</g>
</g>
</g>
</svg>
</svg>

<style type='text/css'>
<![CDATA[
[data-mouse-over-selected='false'] { opacity: 0.7; }
[data-mouse-over-selected='true']  { opacity: 1.0; }
]]>
</style>
<script type="application/ecmascript"><![CDATA[
document.addEventListener('DOMContentLoaded', (event) => {
  highlightEdges();
  highlightAdjacentNodes();
});
]]></script>
</svg>
