<?xml version="1.0" encoding="UTF-8" standalone="no"?>
<!DOCTYPE svg PUBLIC "-//W3C//DTD SVG 1.1//EN"
 "http://www.w3.org/Graphics/SVG/1.1/DTD/svg11.dtd">
<!-- Generated by graphviz version 2.43.0 (0)
 -->
<!-- Title: App\Controllers\DatabaseController Pages: 1 -->
<svg width="143pt" height="128pt"
 viewBox="0.00 0.00 143.00 128.00" xmlns="http://www.w3.org/2000/svg" xmlns:xlink="http://www.w3.org/1999/xlink">
<g id="graph0" class="graph" transform="scale(1 1) rotate(0) translate(4 124)">
<title>App\Controllers\DatabaseController</title>
<!-- Node1 -->
<g id="Node000001" class="node">
<title>Node1</title>
<g id="a_Node000001"><a xlink:title=" ">
<polygon fill="#999999" stroke="transparent" points="135,-120 0,-120 0,0 135,0 135,-120"/>
<text text-anchor="start" x="5.5" y="-108" font-family="Helvetica,sans-Serif" font-size="10.00">App\Controllers\Database</text>
<text text-anchor="start" x="43.5" y="-97" font-family="Helvetica,sans-Serif" font-size="10.00">Controller</text>
<text text-anchor="start" x="9.5" y="-82" font-family="Helvetica,sans-Serif" font-size="10.00">&#45;</text>
<text text-anchor="start" x="22.5" y="-82" font-family="Helvetica,sans-Serif" font-size="10.00">$pdo</text>
<text text-anchor="start" x="7" y="-67" font-family="Helvetica,sans-Serif" font-size="10.00">+</text>
<text text-anchor="start" x="22.5" y="-67" font-family="Helvetica,sans-Serif" font-size="10.00">__construct()</text>
<text text-anchor="start" x="7" y="-52" font-family="Helvetica,sans-Serif" font-size="10.00">+</text>
<text text-anchor="start" x="22.5" y="-52" font-family="Helvetica,sans-Serif" font-size="10.00">createUser()</text>
<text text-anchor="start" x="7" y="-37" font-family="Helvetica,sans-Serif" font-size="10.00">+</text>
<text text-anchor="start" x="22.5" y="-37" font-family="Helvetica,sans-Serif" font-size="10.00">getFungisPaginated()</text>
<text text-anchor="start" x="7" y="-22" font-family="Helvetica,sans-Serif" font-size="10.00">+</text>
<text text-anchor="start" x="22.5" y="-22" font-family="Helvetica,sans-Serif" font-size="10.00">getRandomFungus()</text>
<text text-anchor="start" x="7" y="-7" font-family="Helvetica,sans-Serif" font-size="10.00">+</text>
<text text-anchor="start" x="22.5" y="-7" font-family="Helvetica,sans-Serif" font-size="10.00">query()</text>
<polygon fill="#666666" stroke="#666666" points="0.5,-92 0.5,-92 135.5,-92 135.5,-92 0.5,-92"/>
<polygon fill="#666666" stroke="#666666" points="0.5,-77 0.5,-77 20.5,-77 20.5,-77 0.5,-77"/>
<polygon fill="#666666" stroke="#666666" points="20.5,-77 20.5,-77 135.5,-77 135.5,-77 20.5,-77"/>
<polygon fill="none" stroke="#666666" points="0,0 0,-120 135,-120 135,0 0,0"/>
</a>
</g>
</g>
</g>
</svg>
