<?xml version="1.0" encoding="UTF-8" standalone="no"?>
<!DOCTYPE svg PUBLIC "-//W3C//DTD SVG 1.1//EN"
 "http://www.w3.org/Graphics/SVG/1.1/DTD/svg11.dtd">
<!-- Generated by graphviz version 2.43.0 (0)
 -->
<!-- Title: App\Controllers\StatsController\getTimeRangeCondition Pages: 1 -->
<!--zoomable 422 -->

<svg id="main" version="1.1" xmlns="http://www.w3.org/2000/svg" xmlns:xlink="http://www.w3.org/1999/xlink" xml:space="preserve" onload="init(evt)">
<style type="text/css"><![CDATA[
.node, .edge {opacity: 0.7;}
.node.selected, .edge.selected {opacity: 1;}
.edge:hover path { stroke: red; }
.edge:hover polygon { stroke: red; fill: red; }
]]></style>

<defs>
  <circle id="rim" cx="0" cy="0" r="7"/>
  <circle id="rim2" cx="0" cy="0" r="3.5"/>
  <g id="zoomPlus">
    <use xlink:href="#rim" fill="#404040"><set attributeName="fill" to="#808080" begin="zoomplus.mouseover" end="zoomplus.mouseout"/></use>
    <path d="M-4,0h8M0,-4v8" fill="none" stroke="white" stroke-width="1.5" pointer-events="none"/>
  </g>
  <g id="zoomMin">
    <use xlink:href="#rim" fill="#404040"><set attributeName="fill" to="#808080" begin="zoomminus.mouseover" end="zoomminus.mouseout"/></use>
    <path d="M-4,0h8" fill="none" stroke="white" stroke-width="1.5" pointer-events="none"/>
  </g>
  <g id="arrowUp" transform="translate(30 24)">
    <use xlink:href="#rim"/>
    <path pointer-events="none" fill="none" stroke="white" stroke-width="1.5" d="M0,-3.0v7 M-2.5,-0.5L0,-3.0L2.5,-0.5"/>
  </g>
  <g id="arrowRight" transform="rotate(90) translate(36 -43)">
    <use xlink:href="#rim"/>
    <path pointer-events="none" fill="none" stroke="white" stroke-width="1.5" d="M0,-3.0v7 M-2.5,-0.5L0,-3.0L2.5,-0.5"/>
  </g>
  <g id="arrowDown" transform="rotate(180) translate(-30 -48)">
    <use xlink:href="#rim"/>
    <path pointer-events="none" fill="none" stroke="white" stroke-width="1.5" d="M0,-3.0v7 M-2.5,-0.5L0,-3.0L2.5,-0.5"/>
  </g>
  <g id="arrowLeft" transform="rotate(270) translate(-36 17)">
    <use xlink:href="#rim"/>
    <path pointer-events="none" fill="none" stroke="white" stroke-width="1.5" d="M0,-3.0v7 M-2.5,-0.5L0,-3.0L2.5,-0.5"/>
  </g>
  <g id="resetDef">
    <use xlink:href="#rim2" fill="#404040"><set attributeName="fill" to="#808080" begin="reset.mouseover" end="reset.mouseout"/></use>
  </g>
</defs>
<script type="application/ecmascript">
var viewWidth = 784;
var viewHeight = 422;
var sectionId = 'dynsection-21';
</script>
<script type="application/ecmascript" xlink:href="svg.min.js"/>
<svg id="graph" class="graph">
<g id="viewport">
<title>App\Controllers\StatsController\getTimeRangeCondition</title>
<!-- Node1 -->
<g id="Node000001" class="node">
<title>Node1</title>
<g id="a_Node000001"><a xlink:title="Genera la condición SQL para filtrar por rango de tiempo.">
<polygon fill="#999999" stroke="#666666" points="776,-222 609,-222 609,-192 776,-192 776,-222"/>
<text text-anchor="start" x="617" y="-210" font-family="Helvetica,sans-Serif" font-size="10.00">App\Controllers\StatsController</text>
<text text-anchor="middle" x="692.5" y="-199" font-family="Helvetica,sans-Serif" font-size="10.00">\getTimeRangeCondition</text>
</a>
</g>
</g>
<!-- Node2 -->
<g id="Node000002" class="node">
<title>Node2</title>
<g id="a_Node000002"><a xlink:href="classApp_1_1Controllers_1_1StatsController.html#a19103b3b40588b307b330f1b37e408d8" target="_top" xlink:title="Obtiene estadísticas sobre las clases taxonómicas de hongos.">
<polygon fill="white" stroke="#666666" points="573,-414 406,-414 406,-384 573,-384 573,-414"/>
<text text-anchor="start" x="414" y="-402" font-family="Helvetica,sans-Serif" font-size="10.00">App\Controllers\StatsController</text>
<text text-anchor="middle" x="489.5" y="-391" font-family="Helvetica,sans-Serif" font-size="10.00">\getClassStats</text>
</a>
</g>
</g>
<!-- Node1&#45;&gt;Node2 -->
<g id="edge1_Node000001_Node000002" class="edge">
<title>Node1&#45;&gt;Node2</title>
<g id="a_edge1_Node000001_Node000002"><a xlink:title=" ">
<path fill="none" stroke="#63b8ff" d="M680.75,-231.6C663.42,-268.35 625.85,-337.29 573,-375 568.14,-378.47 562.79,-381.43 557.21,-383.98"/>
<polygon fill="#63b8ff" stroke="#63b8ff" points="684.1,-232.69 685.09,-222.14 677.74,-229.77 684.1,-232.69"/>
</a>
</g>
</g>
<!-- Node5 -->
<g id="Node000005" class="node">
<title>Node5</title>
<g id="a_Node000005"><a xlink:href="classApp_1_1Controllers_1_1StatsController.html#a42b7befe748ebafdfaf9a1e1669b6a4a" target="_top" xlink:title="Obtiene estadísticas sobre las divisiones taxonómicas de hongos.">
<polygon fill="white" stroke="#666666" points="573,-366 406,-366 406,-336 573,-336 573,-366"/>
<text text-anchor="start" x="414" y="-354" font-family="Helvetica,sans-Serif" font-size="10.00">App\Controllers\StatsController</text>
<text text-anchor="middle" x="489.5" y="-343" font-family="Helvetica,sans-Serif" font-size="10.00">\getDivisionStats</text>
</a>
</g>
</g>
<!-- Node1&#45;&gt;Node5 -->
<g id="edge4_Node000001_Node000005" class="edge">
<title>Node1&#45;&gt;Node5</title>
<g id="a_edge4_Node000001_Node000005"><a xlink:title=" ">
<path fill="none" stroke="#63b8ff" d="M674.37,-230.51C653.42,-257.62 615.44,-301.71 573,-327 567.23,-330.44 560.95,-333.41 554.5,-335.97"/>
<polygon fill="#63b8ff" stroke="#63b8ff" points="677.31,-232.43 680.57,-222.35 671.73,-228.2 677.31,-232.43"/>
</a>
</g>
</g>
<!-- Node6 -->
<g id="Node000006" class="node">
<title>Node6</title>
<g id="a_Node000006"><a xlink:href="classApp_1_1Controllers_1_1StatsController.html#a339d384906766d15e008dbfda50a2ca8" target="_top" xlink:title="Obtiene estadísticas de comestibilidad de hongos.">
<polygon fill="white" stroke="#666666" points="573,-174 406,-174 406,-144 573,-144 573,-174"/>
<text text-anchor="start" x="414" y="-162" font-family="Helvetica,sans-Serif" font-size="10.00">App\Controllers\StatsController</text>
<text text-anchor="middle" x="489.5" y="-151" font-family="Helvetica,sans-Serif" font-size="10.00">\getEdibilityStats</text>
</a>
</g>
</g>
<!-- Node1&#45;&gt;Node6 -->
<g id="edge6_Node000001_Node000006" class="edge">
<title>Node1&#45;&gt;Node6</title>
<g id="a_edge6_Node000001_Node000006"><a xlink:title=" ">
<path fill="none" stroke="#63b8ff" d="M618.46,-189.56C597.12,-184.46 573.98,-178.93 553.32,-174"/>
<polygon fill="#63b8ff" stroke="#63b8ff" points="617.91,-193.03 628.45,-191.94 619.54,-186.22 617.91,-193.03"/>
</a>
</g>
</g>
<!-- Node10 -->
<g id="Node000010" class="node">
<title>Node10</title>
<g id="a_Node000010"><a xlink:href="classApp_1_1Controllers_1_1StatsController.html#a9e0cdd48bfd132bccade19031dca3c25" target="_top" xlink:title="Obtiene estadísticas sobre las familias de hongos más comunes.">
<polygon fill="white" stroke="#666666" points="573,-318 406,-318 406,-288 573,-288 573,-318"/>
<text text-anchor="start" x="414" y="-306" font-family="Helvetica,sans-Serif" font-size="10.00">App\Controllers\StatsController</text>
<text text-anchor="middle" x="489.5" y="-295" font-family="Helvetica,sans-Serif" font-size="10.00">\getFamilyStats</text>
</a>
</g>
</g>
<!-- Node1&#45;&gt;Node10 -->
<g id="edge11_Node000001_Node000010" class="edge">
<title>Node1&#45;&gt;Node10</title>
<g id="a_edge11_Node000001_Node000010"><a xlink:title=" ">
<path fill="none" stroke="#63b8ff" d="M662.21,-227.8C638.92,-243.59 605.04,-264.9 573,-279 565.49,-282.3 557.4,-285.3 549.32,-287.96"/>
<polygon fill="#63b8ff" stroke="#63b8ff" points="664.32,-230.6 670.59,-222.05 660.36,-224.82 664.32,-230.6"/>
</a>
</g>
</g>
<!-- Node11 -->
<g id="Node000011" class="node">
<title>Node11</title>
<g id="a_Node000011"><a xlink:href="classApp_1_1Controllers_1_1StatsController.html#a2ff7db3ac8f173dbccfbbb9d61b9412f" target="_top" xlink:title="Obtiene estadísticas sobre los órdenes taxonómicos de hongos.">
<polygon fill="white" stroke="#666666" points="573,-270 406,-270 406,-240 573,-240 573,-270"/>
<text text-anchor="start" x="414" y="-258" font-family="Helvetica,sans-Serif" font-size="10.00">App\Controllers\StatsController</text>
<text text-anchor="middle" x="489.5" y="-247" font-family="Helvetica,sans-Serif" font-size="10.00">\getOrderStats</text>
</a>
</g>
</g>
<!-- Node1&#45;&gt;Node11 -->
<g id="edge13_Node000001_Node000011" class="edge">
<title>Node1&#45;&gt;Node11</title>
<g id="a_edge13_Node000001_Node000011"><a xlink:title=" ">
<path fill="none" stroke="#63b8ff" d="M618.46,-224.44C597.12,-229.54 573.98,-235.07 553.32,-240"/>
<polygon fill="#63b8ff" stroke="#63b8ff" points="619.54,-227.78 628.45,-222.06 617.91,-220.97 619.54,-227.78"/>
</a>
</g>
</g>
<!-- Node12 -->
<g id="Node000012" class="node">
<title>Node12</title>
<g id="a_Node000012"><a xlink:href="classApp_1_1Controllers_1_1StatsController.html#a9e81a77bff8dcf7481dbc58a4265ebe8" target="_top" xlink:title="Obtiene los hongos más populares basados en vistas.">
<polygon fill="white" stroke="#666666" points="573,-222 406,-222 406,-192 573,-192 573,-222"/>
<text text-anchor="start" x="414" y="-210" font-family="Helvetica,sans-Serif" font-size="10.00">App\Controllers\StatsController</text>
<text text-anchor="middle" x="489.5" y="-199" font-family="Helvetica,sans-Serif" font-size="10.00">\getPopularFungi</text>
</a>
</g>
</g>
<!-- Node1&#45;&gt;Node12 -->
<g id="edge15_Node000001_Node000012" class="edge">
<title>Node1&#45;&gt;Node12</title>
<g id="a_edge15_Node000001_Node000012"><a xlink:title=" ">
<path fill="none" stroke="#63b8ff" d="M598.85,-207C590.27,-207 581.61,-207 573.13,-207"/>
<polygon fill="#63b8ff" stroke="#63b8ff" points="598.88,-210.5 608.88,-207 598.88,-203.5 598.88,-210.5"/>
</a>
</g>
</g>
<!-- Node13 -->
<g id="Node000013" class="node">
<title>Node13</title>
<g id="a_Node000013"><a xlink:href="classApp_1_1Controllers_1_1StatsController.html#acbbde5b1dcd9bfac461c687cc57236c7" target="_top" xlink:title="Obtiene los hongos añadidos recientemente.">
<polygon fill="white" stroke="#666666" points="573,-126 406,-126 406,-96 573,-96 573,-126"/>
<text text-anchor="start" x="414" y="-114" font-family="Helvetica,sans-Serif" font-size="10.00">App\Controllers\StatsController</text>
<text text-anchor="middle" x="489.5" y="-103" font-family="Helvetica,sans-Serif" font-size="10.00">\getRecentAdditions</text>
</a>
</g>
</g>
<!-- Node1&#45;&gt;Node13 -->
<g id="edge17_Node000001_Node000013" class="edge">
<title>Node1&#45;&gt;Node13</title>
<g id="a_edge17_Node000001_Node000013"><a xlink:title=" ">
<path fill="none" stroke="#63b8ff" d="M662.21,-186.2C638.92,-170.41 605.04,-149.1 573,-135 565.49,-131.7 557.4,-128.7 549.32,-126.04"/>
<polygon fill="#63b8ff" stroke="#63b8ff" points="660.36,-189.18 670.59,-191.95 664.32,-183.4 660.36,-189.18"/>
</a>
</g>
</g>
<!-- Node14 -->
<g id="Node000014" class="node">
<title>Node14</title>
<g id="a_Node000014"><a xlink:href="classApp_1_1Controllers_1_1StatsController.html#abaa9ec5f3cfb54693308bfb1ec304163" target="_top" xlink:title="Obtiene las familias de hongos más comunes.">
<polygon fill="white" stroke="#666666" points="573,-78 406,-78 406,-48 573,-48 573,-78"/>
<text text-anchor="start" x="414" y="-66" font-family="Helvetica,sans-Serif" font-size="10.00">App\Controllers\StatsController</text>
<text text-anchor="middle" x="489.5" y="-55" font-family="Helvetica,sans-Serif" font-size="10.00">\getTopFamilies</text>
</a>
</g>
</g>
<!-- Node1&#45;&gt;Node14 -->
<g id="edge19_Node000001_Node000014" class="edge">
<title>Node1&#45;&gt;Node14</title>
<g id="a_edge19_Node000001_Node000014"><a xlink:title=" ">
<path fill="none" stroke="#63b8ff" d="M674.37,-183.49C653.42,-156.38 615.44,-112.29 573,-87 567.23,-83.56 560.95,-80.59 554.5,-78.03"/>
<polygon fill="#63b8ff" stroke="#63b8ff" points="671.73,-185.8 680.57,-191.65 677.31,-181.57 671.73,-185.8"/>
</a>
</g>
</g>
<!-- Node15 -->
<g id="Node000015" class="node">
<title>Node15</title>
<g id="a_Node000015"><a xlink:href="classApp_1_1Controllers_1_1StatsController.html#aa6d98d1284d05b3772442f189f643a88" target="_top" xlink:title="Obtiene el número total de hongos en la base de datos.">
<polygon fill="white" stroke="#666666" points="573,-30 406,-30 406,0 573,0 573,-30"/>
<text text-anchor="start" x="414" y="-18" font-family="Helvetica,sans-Serif" font-size="10.00">App\Controllers\StatsController</text>
<text text-anchor="middle" x="489.5" y="-7" font-family="Helvetica,sans-Serif" font-size="10.00">\getTotalFungiCount</text>
</a>
</g>
</g>
<!-- Node1&#45;&gt;Node15 -->
<g id="edge20_Node000001_Node000015" class="edge">
<title>Node1&#45;&gt;Node15</title>
<g id="a_edge20_Node000001_Node000015"><a xlink:title=" ">
<path fill="none" stroke="#63b8ff" d="M680.75,-182.4C663.42,-145.65 625.85,-76.71 573,-39 568.14,-35.53 562.79,-32.57 557.21,-30.02"/>
<polygon fill="#63b8ff" stroke="#63b8ff" points="677.74,-184.23 685.09,-191.86 684.1,-181.31 677.74,-184.23"/>
</a>
</g>
</g>
<!-- Node3 -->
<g id="Node000003" class="node">
<title>Node3</title>
<g id="a_Node000003"><a xlink:href="classApp_1_1Controllers_1_1StatsController.html#a944a68a075295dfdc85e7e403b469358" target="_top" xlink:title="Obtiene todas las estadísticas relacionadas con hongos.">
<polygon fill="white" stroke="#666666" points="370,-294 203,-294 203,-264 370,-264 370,-294"/>
<text text-anchor="start" x="211" y="-282" font-family="Helvetica,sans-Serif" font-size="10.00">App\Controllers\StatsController</text>
<text text-anchor="middle" x="286.5" y="-271" font-family="Helvetica,sans-Serif" font-size="10.00">\getFungiStats</text>
</a>
</g>
</g>
<!-- Node2&#45;&gt;Node3 -->
<g id="edge2_Node000002_Node000003" class="edge">
<title>Node2&#45;&gt;Node3</title>
<g id="a_edge2_Node000002_Node000003"><a xlink:title=" ">
<path fill="none" stroke="#63b8ff" d="M417.04,-380.19C413.25,-378.58 409.54,-376.85 406,-375 364.24,-353.15 323.26,-315.28 302.17,-294.22"/>
<polygon fill="#63b8ff" stroke="#63b8ff" points="416.03,-383.55 426.61,-383.95 418.58,-377.04 416.03,-383.55"/>
</a>
</g>
</g>
<!-- Node4 -->
<g id="Node000004" class="node">
<title>Node4</title>
<g id="a_Node000004"><a xlink:href="classApp_1_1Controllers_1_1StatsController.html#a23b681a8cc748f3cfeff24da0e6d8e34" target="_top" xlink:title="Obtiene todas las estadísticas necesarias para el panel de administración.">
<polygon fill="white" stroke="#666666" points="167,-294 0,-294 0,-264 167,-264 167,-294"/>
<text text-anchor="start" x="8" y="-282" font-family="Helvetica,sans-Serif" font-size="10.00">App\Controllers\StatsController</text>
<text text-anchor="middle" x="83.5" y="-271" font-family="Helvetica,sans-Serif" font-size="10.00">\getDashboardStats</text>
</a>
</g>
</g>
<!-- Node3&#45;&gt;Node4 -->
<g id="edge3_Node000003_Node000004" class="edge">
<title>Node3&#45;&gt;Node4</title>
<g id="a_edge3_Node000003_Node000004"><a xlink:title=" ">
<path fill="none" stroke="#63b8ff" d="M192.85,-279C184.27,-279 175.61,-279 167.13,-279"/>
<polygon fill="#63b8ff" stroke="#63b8ff" points="192.88,-282.5 202.88,-279 192.88,-275.5 192.88,-282.5"/>
</a>
</g>
</g>
<!-- Node5&#45;&gt;Node3 -->
<g id="edge5_Node000005_Node000003" class="edge">
<title>Node5&#45;&gt;Node3</title>
<g id="a_edge5_Node000005_Node000003"><a xlink:title=" ">
<path fill="none" stroke="#63b8ff" d="M424.05,-332.94C417.92,-331.02 411.83,-329.02 406,-327 377.27,-317.03 345.35,-303.99 321.89,-294.01"/>
<polygon fill="#63b8ff" stroke="#63b8ff" points="423.08,-336.3 433.67,-335.9 425.14,-329.61 423.08,-336.3"/>
</a>
</g>
</g>
<!-- Node6&#45;&gt;Node3 -->
<g id="edge9_Node000006_Node000003" class="edge">
<title>Node6&#45;&gt;Node3</title>
<g id="a_edge9_Node000006_Node000003"><a xlink:title=" ">
<path fill="none" stroke="#63b8ff" d="M417.04,-177.81C413.25,-179.42 409.54,-181.15 406,-183 364.24,-204.85 323.26,-242.72 302.17,-263.78"/>
<polygon fill="#63b8ff" stroke="#63b8ff" points="418.58,-180.96 426.61,-174.05 416.03,-174.45 418.58,-180.96"/>
</a>
</g>
</g>
<!-- Node7 -->
<g id="Node000007" class="node">
<title>Node7</title>
<g id="a_Node000007"><a xlink:href="classApp_1_1Controllers_1_1StatsController.html#af2a1c7f7fb5c2ec3ddc6a82c7c9b5944" target="_top" xlink:title="Obtiene todas las estadísticas necesarias para la página de estadísticas.">
<polygon fill="white" stroke="#666666" points="370,-174 203,-174 203,-144 370,-144 370,-174"/>
<text text-anchor="start" x="211" y="-162" font-family="Helvetica,sans-Serif" font-size="10.00">App\Controllers\StatsController</text>
<text text-anchor="middle" x="286.5" y="-151" font-family="Helvetica,sans-Serif" font-size="10.00">\getAllStatsForPage</text>
</a>
</g>
</g>
<!-- Node6&#45;&gt;Node7 -->
<g id="edge7_Node000006_Node000007" class="edge">
<title>Node6&#45;&gt;Node7</title>
<g id="a_edge7_Node000006_Node000007"><a xlink:title=" ">
<path fill="none" stroke="#63b8ff" d="M395.85,-159C387.27,-159 378.61,-159 370.13,-159"/>
<polygon fill="#63b8ff" stroke="#63b8ff" points="395.88,-162.5 405.88,-159 395.88,-155.5 395.88,-162.5"/>
</a>
</g>
</g>
<!-- Node9 -->
<g id="Node000009" class="node">
<title>Node9</title>
<g id="a_Node000009"><a xlink:href="classApp_1_1Controllers_1_1StatsController.html#a6c42f9fa6d2e3d47cd1910b324b710a3" target="_top" xlink:title="Obtiene estadísticas generales sobre los hongos en la base de datos.">
<polygon fill="white" stroke="#666666" points="370,-126 203,-126 203,-96 370,-96 370,-126"/>
<text text-anchor="start" x="211" y="-114" font-family="Helvetica,sans-Serif" font-size="10.00">App\Controllers\StatsController</text>
<text text-anchor="middle" x="286.5" y="-103" font-family="Helvetica,sans-Serif" font-size="10.00">\getGeneralStats</text>
</a>
</g>
</g>
<!-- Node6&#45;&gt;Node9 -->
<g id="edge10_Node000006_Node000009" class="edge">
<title>Node6&#45;&gt;Node9</title>
<g id="a_edge10_Node000006_Node000009"><a xlink:title=" ">
<path fill="none" stroke="#63b8ff" d="M415.46,-141.56C394.12,-136.46 370.98,-130.93 350.32,-126"/>
<polygon fill="#63b8ff" stroke="#63b8ff" points="414.91,-145.03 425.45,-143.94 416.54,-138.22 414.91,-145.03"/>
</a>
</g>
</g>
<!-- Node8 -->
<g id="Node000008" class="node">
<title>Node8</title>
<g id="a_Node000008"><a xlink:href="classApp_1_1Controllers_1_1StatsController.html#a13a0ac992567acd018968d78f7a2201c" target="_top" xlink:title="Manejador de la página de estadísticas.">
<polygon fill="white" stroke="#666666" points="167,-174 0,-174 0,-144 167,-144 167,-174"/>
<text text-anchor="start" x="8" y="-162" font-family="Helvetica,sans-Serif" font-size="10.00">App\Controllers\StatsController</text>
<text text-anchor="middle" x="83.5" y="-151" font-family="Helvetica,sans-Serif" font-size="10.00">\statisticsPageHandler</text>
</a>
</g>
</g>
<!-- Node7&#45;&gt;Node8 -->
<g id="edge8_Node000007_Node000008" class="edge">
<title>Node7&#45;&gt;Node8</title>
<g id="a_edge8_Node000007_Node000008"><a xlink:title=" ">
<path fill="none" stroke="#63b8ff" d="M192.85,-159C184.27,-159 175.61,-159 167.13,-159"/>
<polygon fill="#63b8ff" stroke="#63b8ff" points="192.88,-162.5 202.88,-159 192.88,-155.5 192.88,-162.5"/>
</a>
</g>
</g>
<!-- Node10&#45;&gt;Node3 -->
<g id="edge12_Node000010_Node000003" class="edge">
<title>Node10&#45;&gt;Node3</title>
<g id="a_edge12_Node000010_Node000003"><a xlink:title=" ">
<path fill="none" stroke="#63b8ff" d="M395.85,-291.94C387.27,-290.91 378.61,-289.88 370.13,-288.87"/>
<polygon fill="#63b8ff" stroke="#63b8ff" points="395.53,-295.42 405.88,-293.13 396.36,-288.47 395.53,-295.42"/>
</a>
</g>
</g>
<!-- Node11&#45;&gt;Node3 -->
<g id="edge14_Node000011_Node000003" class="edge">
<title>Node11&#45;&gt;Node3</title>
<g id="a_edge14_Node000011_Node000003"><a xlink:title=" ">
<path fill="none" stroke="#63b8ff" d="M395.85,-266.06C387.27,-267.09 378.61,-268.12 370.13,-269.13"/>
<polygon fill="#63b8ff" stroke="#63b8ff" points="396.36,-269.53 405.88,-264.87 395.53,-262.58 396.36,-269.53"/>
</a>
</g>
</g>
<!-- Node12&#45;&gt;Node3 -->
<g id="edge16_Node000012_Node000003" class="edge">
<title>Node12&#45;&gt;Node3</title>
<g id="a_edge16_Node000012_Node000003"><a xlink:title=" ">
<path fill="none" stroke="#63b8ff" d="M424.05,-225.06C417.92,-226.98 411.83,-228.98 406,-231 377.27,-240.97 345.35,-254.01 321.89,-263.99"/>
<polygon fill="#63b8ff" stroke="#63b8ff" points="425.14,-228.39 433.67,-222.1 423.08,-221.7 425.14,-228.39"/>
</a>
</g>
</g>
<!-- Node13&#45;&gt;Node9 -->
<g id="edge18_Node000013_Node000009" class="edge">
<title>Node13&#45;&gt;Node9</title>
<g id="a_edge18_Node000013_Node000009"><a xlink:title=" ">
<path fill="none" stroke="#63b8ff" d="M395.85,-111C387.27,-111 378.61,-111 370.13,-111"/>
<polygon fill="#63b8ff" stroke="#63b8ff" points="395.88,-114.5 405.88,-111 395.88,-107.5 395.88,-114.5"/>
</a>
</g>
</g>
<!-- Node15&#45;&gt;Node9 -->
<g id="edge21_Node000015_Node000009" class="edge">
<title>Node15&#45;&gt;Node9</title>
<g id="a_edge21_Node000015_Node000009"><a xlink:title=" ">
<path fill="none" stroke="#63b8ff" d="M419.87,-33.45C415.12,-35.19 410.46,-37.04 406,-39 369.86,-54.9 331.4,-79.98 308.41,-95.95"/>
<polygon fill="#63b8ff" stroke="#63b8ff" points="421.38,-36.63 429.68,-30.04 419.08,-30.02 421.38,-36.63"/>
</a>
</g>
</g>
</g>
</svg>

<g id="navigator" transform="translate(0 0)" fill="#404254">
  <rect fill="#f2f5e9" fill-opacity="0.5" stroke="#606060" stroke-width=".5" x="0" y="0" width="60" height="60"/>
  <use id="zoomplus" xlink:href="#zoomPlus" x="17" y="9" onmousedown="handleZoom(evt,'in')"/>
  <use id="zoomminus" xlink:href="#zoomMin" x="42" y="9" onmousedown="handleZoom(evt,'out')"/>
  <use id="reset" xlink:href="#resetDef" x="30" y="36" onmousedown="handleReset()"/>
   <use id="arrowup" xlink:href="#arrowUp" x="0" y="0" onmousedown="handlePan(0,-1)"/>
  <use id="arrowright" xlink:href="#arrowRight" x="0" y="0" onmousedown="handlePan(1,0)"/>
  <use id="arrowdown" xlink:href="#arrowDown" x="0" y="0" onmousedown="handlePan(0,1)"/>
  <use id="arrowleft" xlink:href="#arrowLeft" x="0" y="0" onmousedown="handlePan(-1,0)"/>
</g>
<svg viewBox="0 0 15 15" width="100%" height="30px" preserveAspectRatio="xMaxYMin meet">
 <g id="arrow_out" transform="scale(0.3 0.3)">
  <a xlink:href="classApp_1_1Controllers_1_1StatsController_acbcc9cd24df7ea83bb72e818e3cf4ebe_icgraph_org.svg" target="_base">
   <rect id="button" ry="5" rx="5" y="6" x="6" height="38" width="38"
        fill="#f2f5e9" fill-opacity="0.5" stroke="#606060" stroke-width="1.0"/>
   <path id="arrow"
     d="M 11.500037,31.436501 C 11.940474,20.09759 22.043105,11.32322 32.158766,21.979434 L 37.068811,17.246167 C 37.068811,17.246167 37.088388,32 37.088388,32 L 22.160133,31.978069 C 22.160133,31.978069 26.997745,27.140456 26.997745,27.140456 C 18.528582,18.264221 13.291696,25.230495 11.500037,31.436501 z"
     style="fill:#404040;"/>
  </a>
 </g>
</svg>

<style type='text/css'>
<![CDATA[
[data-mouse-over-selected='false'] { opacity: 0.7; }
[data-mouse-over-selected='true']  { opacity: 1.0; }
]]>
</style>
<script type="application/ecmascript"><![CDATA[
document.addEventListener('DOMContentLoaded', (event) => {
  highlightEdges();
  highlightAdjacentNodes();
});
]]></script>
</svg>
