<?xml version="1.0" encoding="UTF-8" standalone="no"?>
<!DOCTYPE svg PUBLIC "-//W3C//DTD SVG 1.1//EN"
 "http://www.w3.org/Graphics/SVG/1.1/DTD/svg11.dtd">
<!-- Generated by graphviz version 2.43.0 (0)
 -->
<!-- Title: App\Controllers\FungiController\incrementFungiViews Pages: 1 -->
<svg width="587pt" height="134pt"
 viewBox="0.00 0.00 587.00 134.00" xmlns="http://www.w3.org/2000/svg" xmlns:xlink="http://www.w3.org/1999/xlink">
<g id="graph0" class="graph" transform="scale(1 1) rotate(0) translate(4 130)">
<title>App\Controllers\FungiController\incrementFungiViews</title>
<!-- Node1 -->
<g id="Node000001" class="node">
<title>Node1</title>
<g id="a_Node000001"><a xlink:title="Incrementa el contador de vistas de un hongo.">
<polygon fill="#999999" stroke="#666666" points="579,-78 410,-78 410,-48 579,-48 579,-78"/>
<text text-anchor="start" x="418" y="-66" font-family="Helvetica,sans-Serif" font-size="10.00">App\Controllers\FungiController</text>
<text text-anchor="middle" x="494.5" y="-55" font-family="Helvetica,sans-Serif" font-size="10.00">\incrementFungiViews</text>
</a>
</g>
</g>
<!-- Node2 -->
<g id="Node000002" class="node">
<title>Node2</title>
<g id="a_Node000002"><a xlink:href="classApp_1_1Controllers_1_1FungiController.html#a4ffbe0ed56de5d30704aacfe173063bf" target="_top" xlink:title="Obtiene detalles completos de un hongo específico, incluyendo estadísticas.">
<polygon fill="white" stroke="#666666" points="374,-126 205,-126 205,-96 374,-96 374,-126"/>
<text text-anchor="start" x="213" y="-114" font-family="Helvetica,sans-Serif" font-size="10.00">App\Controllers\FungiController</text>
<text text-anchor="middle" x="289.5" y="-103" font-family="Helvetica,sans-Serif" font-size="10.00">\getDetailedFungusById</text>
</a>
</g>
</g>
<!-- Node1&#45;&gt;Node2 -->
<g id="edge1_Node000001_Node000002" class="edge">
<title>Node1&#45;&gt;Node2</title>
<g id="a_edge1_Node000001_Node000002"><a xlink:title=" ">
<path fill="none" stroke="#63b8ff" d="M420.03,-80.37C398.39,-85.49 374.9,-91.04 353.95,-96"/>
<polygon fill="#63b8ff" stroke="#63b8ff" points="420.9,-83.76 429.83,-78.06 419.29,-76.95 420.9,-83.76"/>
</a>
</g>
</g>
<!-- Node3 -->
<g id="Node000003" class="node">
<title>Node3</title>
<g id="a_Node000003"><a xlink:href="classApp_1_1Controllers_1_1FungiController.html#a3a07c5dd018b701663a2a46a52f74a6d" target="_top" xlink:title="Obtiene un hongo aleatorio de la base de datos.">
<polygon fill="white" stroke="#666666" points="374,-78 205,-78 205,-48 374,-48 374,-78"/>
<text text-anchor="start" x="213" y="-66" font-family="Helvetica,sans-Serif" font-size="10.00">App\Controllers\FungiController</text>
<text text-anchor="middle" x="289.5" y="-55" font-family="Helvetica,sans-Serif" font-size="10.00">\getRandomFungus</text>
</a>
</g>
</g>
<!-- Node1&#45;&gt;Node3 -->
<g id="edge2_Node000001_Node000003" class="edge">
<title>Node1&#45;&gt;Node3</title>
<g id="a_edge2_Node000001_Node000003"><a xlink:title=" ">
<path fill="none" stroke="#63b8ff" d="M399.74,-63C391.17,-63 382.52,-63 374.05,-63"/>
<polygon fill="#63b8ff" stroke="#63b8ff" points="399.76,-66.5 409.76,-63 399.76,-59.5 399.76,-66.5"/>
</a>
</g>
</g>
<!-- Node5 -->
<g id="Node000005" class="node">
<title>Node5</title>
<g id="a_Node000005"><a xlink:href="classApp_1_1Controllers_1_1FungiController.html#adb3b5543b0cbd42fe6278ffb80df47a3" target="_top" xlink:title="Obtiene un hongo aleatorio.">
<polygon fill="white" stroke="#666666" points="374,-30 205,-30 205,0 374,0 374,-30"/>
<text text-anchor="start" x="213" y="-18" font-family="Helvetica,sans-Serif" font-size="10.00">App\Controllers\FungiController</text>
<text text-anchor="middle" x="289.5" y="-7" font-family="Helvetica,sans-Serif" font-size="10.00">\getRandomFungusWithDetails</text>
</a>
</g>
</g>
<!-- Node1&#45;&gt;Node5 -->
<g id="edge4_Node000001_Node000005" class="edge">
<title>Node1&#45;&gt;Node5</title>
<g id="a_edge4_Node000001_Node000005"><a xlink:title=" ">
<path fill="none" stroke="#63b8ff" d="M420.03,-45.63C398.39,-40.51 374.9,-34.96 353.95,-30"/>
<polygon fill="#63b8ff" stroke="#63b8ff" points="419.29,-49.05 429.83,-47.94 420.9,-42.24 419.29,-49.05"/>
</a>
</g>
</g>
<!-- Node4 -->
<g id="Node000004" class="node">
<title>Node4</title>
<g id="a_Node000004"><a xlink:href="classApp_1_1Controllers_1_1FungiController.html#ade6fc0ad20f30ba8d2ba5efcf3d7064c" target="_top" xlink:title="Manejador para la ruta de hongo aleatorio.">
<polygon fill="white" stroke="#666666" points="169,-78 0,-78 0,-48 169,-48 169,-78"/>
<text text-anchor="start" x="8" y="-66" font-family="Helvetica,sans-Serif" font-size="10.00">App\Controllers\FungiController</text>
<text text-anchor="middle" x="84.5" y="-55" font-family="Helvetica,sans-Serif" font-size="10.00">\randomFungusHandler</text>
</a>
</g>
</g>
<!-- Node3&#45;&gt;Node4 -->
<g id="edge3_Node000003_Node000004" class="edge">
<title>Node3&#45;&gt;Node4</title>
<g id="a_edge3_Node000003_Node000004"><a xlink:title=" ">
<path fill="none" stroke="#63b8ff" d="M194.74,-63C186.17,-63 177.52,-63 169.05,-63"/>
<polygon fill="#63b8ff" stroke="#63b8ff" points="194.76,-66.5 204.76,-63 194.76,-59.5 194.76,-66.5"/>
</a>
</g>
</g>
</g>
</svg>
