<?xml version="1.0" encoding="UTF-8" standalone="no"?>
<!DOCTYPE svg PUBLIC "-//W3C//DTD SVG 1.1//EN"
 "http://www.w3.org/Graphics/SVG/1.1/DTD/svg11.dtd">
<!-- Generated by graphviz version 2.43.0 (0)
 -->
<!-- Title: App\Controllers\StatsController\statisticsPageHandler Pages: 1 -->
<svg width="581pt" height="134pt"
 viewBox="0.00 0.00 581.00 134.00" xmlns="http://www.w3.org/2000/svg" xmlns:xlink="http://www.w3.org/1999/xlink">
<g id="graph0" class="graph" transform="scale(1 1) rotate(0) translate(4 130)">
<title>App\Controllers\StatsController\statisticsPageHandler</title>
<!-- Node1 -->
<g id="Node000001" class="node">
<title>Node1</title>
<g id="a_Node000001"><a xlink:title="Manejador de la página de estadísticas.">
<polygon fill="#999999" stroke="#666666" points="167,-54 0,-54 0,-24 167,-24 167,-54"/>
<text text-anchor="start" x="8" y="-42" font-family="Helvetica,sans-Serif" font-size="10.00">App\Controllers\StatsController</text>
<text text-anchor="middle" x="83.5" y="-31" font-family="Helvetica,sans-Serif" font-size="10.00">\statisticsPageHandler</text>
</a>
</g>
</g>
<!-- Node2 -->
<g id="Node000002" class="node">
<title>Node2</title>
<g id="a_Node000002"><a xlink:href="classApp_1_1Controllers_1_1StatsController.html#af2a1c7f7fb5c2ec3ddc6a82c7c9b5944" target="_top" xlink:title="Obtiene todas las estadísticas necesarias para la página de estadísticas.">
<polygon fill="white" stroke="#666666" points="370,-78 203,-78 203,-48 370,-48 370,-78"/>
<text text-anchor="start" x="211" y="-66" font-family="Helvetica,sans-Serif" font-size="10.00">App\Controllers\StatsController</text>
<text text-anchor="middle" x="286.5" y="-55" font-family="Helvetica,sans-Serif" font-size="10.00">\getAllStatsForPage</text>
</a>
</g>
</g>
<!-- Node1&#45;&gt;Node2 -->
<g id="edge1_Node000001_Node000002" class="edge">
<title>Node1&#45;&gt;Node2</title>
<g id="a_edge1_Node000001_Node000002"><a xlink:title=" ">
<path fill="none" stroke="#63b8ff" d="M167.12,-48.87C175.61,-49.88 184.27,-50.91 192.85,-51.94"/>
<polygon fill="#63b8ff" stroke="#63b8ff" points="192.53,-55.42 202.87,-53.13 193.36,-48.47 192.53,-55.42"/>
</a>
</g>
</g>
<!-- Node6 -->
<g id="Node000006" class="node">
<title>Node6</title>
<g id="a_Node000006"><a xlink:href="classApp_1_1Controllers_1_1StatsController.html#a54135d721d270bd3dec13083d4051dc6" target="_top" xlink:title="Obtiene la URL base del sitio.">
<polygon fill="white" stroke="#666666" points="370,-30 203,-30 203,0 370,0 370,-30"/>
<text text-anchor="start" x="211" y="-18" font-family="Helvetica,sans-Serif" font-size="10.00">App\Controllers\StatsController</text>
<text text-anchor="middle" x="286.5" y="-7" font-family="Helvetica,sans-Serif" font-size="10.00">\getBaseUrl</text>
</a>
</g>
</g>
<!-- Node1&#45;&gt;Node6 -->
<g id="edge5_Node000001_Node000006" class="edge">
<title>Node1&#45;&gt;Node6</title>
<g id="a_edge5_Node000001_Node000006"><a xlink:title=" ">
<path fill="none" stroke="#63b8ff" d="M167.12,-29.13C175.61,-28.12 184.27,-27.09 192.85,-26.06"/>
<polygon fill="#63b8ff" stroke="#63b8ff" points="193.36,-29.53 202.87,-24.87 192.53,-22.58 193.36,-29.53"/>
</a>
</g>
</g>
<!-- Node3 -->
<g id="Node000003" class="node">
<title>Node3</title>
<g id="a_Node000003"><a xlink:href="classApp_1_1Controllers_1_1StatsController.html#ac11f08ebb9f334bedbba480533be6e07" target="_top" xlink:title="Obtiene la distribución de hongos por familia.">
<polygon fill="white" stroke="#666666" points="573,-126 406,-126 406,-96 573,-96 573,-126"/>
<text text-anchor="start" x="414" y="-114" font-family="Helvetica,sans-Serif" font-size="10.00">App\Controllers\StatsController</text>
<text text-anchor="middle" x="489.5" y="-103" font-family="Helvetica,sans-Serif" font-size="10.00">\getFamilyDistribution</text>
</a>
</g>
</g>
<!-- Node2&#45;&gt;Node3 -->
<g id="edge2_Node000002_Node000003" class="edge">
<title>Node2&#45;&gt;Node3</title>
<g id="a_edge2_Node000002_Node000003"><a xlink:title=" ">
<path fill="none" stroke="#63b8ff" d="M350.55,-78.06C371.22,-82.99 394.36,-88.52 415.69,-93.61"/>
<polygon fill="#63b8ff" stroke="#63b8ff" points="415.14,-97.08 425.68,-96 416.76,-90.27 415.14,-97.08"/>
</a>
</g>
</g>
<!-- Node4 -->
<g id="Node000004" class="node">
<title>Node4</title>
<g id="a_Node000004"><a xlink:href="classApp_1_1Controllers_1_1StatsController.html#a33d5205f64fa0acd29b3416a6b5b5308" target="_top" xlink:title="Obtiene los hongos más añadidos a favoritos.">
<polygon fill="white" stroke="#666666" points="573,-78 406,-78 406,-48 573,-48 573,-78"/>
<text text-anchor="start" x="414" y="-66" font-family="Helvetica,sans-Serif" font-size="10.00">App\Controllers\StatsController</text>
<text text-anchor="middle" x="489.5" y="-55" font-family="Helvetica,sans-Serif" font-size="10.00">\getTopFavorites</text>
</a>
</g>
</g>
<!-- Node2&#45;&gt;Node4 -->
<g id="edge3_Node000002_Node000004" class="edge">
<title>Node2&#45;&gt;Node4</title>
<g id="a_edge3_Node000002_Node000004"><a xlink:title=" ">
<path fill="none" stroke="#63b8ff" d="M370.12,-63C378.61,-63 387.27,-63 395.85,-63"/>
<polygon fill="#63b8ff" stroke="#63b8ff" points="395.87,-66.5 405.87,-63 395.87,-59.5 395.87,-66.5"/>
</a>
</g>
</g>
<!-- Node5 -->
<g id="Node000005" class="node">
<title>Node5</title>
<g id="a_Node000005"><a xlink:href="classApp_1_1Controllers_1_1StatsController.html#ac15d7095c544e0023e61febc70e6e690" target="_top" xlink:title="Obtiene los hongos más likeados.">
<polygon fill="white" stroke="#666666" points="573,-30 406,-30 406,0 573,0 573,-30"/>
<text text-anchor="start" x="414" y="-18" font-family="Helvetica,sans-Serif" font-size="10.00">App\Controllers\StatsController</text>
<text text-anchor="middle" x="489.5" y="-7" font-family="Helvetica,sans-Serif" font-size="10.00">\getTopLiked</text>
</a>
</g>
</g>
<!-- Node2&#45;&gt;Node5 -->
<g id="edge4_Node000002_Node000005" class="edge">
<title>Node2&#45;&gt;Node5</title>
<g id="a_edge4_Node000002_Node000005"><a xlink:title=" ">
<path fill="none" stroke="#63b8ff" d="M350.55,-47.94C371.22,-43.01 394.36,-37.48 415.69,-32.39"/>
<polygon fill="#63b8ff" stroke="#63b8ff" points="416.76,-35.73 425.68,-30 415.14,-28.92 416.76,-35.73"/>
</a>
</g>
</g>
</g>
</svg>
