<?xml version="1.0" encoding="UTF-8" standalone="no"?>
<!DOCTYPE svg PUBLIC "-//W3C//DTD SVG 1.1//EN"
 "http://www.w3.org/Graphics/SVG/1.1/DTD/svg11.dtd">
<!-- Generated by graphviz version 2.43.0 (0)
 -->
<!-- Title: App\Controllers\RouteController\processPatternRoutes Pages: 1 -->
<svg width="515pt" height="60pt"
 viewBox="0.00 0.00 515.00 60.00" xmlns="http://www.w3.org/2000/svg" xmlns:xlink="http://www.w3.org/1999/xlink">
<g id="graph0" class="graph" transform="scale(1 1) rotate(0) translate(4 56)">
<title>App\Controllers\RouteController\processPatternRoutes</title>
<!-- Node1 -->
<g id="Node000001" class="node">
<title>Node1</title>
<g id="a_Node000001"><a xlink:title="Procesa rutas que coinciden con patrones de expresiones regulares.">
<polygon fill="#999999" stroke="#666666" points="171,-30 0,-30 0,0 171,0 171,-30"/>
<text text-anchor="start" x="8" y="-18" font-family="Helvetica,sans-Serif" font-size="10.00">App\Controllers\RouteController</text>
<text text-anchor="middle" x="85.5" y="-7" font-family="Helvetica,sans-Serif" font-size="10.00">\processPatternRoutes</text>
</a>
</g>
</g>
<!-- Node2 -->
<g id="Node000002" class="node">
<title>Node2</title>
<g id="a_Node000002"><a xlink:href="classApp_1_1Controllers_1_1RouteController.html#a1ab0ab07cd77cb1c6c62390f0ed7fae3" target="_top" xlink:title="Procesa una ruta específica y maneja las redirecciones, autenticación y renderizado.">
<polygon fill="white" stroke="#666666" points="378,-52 207,-52 207,-22 378,-22 378,-52"/>
<text text-anchor="start" x="215" y="-40" font-family="Helvetica,sans-Serif" font-size="10.00">App\Controllers\RouteController</text>
<text text-anchor="middle" x="292.5" y="-29" font-family="Helvetica,sans-Serif" font-size="10.00">\processRoute</text>
</a>
</g>
</g>
<!-- Node1&#45;&gt;Node2 -->
<g id="edge1_Node000001_Node000002" class="edge">
<title>Node1&#45;&gt;Node2</title>
<g id="a_edge1_Node000001_Node000002"><a xlink:title=" ">
<path fill="none" stroke="#63b8ff" d="M171.06,-24.08C179.55,-24.99 188.2,-25.91 196.78,-26.83"/>
<polygon fill="#63b8ff" stroke="#63b8ff" points="196.48,-30.32 206.8,-27.91 197.23,-23.36 196.48,-30.32"/>
</a>
</g>
</g>
<!-- Node3 -->
<g id="Node000003" class="node">
<title>Node3</title>
<g id="a_Node000003"><a xlink:href="routes_8php.html#a6c204a36e81bc356bb38645948b15f75" target="_top" xlink:title="Renderiza una plantilla con los datos proporcionados.">
<polygon fill="white" stroke="#666666" points="507,-24.5 414,-24.5 414,-5.5 507,-5.5 507,-24.5"/>
<text text-anchor="middle" x="460.5" y="-12.5" font-family="Helvetica,sans-Serif" font-size="10.00">renderTemplate</text>
</a>
</g>
</g>
<!-- Node1&#45;&gt;Node3 -->
<g id="edge3_Node000001_Node000003" class="edge">
<title>Node1&#45;&gt;Node3</title>
<g id="a_edge3_Node000001_Node000003"><a xlink:title=" ">
<path fill="none" stroke="#63b8ff" d="M171.1,-13.42C183.15,-13.24 195.39,-13.1 207,-13 283,-12.37 302.01,-12.07 378,-13 386.34,-13.1 395.16,-13.26 403.8,-13.45"/>
<polygon fill="#63b8ff" stroke="#63b8ff" points="403.73,-16.95 413.81,-13.68 403.9,-9.95 403.73,-16.95"/>
</a>
</g>
</g>
<!-- Node2&#45;&gt;Node3 -->
<g id="edge2_Node000002_Node000003" class="edge">
<title>Node2&#45;&gt;Node3</title>
<g id="a_edge2_Node000002_Node000003"><a xlink:title=" ">
<path fill="none" stroke="#63b8ff" d="M378.45,-25.74C386.97,-24.61 395.47,-23.49 403.58,-22.41"/>
<polygon fill="#63b8ff" stroke="#63b8ff" points="404.16,-25.86 413.62,-21.08 403.24,-18.93 404.16,-25.86"/>
</a>
</g>
</g>
</g>
</svg>
