<?xml version="1.0" encoding="UTF-8" standalone="no"?>
<!DOCTYPE svg PUBLIC "-//W3C//DTD SVG 1.1//EN"
 "http://www.w3.org/Graphics/SVG/1.1/DTD/svg11.dtd">
<!-- Generated by graphviz version 2.43.0 (0)
 -->
<!-- Title: App\Controllers\RouteController\processRoute Pages: 1 -->
<svg width="593pt" height="59pt"
 viewBox="0.00 0.00 593.00 59.00" xmlns="http://www.w3.org/2000/svg" xmlns:xlink="http://www.w3.org/1999/xlink">
<g id="graph0" class="graph" transform="scale(1 1) rotate(0) translate(4 55)">
<title>App\Controllers\RouteController\processRoute</title>
<!-- Node1 -->
<g id="Node000001" class="node">
<title>Node1</title>
<g id="a_Node000001"><a xlink:title="Procesa una ruta específica y maneja las redirecciones, autenticación y renderizado.">
<polygon fill="#999999" stroke="#666666" points="585,-51 414,-51 414,-21 585,-21 585,-51"/>
<text text-anchor="start" x="422" y="-39" font-family="Helvetica,sans-Serif" font-size="10.00">App\Controllers\RouteController</text>
<text text-anchor="middle" x="499.5" y="-28" font-family="Helvetica,sans-Serif" font-size="10.00">\processRoute</text>
</a>
</g>
</g>
<!-- Node2 -->
<g id="Node000002" class="node">
<title>Node2</title>
<g id="a_Node000002"><a xlink:href="classApp_1_1Controllers_1_1RouteController.html#ad2c6f268a1417fb7d8ab3f7305f49dec" target="_top" xlink:title="Maneja la solicitud de ruta actual.">
<polygon fill="white" stroke="#666666" points="171,-51 0,-51 0,-21 171,-21 171,-51"/>
<text text-anchor="start" x="8" y="-39" font-family="Helvetica,sans-Serif" font-size="10.00">App\Controllers\RouteController</text>
<text text-anchor="middle" x="85.5" y="-28" font-family="Helvetica,sans-Serif" font-size="10.00">\handleRequest</text>
</a>
</g>
</g>
<!-- Node1&#45;&gt;Node2 -->
<g id="edge1_Node000001_Node000002" class="edge">
<title>Node1&#45;&gt;Node2</title>
<g id="a_edge1_Node000001_Node000002"><a xlink:title=" ">
<path fill="none" stroke="#63b8ff" d="M403.71,-38.58C395.02,-38.75 386.35,-38.9 378,-39 302.01,-39.95 282.99,-39.95 207,-39 195.39,-38.86 183.15,-38.63 171.09,-38.37"/>
<polygon fill="#63b8ff" stroke="#63b8ff" points="403.98,-42.08 413.91,-38.37 403.84,-35.08 403.98,-42.08"/>
</a>
</g>
</g>
<!-- Node3 -->
<g id="Node000003" class="node">
<title>Node3</title>
<g id="a_Node000003"><a xlink:href="classApp_1_1Controllers_1_1RouteController.html#a2bbf8018284952d53e25713fac3bb798" target="_top" xlink:title="Procesa rutas que coinciden con patrones de expresiones regulares.">
<polygon fill="white" stroke="#666666" points="378,-30 207,-30 207,0 378,0 378,-30"/>
<text text-anchor="start" x="215" y="-18" font-family="Helvetica,sans-Serif" font-size="10.00">App\Controllers\RouteController</text>
<text text-anchor="middle" x="292.5" y="-7" font-family="Helvetica,sans-Serif" font-size="10.00">\processPatternRoutes</text>
</a>
</g>
</g>
<!-- Node1&#45;&gt;Node3 -->
<g id="edge2_Node000001_Node000003" class="edge">
<title>Node1&#45;&gt;Node3</title>
<g id="a_edge2_Node000001_Node000003"><a xlink:title=" ">
<path fill="none" stroke="#63b8ff" d="M403.91,-26.31C395.34,-25.43 386.69,-24.55 378.2,-23.68"/>
<polygon fill="#63b8ff" stroke="#63b8ff" points="403.63,-29.8 413.94,-27.34 404.34,-22.84 403.63,-29.8"/>
</a>
</g>
</g>
<!-- Node3&#45;&gt;Node2 -->
<g id="edge3_Node000003_Node000002" class="edge">
<title>Node3&#45;&gt;Node2</title>
<g id="a_edge3_Node000003_Node000002"><a xlink:title=" ">
<path fill="none" stroke="#63b8ff" d="M196.91,-24.69C188.34,-25.57 179.69,-26.45 171.2,-27.32"/>
<polygon fill="#63b8ff" stroke="#63b8ff" points="197.34,-28.16 206.94,-23.66 196.63,-21.2 197.34,-28.16"/>
</a>
</g>
</g>
</g>
</svg>
