<?xml version="1.0" encoding="UTF-8" standalone="no"?>
<!DOCTYPE svg PUBLIC "-//W3C//DTD SVG 1.1//EN"
 "http://www.w3.org/Graphics/SVG/1.1/DTD/svg11.dtd">
<!-- Generated by graphviz version 2.43.0 (0)
 -->
<!-- Title: App\Controllers\FungiController\loadFungusImages Pages: 1 -->
<svg width="587pt" height="86pt"
 viewBox="0.00 0.00 587.00 86.00" xmlns="http://www.w3.org/2000/svg" xmlns:xlink="http://www.w3.org/1999/xlink">
<g id="graph0" class="graph" transform="scale(1 1) rotate(0) translate(4 82)">
<title>App\Controllers\FungiController\loadFungusImages</title>
<!-- Node1 -->
<g id="Node000001" class="node">
<title>Node1</title>
<g id="a_Node000001"><a xlink:title="Carga las imágenes relacionadas con un hongo desde la tabla de relaciones.">
<polygon fill="#999999" stroke="#666666" points="579,-54 410,-54 410,-24 579,-24 579,-54"/>
<text text-anchor="start" x="418" y="-42" font-family="Helvetica,sans-Serif" font-size="10.00">App\Controllers\FungiController</text>
<text text-anchor="middle" x="494.5" y="-31" font-family="Helvetica,sans-Serif" font-size="10.00">\loadFungusImages</text>
</a>
</g>
</g>
<!-- Node2 -->
<g id="Node000002" class="node">
<title>Node2</title>
<g id="a_Node000002"><a xlink:href="classApp_1_1Controllers_1_1FungiController.html#a0bb355407938be2032959dd234e0b13c" target="_top" xlink:title="Obtiene un hongo por su ID.">
<polygon fill="white" stroke="#666666" points="374,-78 205,-78 205,-48 374,-48 374,-78"/>
<text text-anchor="start" x="213" y="-66" font-family="Helvetica,sans-Serif" font-size="10.00">App\Controllers\FungiController</text>
<text text-anchor="middle" x="289.5" y="-55" font-family="Helvetica,sans-Serif" font-size="10.00">\getFungusById</text>
</a>
</g>
</g>
<!-- Node1&#45;&gt;Node2 -->
<g id="edge1_Node000001_Node000002" class="edge">
<title>Node1&#45;&gt;Node2</title>
<g id="a_edge1_Node000001_Node000002"><a xlink:title=" ">
<path fill="none" stroke="#63b8ff" d="M399.74,-50.08C391.17,-51.1 382.52,-52.12 374.05,-53.12"/>
<polygon fill="#63b8ff" stroke="#63b8ff" points="400.24,-53.55 409.76,-48.9 399.42,-46.6 400.24,-53.55"/>
</a>
</g>
</g>
<!-- Node4 -->
<g id="Node000004" class="node">
<title>Node4</title>
<g id="a_Node000004"><a xlink:href="classApp_1_1Controllers_1_1FungiController.html#a3a07c5dd018b701663a2a46a52f74a6d" target="_top" xlink:title="Obtiene un hongo aleatorio de la base de datos.">
<polygon fill="white" stroke="#666666" points="374,-30 205,-30 205,0 374,0 374,-30"/>
<text text-anchor="start" x="213" y="-18" font-family="Helvetica,sans-Serif" font-size="10.00">App\Controllers\FungiController</text>
<text text-anchor="middle" x="289.5" y="-7" font-family="Helvetica,sans-Serif" font-size="10.00">\getRandomFungus</text>
</a>
</g>
</g>
<!-- Node1&#45;&gt;Node4 -->
<g id="edge3_Node000001_Node000004" class="edge">
<title>Node1&#45;&gt;Node4</title>
<g id="a_edge3_Node000001_Node000004"><a xlink:title=" ">
<path fill="none" stroke="#63b8ff" d="M399.74,-27.92C391.17,-26.9 382.52,-25.88 374.05,-24.88"/>
<polygon fill="#63b8ff" stroke="#63b8ff" points="399.42,-31.4 409.76,-29.1 400.24,-24.45 399.42,-31.4"/>
</a>
</g>
</g>
<!-- Node3 -->
<g id="Node000003" class="node">
<title>Node3</title>
<g id="a_Node000003"><a xlink:href="classApp_1_1Controllers_1_1FungiController.html#a9d16717512fc95fa89a23c45ad840b7b" target="_top" xlink:title="Manejador para la ruta de detalles del hongo.">
<polygon fill="white" stroke="#666666" points="169,-78 0,-78 0,-48 169,-48 169,-78"/>
<text text-anchor="start" x="8" y="-66" font-family="Helvetica,sans-Serif" font-size="10.00">App\Controllers\FungiController</text>
<text text-anchor="middle" x="84.5" y="-55" font-family="Helvetica,sans-Serif" font-size="10.00">\detailFungusHandler</text>
</a>
</g>
</g>
<!-- Node2&#45;&gt;Node3 -->
<g id="edge2_Node000002_Node000003" class="edge">
<title>Node2&#45;&gt;Node3</title>
<g id="a_edge2_Node000002_Node000003"><a xlink:title=" ">
<path fill="none" stroke="#63b8ff" d="M194.74,-63C186.17,-63 177.52,-63 169.05,-63"/>
<polygon fill="#63b8ff" stroke="#63b8ff" points="194.76,-66.5 204.76,-63 194.76,-59.5 194.76,-66.5"/>
</a>
</g>
</g>
<!-- Node5 -->
<g id="Node000005" class="node">
<title>Node5</title>
<g id="a_Node000005"><a xlink:href="classApp_1_1Controllers_1_1FungiController.html#ade6fc0ad20f30ba8d2ba5efcf3d7064c" target="_top" xlink:title="Manejador para la ruta de hongo aleatorio.">
<polygon fill="white" stroke="#666666" points="169,-30 0,-30 0,0 169,0 169,-30"/>
<text text-anchor="start" x="8" y="-18" font-family="Helvetica,sans-Serif" font-size="10.00">App\Controllers\FungiController</text>
<text text-anchor="middle" x="84.5" y="-7" font-family="Helvetica,sans-Serif" font-size="10.00">\randomFungusHandler</text>
</a>
</g>
</g>
<!-- Node4&#45;&gt;Node5 -->
<g id="edge4_Node000004_Node000005" class="edge">
<title>Node4&#45;&gt;Node5</title>
<g id="a_edge4_Node000004_Node000005"><a xlink:title=" ">
<path fill="none" stroke="#63b8ff" d="M194.74,-15C186.17,-15 177.52,-15 169.05,-15"/>
<polygon fill="#63b8ff" stroke="#63b8ff" points="194.76,-18.5 204.76,-15 194.76,-11.5 194.76,-18.5"/>
</a>
</g>
</g>
</g>
</svg>
