<?xml version="1.0" encoding="UTF-8" standalone="no"?>
<!DOCTYPE svg PUBLIC "-//W3C//DTD SVG 1.1//EN"
 "http://www.w3.org/Graphics/SVG/1.1/DTD/svg11.dtd">
<!-- Generated by graphviz version 2.43.0 (0)
 -->
<!-- Title: App\Controllers\Api\ApiAuthController\verifyJwtToken Pages: 1 -->
<svg width="545pt" height="49pt"
 viewBox="0.00 0.00 545.00 49.00" xmlns="http://www.w3.org/2000/svg" xmlns:xlink="http://www.w3.org/1999/xlink">
<g id="graph0" class="graph" transform="scale(1 1) rotate(0) translate(4 45)">
<title>App\Controllers\Api\ApiAuthController\verifyJwtToken</title>
<!-- Node1 -->
<g id="Node000001" class="node">
<title>Node1</title>
<g id="a_Node000001"><a xlink:title="Verifica un token JWT.">
<polygon fill="#999999" stroke="#666666" points="537,-41 385,-41 385,0 537,0 537,-41"/>
<text text-anchor="start" x="393" y="-29" font-family="Helvetica,sans-Serif" font-size="10.00">App\Controllers\Api</text>
<text text-anchor="start" x="393" y="-18" font-family="Helvetica,sans-Serif" font-size="10.00">\ApiAuthController\verifyJwt</text>
<text text-anchor="middle" x="461" y="-7" font-family="Helvetica,sans-Serif" font-size="10.00">Token</text>
</a>
</g>
</g>
<!-- Node2 -->
<g id="Node000002" class="node">
<title>Node2</title>
<g id="a_Node000002"><a xlink:href="classApp_1_1Controllers_1_1Api_1_1ApiAuthController.html#aa789b2214dd7edb964e7a56a5ffb8396" target="_top" xlink:title="Obtiene el usuario autenticado de la solicitud actual.">
<polygon fill="white" stroke="#666666" points="349,-41 202,-41 202,0 349,0 349,-41"/>
<text text-anchor="start" x="210" y="-29" font-family="Helvetica,sans-Serif" font-size="10.00">App\Controllers\Api</text>
<text text-anchor="start" x="210" y="-18" font-family="Helvetica,sans-Serif" font-size="10.00">\ApiAuthController\getUser</text>
<text text-anchor="middle" x="275.5" y="-7" font-family="Helvetica,sans-Serif" font-size="10.00">FromRequest</text>
</a>
</g>
</g>
<!-- Node1&#45;&gt;Node2 -->
<g id="edge1_Node000001_Node000002" class="edge">
<title>Node1&#45;&gt;Node2</title>
<g id="a_edge1_Node000001_Node000002"><a xlink:title=" ">
<path fill="none" stroke="#63b8ff" d="M374.82,-20.5C366.25,-20.5 357.6,-20.5 349.18,-20.5"/>
<polygon fill="#63b8ff" stroke="#63b8ff" points="374.83,-24 384.83,-20.5 374.83,-17 374.83,-24"/>
</a>
</g>
</g>
<!-- Node3 -->
<g id="Node000003" class="node">
<title>Node3</title>
<g id="a_Node000003"><a xlink:href="classApp_1_1Controllers_1_1Api_1_1ApiAuthController.html#a286900ac237fe45a8dfa4ca63687dcbb" target="_top" xlink:title="Verifica si el usuario tiene acceso a un recurso y responde con error 401 si no.">
<polygon fill="white" stroke="#666666" points="166,-35.5 0,-35.5 0,-5.5 166,-5.5 166,-35.5"/>
<text text-anchor="start" x="8" y="-23.5" font-family="Helvetica,sans-Serif" font-size="10.00">App\Controllers\Api</text>
<text text-anchor="middle" x="83" y="-12.5" font-family="Helvetica,sans-Serif" font-size="10.00">\ApiAuthController\requireAuth</text>
</a>
</g>
</g>
<!-- Node2&#45;&gt;Node3 -->
<g id="edge2_Node000002_Node000003" class="edge">
<title>Node2&#45;&gt;Node3</title>
<g id="a_edge2_Node000002_Node000003"><a xlink:title=" ">
<path fill="none" stroke="#63b8ff" d="M191.71,-20.5C183.26,-20.5 174.68,-20.5 166.23,-20.5"/>
<polygon fill="#63b8ff" stroke="#63b8ff" points="191.94,-24 201.94,-20.5 191.94,-17 191.94,-24"/>
</a>
</g>
</g>
</g>
</svg>
