<?xml version="1.0" encoding="UTF-8" standalone="no"?>
<!DOCTYPE svg PUBLIC "-//W3C//DTD SVG 1.1//EN"
 "http://www.w3.org/Graphics/SVG/1.1/DTD/svg11.dtd">
<!-- Generated by graphviz version 2.43.0 (0)
 -->
<!-- Title: App\Controllers\ApiController\handlePost Pages: 1 -->
<svg width="554pt" height="134pt"
 viewBox="0.00 0.00 554.00 134.00" xmlns="http://www.w3.org/2000/svg" xmlns:xlink="http://www.w3.org/1999/xlink">
<g id="graph0" class="graph" transform="scale(1 1) rotate(0) translate(4 130)">
<title>App\Controllers\ApiController\handlePost</title>
<!-- Node1 -->
<g id="Node000001" class="node">
<title>Node1</title>
<g id="a_Node000001"><a xlink:title="Manejador de solicitudes POST.">
<polygon fill="#999999" stroke="#666666" points="158,-78 0,-78 0,-48 158,-48 158,-78"/>
<text text-anchor="start" x="8" y="-66" font-family="Helvetica,sans-Serif" font-size="10.00">App\Controllers\ApiController</text>
<text text-anchor="middle" x="79" y="-55" font-family="Helvetica,sans-Serif" font-size="10.00">\handlePost</text>
</a>
</g>
</g>
<!-- Node2 -->
<g id="Node000002" class="node">
<title>Node2</title>
<g id="a_Node000002"><a xlink:href="classApp_1_1Controllers_1_1ApiController.html#a28647c8018a767756a70c078ff3f42cd" target="_top" xlink:title="Genera un token JWT para el usuario autenticado.">
<polygon fill="white" stroke="#666666" points="352,-126 194,-126 194,-96 352,-96 352,-126"/>
<text text-anchor="start" x="202" y="-114" font-family="Helvetica,sans-Serif" font-size="10.00">App\Controllers\ApiController</text>
<text text-anchor="middle" x="273" y="-103" font-family="Helvetica,sans-Serif" font-size="10.00">\generateJwtToken</text>
</a>
</g>
</g>
<!-- Node1&#45;&gt;Node2 -->
<g id="edge1_Node000001_Node000002" class="edge">
<title>Node1&#45;&gt;Node2</title>
<g id="a_edge1_Node000001_Node000002"><a xlink:title=" ">
<path fill="none" stroke="#63b8ff" d="M140.22,-78.06C159.88,-82.97 181.87,-88.47 202.18,-93.54"/>
<polygon fill="#63b8ff" stroke="#63b8ff" points="201.44,-96.97 211.99,-96 203.14,-90.18 201.44,-96.97"/>
</a>
</g>
</g>
<!-- Node4 -->
<g id="Node000004" class="node">
<title>Node4</title>
<g id="a_Node000004"><a xlink:href="classApp_1_1Controllers_1_1ApiController.html#a11a918dc45f469f21cb20e4bd37f1385" target="_top" xlink:title="Autenticación de usuario.">
<polygon fill="white" stroke="#666666" points="352,-78 194,-78 194,-48 352,-48 352,-78"/>
<text text-anchor="start" x="202" y="-66" font-family="Helvetica,sans-Serif" font-size="10.00">App\Controllers\ApiController</text>
<text text-anchor="middle" x="273" y="-55" font-family="Helvetica,sans-Serif" font-size="10.00">\login</text>
</a>
</g>
</g>
<!-- Node1&#45;&gt;Node4 -->
<g id="edge3_Node000001_Node000004" class="edge">
<title>Node1&#45;&gt;Node4</title>
<g id="a_edge3_Node000001_Node000004"><a xlink:title=" ">
<path fill="none" stroke="#63b8ff" d="M158.09,-63C166.6,-63 175.3,-63 183.92,-63"/>
<polygon fill="#63b8ff" stroke="#63b8ff" points="183.98,-66.5 193.98,-63 183.98,-59.5 183.98,-66.5"/>
</a>
</g>
</g>
<!-- Node5 -->
<g id="Node000005" class="node">
<title>Node5</title>
<g id="a_Node000005"><a xlink:href="classApp_1_1Controllers_1_1ApiController.html#a148e8164c069528736151080114f05d3" target="_top" xlink:title="Validación de campos requeridos.">
<polygon fill="white" stroke="#666666" points="352,-30 194,-30 194,0 352,0 352,-30"/>
<text text-anchor="start" x="202" y="-18" font-family="Helvetica,sans-Serif" font-size="10.00">App\Controllers\ApiController</text>
<text text-anchor="middle" x="273" y="-7" font-family="Helvetica,sans-Serif" font-size="10.00">\validateRequiredFields</text>
</a>
</g>
</g>
<!-- Node1&#45;&gt;Node5 -->
<g id="edge4_Node000001_Node000005" class="edge">
<title>Node1&#45;&gt;Node5</title>
<g id="a_edge4_Node000001_Node000005"><a xlink:title=" ">
<path fill="none" stroke="#63b8ff" d="M140.22,-47.94C159.88,-43.03 181.87,-37.53 202.18,-32.46"/>
<polygon fill="#63b8ff" stroke="#63b8ff" points="203.14,-35.82 211.99,-30 201.44,-29.03 203.14,-35.82"/>
</a>
</g>
</g>
<!-- Node3 -->
<g id="Node000003" class="node">
<title>Node3</title>
<g id="a_Node000003"><a xlink:href="classApp_1_1Controllers_1_1ApiController.html#a04bb28eb734ab17814e5695e2056d5b1" target="_top" xlink:title="Codifica en Base64 URL seguro.">
<polygon fill="white" stroke="#666666" points="546,-126 388,-126 388,-96 546,-96 546,-126"/>
<text text-anchor="start" x="396" y="-114" font-family="Helvetica,sans-Serif" font-size="10.00">App\Controllers\ApiController</text>
<text text-anchor="middle" x="467" y="-103" font-family="Helvetica,sans-Serif" font-size="10.00">\base64URLEncode</text>
</a>
</g>
</g>
<!-- Node2&#45;&gt;Node3 -->
<g id="edge2_Node000002_Node000003" class="edge">
<title>Node2&#45;&gt;Node3</title>
<g id="a_edge2_Node000002_Node000003"><a xlink:title=" ">
<path fill="none" stroke="#63b8ff" d="M352.09,-111C360.6,-111 369.3,-111 377.92,-111"/>
<polygon fill="#63b8ff" stroke="#63b8ff" points="377.98,-114.5 387.98,-111 377.98,-107.5 377.98,-114.5"/>
</a>
</g>
</g>
</g>
</svg>
