<?xml version="1.0" encoding="UTF-8" standalone="no"?>
<!DOCTYPE svg PUBLIC "-//W3C//DTD SVG 1.1//EN"
 "http://www.w3.org/Graphics/SVG/1.1/DTD/svg11.dtd">
<!-- Generated by graphviz version 2.43.0 (0)
 -->
<!-- Title: App\Controllers\AdminController\translate Pages: 1 -->
<svg width="392pt" height="326pt"
 viewBox="0.00 0.00 392.00 326.00" xmlns="http://www.w3.org/2000/svg" xmlns:xlink="http://www.w3.org/1999/xlink">
<g id="graph0" class="graph" transform="scale(1 1) rotate(0) translate(4 322)">
<title>App\Controllers\AdminController\translate</title>
<!-- Node1 -->
<g id="Node000001" class="node">
<title>Node1</title>
<g id="a_Node000001"><a xlink:title="Traduce un texto usando el dominio admin.">
<polygon fill="#999999" stroke="#666666" points="384,-174 210,-174 210,-144 384,-144 384,-174"/>
<text text-anchor="start" x="218" y="-162" font-family="Helvetica,sans-Serif" font-size="10.00">App\Controllers\AdminController</text>
<text text-anchor="middle" x="297" y="-151" font-family="Helvetica,sans-Serif" font-size="10.00">\translate</text>
</a>
</g>
</g>
<!-- Node2 -->
<g id="Node000002" class="node">
<title>Node2</title>
<g id="a_Node000002"><a xlink:href="classApp_1_1Controllers_1_1AdminController.html#abea8f5ea53a9b14a07767d8481d5eee8" target="_top" xlink:title="Manejador para crear un nuevo hongo.">
<polygon fill="white" stroke="#666666" points="174,-318 0,-318 0,-288 174,-288 174,-318"/>
<text text-anchor="start" x="8" y="-306" font-family="Helvetica,sans-Serif" font-size="10.00">App\Controllers\AdminController</text>
<text text-anchor="middle" x="87" y="-295" font-family="Helvetica,sans-Serif" font-size="10.00">\createFungiHandler</text>
</a>
</g>
</g>
<!-- Node1&#45;&gt;Node2 -->
<g id="edge1_Node000001_Node000002" class="edge">
<title>Node1&#45;&gt;Node2</title>
<g id="a_edge1_Node000001_Node000002"><a xlink:title=" ">
<path fill="none" stroke="#63b8ff" d="M278.26,-182.57C256.58,-209.75 217.39,-253.89 174,-279 168.1,-282.42 161.68,-285.37 155.11,-287.91"/>
<polygon fill="#63b8ff" stroke="#63b8ff" points="281.26,-184.42 284.67,-174.39 275.75,-180.1 281.26,-184.42"/>
</a>
</g>
</g>
<!-- Node3 -->
<g id="Node000003" class="node">
<title>Node3</title>
<g id="a_Node000003"><a xlink:href="classApp_1_1Controllers_1_1AdminController.html#a39bd65ac3c1aeaea84fe9048dcb452b6" target="_top" xlink:title="Manejador para crear un nuevo usuario.">
<polygon fill="white" stroke="#666666" points="174,-270 0,-270 0,-240 174,-240 174,-270"/>
<text text-anchor="start" x="8" y="-258" font-family="Helvetica,sans-Serif" font-size="10.00">App\Controllers\AdminController</text>
<text text-anchor="middle" x="87" y="-247" font-family="Helvetica,sans-Serif" font-size="10.00">\createUserHandler</text>
</a>
</g>
</g>
<!-- Node1&#45;&gt;Node3 -->
<g id="edge2_Node000001_Node000003" class="edge">
<title>Node1&#45;&gt;Node3</title>
<g id="a_edge2_Node000001_Node000003"><a xlink:title=" ">
<path fill="none" stroke="#63b8ff" d="M266.11,-179.64C242.1,-195.47 207.05,-216.92 174,-231 166.3,-234.28 158.02,-237.24 149.75,-239.88"/>
<polygon fill="#63b8ff" stroke="#63b8ff" points="268.06,-182.55 274.43,-174.09 264.17,-176.73 268.06,-182.55"/>
</a>
</g>
</g>
<!-- Node4 -->
<g id="Node000004" class="node">
<title>Node4</title>
<g id="a_Node000004"><a xlink:href="classApp_1_1Controllers_1_1AdminController.html#a56070873896a9cb086b96abc3e8425f3" target="_top" xlink:title="Manejador para el dashboard.">
<polygon fill="white" stroke="#666666" points="174,-222 0,-222 0,-192 174,-192 174,-222"/>
<text text-anchor="start" x="8" y="-210" font-family="Helvetica,sans-Serif" font-size="10.00">App\Controllers\AdminController</text>
<text text-anchor="middle" x="87" y="-199" font-family="Helvetica,sans-Serif" font-size="10.00">\dashboardHandler</text>
</a>
</g>
</g>
<!-- Node1&#45;&gt;Node4 -->
<g id="edge3_Node000001_Node000004" class="edge">
<title>Node1&#45;&gt;Node4</title>
<g id="a_edge3_Node000001_Node000004"><a xlink:title=" ">
<path fill="none" stroke="#63b8ff" d="M220.72,-176.37C198.55,-181.49 174.48,-187.04 153.01,-192"/>
<polygon fill="#63b8ff" stroke="#63b8ff" points="221.8,-179.71 230.76,-174.06 220.23,-172.89 221.8,-179.71"/>
</a>
</g>
</g>
<!-- Node5 -->
<g id="Node000005" class="node">
<title>Node5</title>
<g id="a_Node000005"><a xlink:href="classApp_1_1Controllers_1_1AdminController.html#a8f7d11c870220fc9b7a6c1e1de858885" target="_top" xlink:title="Manejador para editar un hongo.">
<polygon fill="white" stroke="#666666" points="174,-174 0,-174 0,-144 174,-144 174,-174"/>
<text text-anchor="start" x="8" y="-162" font-family="Helvetica,sans-Serif" font-size="10.00">App\Controllers\AdminController</text>
<text text-anchor="middle" x="87" y="-151" font-family="Helvetica,sans-Serif" font-size="10.00">\editFungiHandler</text>
</a>
</g>
</g>
<!-- Node1&#45;&gt;Node5 -->
<g id="edge4_Node000001_Node000005" class="edge">
<title>Node1&#45;&gt;Node5</title>
<g id="a_edge4_Node000001_Node000005"><a xlink:title=" ">
<path fill="none" stroke="#63b8ff" d="M199.84,-159C191.23,-159 182.55,-159 174.04,-159"/>
<polygon fill="#63b8ff" stroke="#63b8ff" points="199.9,-162.5 209.9,-159 199.9,-155.5 199.9,-162.5"/>
</a>
</g>
</g>
<!-- Node6 -->
<g id="Node000006" class="node">
<title>Node6</title>
<g id="a_Node000006"><a xlink:href="classApp_1_1Controllers_1_1AdminController.html#a2c96f0cf4bfcc3b465d6c23e5eb2a11a" target="_top" xlink:title="Manejador para editar un usuario.">
<polygon fill="white" stroke="#666666" points="174,-126 0,-126 0,-96 174,-96 174,-126"/>
<text text-anchor="start" x="8" y="-114" font-family="Helvetica,sans-Serif" font-size="10.00">App\Controllers\AdminController</text>
<text text-anchor="middle" x="87" y="-103" font-family="Helvetica,sans-Serif" font-size="10.00">\editUserHandler</text>
</a>
</g>
</g>
<!-- Node1&#45;&gt;Node6 -->
<g id="edge5_Node000001_Node000006" class="edge">
<title>Node1&#45;&gt;Node6</title>
<g id="a_edge5_Node000001_Node000006"><a xlink:title=" ">
<path fill="none" stroke="#63b8ff" d="M220.72,-141.63C198.55,-136.51 174.48,-130.96 153.01,-126"/>
<polygon fill="#63b8ff" stroke="#63b8ff" points="220.23,-145.11 230.76,-143.94 221.8,-138.29 220.23,-145.11"/>
</a>
</g>
</g>
<!-- Node7 -->
<g id="Node000007" class="node">
<title>Node7</title>
<g id="a_Node000007"><a xlink:href="classApp_1_1Controllers_1_1AdminController.html#a94e643c8c9a1c41aa99e0c12ad023c99" target="_top" xlink:title="Manejador para la gestión de hongos.">
<polygon fill="white" stroke="#666666" points="174,-78 0,-78 0,-48 174,-48 174,-78"/>
<text text-anchor="start" x="8" y="-66" font-family="Helvetica,sans-Serif" font-size="10.00">App\Controllers\AdminController</text>
<text text-anchor="middle" x="87" y="-55" font-family="Helvetica,sans-Serif" font-size="10.00">\fungiHandler</text>
</a>
</g>
</g>
<!-- Node1&#45;&gt;Node7 -->
<g id="edge6_Node000001_Node000007" class="edge">
<title>Node1&#45;&gt;Node7</title>
<g id="a_edge6_Node000001_Node000007"><a xlink:title=" ">
<path fill="none" stroke="#63b8ff" d="M266.11,-138.36C242.1,-122.53 207.05,-101.08 174,-87 166.3,-83.72 158.02,-80.76 149.75,-78.12"/>
<polygon fill="#63b8ff" stroke="#63b8ff" points="264.17,-141.27 274.43,-143.91 268.06,-135.45 264.17,-141.27"/>
</a>
</g>
</g>
<!-- Node8 -->
<g id="Node000008" class="node">
<title>Node8</title>
<g id="a_Node000008"><a xlink:href="classApp_1_1Controllers_1_1AdminController.html#a3a9361b35478b054476a4119d92c953f" target="_top" xlink:title="Manejador para gestión de usuarios.">
<polygon fill="white" stroke="#666666" points="174,-30 0,-30 0,0 174,0 174,-30"/>
<text text-anchor="start" x="8" y="-18" font-family="Helvetica,sans-Serif" font-size="10.00">App\Controllers\AdminController</text>
<text text-anchor="middle" x="87" y="-7" font-family="Helvetica,sans-Serif" font-size="10.00">\usersHandler</text>
</a>
</g>
</g>
<!-- Node1&#45;&gt;Node8 -->
<g id="edge7_Node000001_Node000008" class="edge">
<title>Node1&#45;&gt;Node8</title>
<g id="a_edge7_Node000001_Node000008"><a xlink:title=" ">
<path fill="none" stroke="#63b8ff" d="M278.26,-135.43C256.58,-108.25 217.39,-64.11 174,-39 168.1,-35.58 161.68,-32.63 155.11,-30.09"/>
<polygon fill="#63b8ff" stroke="#63b8ff" points="275.75,-137.9 284.67,-143.61 281.26,-133.58 275.75,-137.9"/>
</a>
</g>
</g>
</g>
</svg>
