<?xml version="1.0" encoding="UTF-8" standalone="no"?>
<!DOCTYPE svg PUBLIC "-//W3C//DTD SVG 1.1//EN"
 "http://www.w3.org/Graphics/SVG/1.1/DTD/svg11.dtd">
<!-- Generated by graphviz version 2.43.0 (0)
 -->
<!-- Title: App\Controllers\Api\ApiPutController Pages: 1 -->
<svg width="112pt" height="98pt"
 viewBox="0.00 0.00 112.00 98.00" xmlns="http://www.w3.org/2000/svg" xmlns:xlink="http://www.w3.org/1999/xlink">

<svg id="main" version="1.1" xmlns="http://www.w3.org/2000/svg" xmlns:xlink="http://www.w3.org/1999/xlink" xml:space="preserve" onload="init(evt)">
<style type="text/css"><![CDATA[
.node, .edge {opacity: 0.7;}
.node.selected, .edge.selected {opacity: 1;}
.edge:hover path { stroke: red; }
.edge:hover polygon { stroke: red; fill: red; }
]]></style>
<script type="application/ecmascript" xlink:href="svg.min.js"/>
<svg id="graph" class="graph">
<g id="graph0" class="graph" transform="scale(1 1) rotate(0) translate(4 94)">
<title>App\Controllers\Api\ApiPutController</title>
<!-- Node1 -->
<g id="Node000001" class="node">
<title>Node1</title>
<g id="a_Node000001"><a xlink:title="Controlador para manejar solicitudes PUT a la API.">
<polygon fill="#999999" stroke="transparent" points="104,-90 0,-90 0,0 104,0 104,-90"/>
<text text-anchor="start" x="5" y="-78" font-family="Helvetica,sans-Serif" font-size="10.00">App\Controllers\Api</text>
<text text-anchor="start" x="10.5" y="-67" font-family="Helvetica,sans-Serif" font-size="10.00">\ApiPutController</text>
<text text-anchor="start" x="10" y="-52" font-family="Helvetica,sans-Serif" font-size="10.00">&#45;</text>
<text text-anchor="start" x="24" y="-52" font-family="Helvetica,sans-Serif" font-size="10.00">$db</text>
<text text-anchor="start" x="10" y="-37" font-family="Helvetica,sans-Serif" font-size="10.00">&#45;</text>
<text text-anchor="start" x="24" y="-37" font-family="Helvetica,sans-Serif" font-size="10.00">$pdo</text>
<text text-anchor="start" x="7.5" y="-22" font-family="Helvetica,sans-Serif" font-size="10.00">+</text>
<text text-anchor="start" x="24" y="-22" font-family="Helvetica,sans-Serif" font-size="10.00">__construct()</text>
<text text-anchor="start" x="7.5" y="-7" font-family="Helvetica,sans-Serif" font-size="10.00">+</text>
<text text-anchor="start" x="24" y="-7" font-family="Helvetica,sans-Serif" font-size="10.00">updateFungi()</text>
<polygon fill="#666666" stroke="#666666" points="0,-62 0,-62 104,-62 104,-62 0,-62"/>
<polygon fill="#666666" stroke="#666666" points="0,-32 0,-32 22,-32 22,-32 0,-32"/>
<polygon fill="#666666" stroke="#666666" points="22,-32 22,-32 104,-32 104,-32 22,-32"/>
<polygon fill="none" stroke="#666666" points="0,0 0,-90 104,-90 104,0 0,0"/>
</a>
</g>
</g>
</g>
</svg>
</svg>

<style type='text/css'>
<![CDATA[
[data-mouse-over-selected='false'] { opacity: 0.7; }
[data-mouse-over-selected='true']  { opacity: 1.0; }
]]>
</style>
<script type="application/ecmascript"><![CDATA[
document.addEventListener('DOMContentLoaded', (event) => {
  highlightEdges();
  highlightAdjacentNodes();
});
]]></script>
</svg>
