<?xml version="1.0" encoding="UTF-8" standalone="no"?>
<!DOCTYPE svg PUBLIC "-//W3C//DTD SVG 1.1//EN"
 "http://www.w3.org/Graphics/SVG/1.1/DTD/svg11.dtd">
<!-- Generated by graphviz version 2.43.0 (0)
 -->
<!-- Title: App\Controllers\StatsController\getFungiStats Pages: 1 -->
<svg width="581pt" height="326pt"
 viewBox="0.00 0.00 581.00 326.00" xmlns="http://www.w3.org/2000/svg" xmlns:xlink="http://www.w3.org/1999/xlink">
<g id="graph0" class="graph" transform="scale(1 1) rotate(0) translate(4 322)">
<title>App\Controllers\StatsController\getFungiStats</title>
<!-- Node1 -->
<g id="Node000001" class="node">
<title>Node1</title>
<g id="a_Node000001"><a xlink:title="Obtiene todas las estadísticas relacionadas con hongos.">
<polygon fill="#999999" stroke="#666666" points="167,-174 0,-174 0,-144 167,-144 167,-174"/>
<text text-anchor="start" x="8" y="-162" font-family="Helvetica,sans-Serif" font-size="10.00">App\Controllers\StatsController</text>
<text text-anchor="middle" x="83.5" y="-151" font-family="Helvetica,sans-Serif" font-size="10.00">\getFungiStats</text>
</a>
</g>
</g>
<!-- Node2 -->
<g id="Node000002" class="node">
<title>Node2</title>
<g id="a_Node000002"><a xlink:href="classApp_1_1Controllers_1_1StatsController.html#a19103b3b40588b307b330f1b37e408d8" target="_top" xlink:title="Obtiene estadísticas sobre las clases taxonómicas de hongos.">
<polygon fill="white" stroke="#666666" points="370,-318 203,-318 203,-288 370,-288 370,-318"/>
<text text-anchor="start" x="211" y="-306" font-family="Helvetica,sans-Serif" font-size="10.00">App\Controllers\StatsController</text>
<text text-anchor="middle" x="286.5" y="-295" font-family="Helvetica,sans-Serif" font-size="10.00">\getClassStats</text>
</a>
</g>
</g>
<!-- Node1&#45;&gt;Node2 -->
<g id="edge1_Node000001_Node000002" class="edge">
<title>Node1&#45;&gt;Node2</title>
<g id="a_edge1_Node000001_Node000002"><a xlink:title=" ">
<path fill="none" stroke="#63b8ff" d="M95.43,-174.35C114.42,-199.86 155.97,-250.97 203,-279 205.97,-280.77 209.09,-282.42 212.29,-283.95"/>
<polygon fill="#63b8ff" stroke="#63b8ff" points="210.94,-287.18 221.5,-287.97 213.73,-280.76 210.94,-287.18"/>
</a>
</g>
</g>
<!-- Node4 -->
<g id="Node000004" class="node">
<title>Node4</title>
<g id="a_Node000004"><a xlink:href="classApp_1_1Controllers_1_1StatsController.html#a42b7befe748ebafdfaf9a1e1669b6a4a" target="_top" xlink:title="Obtiene estadísticas sobre las divisiones taxonómicas de hongos.">
<polygon fill="white" stroke="#666666" points="370,-270 203,-270 203,-240 370,-240 370,-270"/>
<text text-anchor="start" x="211" y="-258" font-family="Helvetica,sans-Serif" font-size="10.00">App\Controllers\StatsController</text>
<text text-anchor="middle" x="286.5" y="-247" font-family="Helvetica,sans-Serif" font-size="10.00">\getDivisionStats</text>
</a>
</g>
</g>
<!-- Node1&#45;&gt;Node4 -->
<g id="edge3_Node000001_Node000004" class="edge">
<title>Node1&#45;&gt;Node4</title>
<g id="a_edge3_Node000001_Node000004"><a xlink:title=" ">
<path fill="none" stroke="#63b8ff" d="M105.41,-174.05C128.4,-190.02 166.86,-215.1 203,-231 207.46,-232.96 212.12,-234.81 216.87,-236.55"/>
<polygon fill="#63b8ff" stroke="#63b8ff" points="216.08,-239.98 226.68,-239.96 218.38,-233.37 216.08,-239.98"/>
</a>
</g>
</g>
<!-- Node5 -->
<g id="Node000005" class="node">
<title>Node5</title>
<g id="a_Node000005"><a xlink:href="classApp_1_1Controllers_1_1StatsController.html#af64065be7583a66e68d38bfade5585bb" target="_top" xlink:title="Obtiene estadísticas sobre la comestibilidad de los hongos.">
<polygon fill="white" stroke="#666666" points="370,-222 203,-222 203,-192 370,-192 370,-222"/>
<text text-anchor="start" x="211" y="-210" font-family="Helvetica,sans-Serif" font-size="10.00">App\Controllers\StatsController</text>
<text text-anchor="middle" x="286.5" y="-199" font-family="Helvetica,sans-Serif" font-size="10.00">\getEdibilityStats</text>
</a>
</g>
</g>
<!-- Node1&#45;&gt;Node5 -->
<g id="edge5_Node000001_Node000005" class="edge">
<title>Node1&#45;&gt;Node5</title>
<g id="a_edge5_Node000001_Node000005"><a xlink:title=" ">
<path fill="none" stroke="#63b8ff" d="M147.55,-174.06C168.22,-178.99 191.36,-184.52 212.69,-189.61"/>
<polygon fill="#63b8ff" stroke="#63b8ff" points="212.14,-193.08 222.68,-192 213.76,-186.27 212.14,-193.08"/>
</a>
</g>
</g>
<!-- Node6 -->
<g id="Node000006" class="node">
<title>Node6</title>
<g id="a_Node000006"><a xlink:href="classApp_1_1Controllers_1_1StatsController.html#a9e0cdd48bfd132bccade19031dca3c25" target="_top" xlink:title="Obtiene estadísticas sobre las familias de hongos más comunes.">
<polygon fill="white" stroke="#666666" points="370,-174 203,-174 203,-144 370,-144 370,-174"/>
<text text-anchor="start" x="211" y="-162" font-family="Helvetica,sans-Serif" font-size="10.00">App\Controllers\StatsController</text>
<text text-anchor="middle" x="286.5" y="-151" font-family="Helvetica,sans-Serif" font-size="10.00">\getFamilyStats</text>
</a>
</g>
</g>
<!-- Node1&#45;&gt;Node6 -->
<g id="edge7_Node000001_Node000006" class="edge">
<title>Node1&#45;&gt;Node6</title>
<g id="a_edge7_Node000001_Node000006"><a xlink:title=" ">
<path fill="none" stroke="#63b8ff" d="M167.12,-159C175.61,-159 184.27,-159 192.85,-159"/>
<polygon fill="#63b8ff" stroke="#63b8ff" points="192.87,-162.5 202.87,-159 192.87,-155.5 192.87,-162.5"/>
</a>
</g>
</g>
<!-- Node7 -->
<g id="Node000007" class="node">
<title>Node7</title>
<g id="a_Node000007"><a xlink:href="classApp_1_1Controllers_1_1StatsController.html#a2ff7db3ac8f173dbccfbbb9d61b9412f" target="_top" xlink:title="Obtiene estadísticas sobre los órdenes taxonómicos de hongos.">
<polygon fill="white" stroke="#666666" points="370,-126 203,-126 203,-96 370,-96 370,-126"/>
<text text-anchor="start" x="211" y="-114" font-family="Helvetica,sans-Serif" font-size="10.00">App\Controllers\StatsController</text>
<text text-anchor="middle" x="286.5" y="-103" font-family="Helvetica,sans-Serif" font-size="10.00">\getOrderStats</text>
</a>
</g>
</g>
<!-- Node1&#45;&gt;Node7 -->
<g id="edge9_Node000001_Node000007" class="edge">
<title>Node1&#45;&gt;Node7</title>
<g id="a_edge9_Node000001_Node000007"><a xlink:title=" ">
<path fill="none" stroke="#63b8ff" d="M147.55,-143.94C168.22,-139.01 191.36,-133.48 212.69,-128.39"/>
<polygon fill="#63b8ff" stroke="#63b8ff" points="213.76,-131.73 222.68,-126 212.14,-124.92 213.76,-131.73"/>
</a>
</g>
</g>
<!-- Node8 -->
<g id="Node000008" class="node">
<title>Node8</title>
<g id="a_Node000008"><a xlink:href="classApp_1_1Controllers_1_1StatsController.html#a9e81a77bff8dcf7481dbc58a4265ebe8" target="_top" xlink:title="Obtiene los hongos más populares basados en vistas.">
<polygon fill="white" stroke="#666666" points="370,-78 203,-78 203,-48 370,-48 370,-78"/>
<text text-anchor="start" x="211" y="-66" font-family="Helvetica,sans-Serif" font-size="10.00">App\Controllers\StatsController</text>
<text text-anchor="middle" x="286.5" y="-55" font-family="Helvetica,sans-Serif" font-size="10.00">\getPopularFungi</text>
</a>
</g>
</g>
<!-- Node1&#45;&gt;Node8 -->
<g id="edge11_Node000001_Node000008" class="edge">
<title>Node1&#45;&gt;Node8</title>
<g id="a_edge11_Node000001_Node000008"><a xlink:title=" ">
<path fill="none" stroke="#63b8ff" d="M105.41,-143.95C128.4,-127.98 166.86,-102.9 203,-87 207.46,-85.04 212.12,-83.19 216.87,-81.45"/>
<polygon fill="#63b8ff" stroke="#63b8ff" points="218.38,-84.63 226.68,-78.04 216.08,-78.02 218.38,-84.63"/>
</a>
</g>
</g>
<!-- Node9 -->
<g id="Node000009" class="node">
<title>Node9</title>
<g id="a_Node000009"><a xlink:href="classApp_1_1Controllers_1_1StatsController.html#a35b229bcab9985c40a2c2b2a26d8b774" target="_top" xlink:title="Obtiene estadísticas sobre la actividad de los usuarios.">
<polygon fill="white" stroke="#666666" points="370,-30 203,-30 203,0 370,0 370,-30"/>
<text text-anchor="start" x="211" y="-18" font-family="Helvetica,sans-Serif" font-size="10.00">App\Controllers\StatsController</text>
<text text-anchor="middle" x="286.5" y="-7" font-family="Helvetica,sans-Serif" font-size="10.00">\getUserActivityStats</text>
</a>
</g>
</g>
<!-- Node1&#45;&gt;Node9 -->
<g id="edge13_Node000001_Node000009" class="edge">
<title>Node1&#45;&gt;Node9</title>
<g id="a_edge13_Node000001_Node000009"><a xlink:title=" ">
<path fill="none" stroke="#63b8ff" d="M95.43,-143.65C114.42,-118.14 155.97,-67.03 203,-39 205.97,-37.23 209.09,-35.58 212.29,-34.05"/>
<polygon fill="#63b8ff" stroke="#63b8ff" points="213.73,-37.24 221.5,-30.03 210.94,-30.82 213.73,-37.24"/>
</a>
</g>
</g>
<!-- Node3 -->
<g id="Node000003" class="node">
<title>Node3</title>
<g id="a_Node000003"><a xlink:href="classApp_1_1Controllers_1_1StatsController.html#acbcc9cd24df7ea83bb72e818e3cf4ebe" target="_top" xlink:title="Genera la condición SQL para filtrar por rango de tiempo.">
<polygon fill="white" stroke="#666666" points="573,-198 406,-198 406,-168 573,-168 573,-198"/>
<text text-anchor="start" x="414" y="-186" font-family="Helvetica,sans-Serif" font-size="10.00">App\Controllers\StatsController</text>
<text text-anchor="middle" x="489.5" y="-175" font-family="Helvetica,sans-Serif" font-size="10.00">\getTimeRangeCondition</text>
</a>
</g>
</g>
<!-- Node2&#45;&gt;Node3 -->
<g id="edge2_Node000002_Node000003" class="edge">
<title>Node2&#45;&gt;Node3</title>
<g id="a_edge2_Node000002_Node000003"><a xlink:title=" ">
<path fill="none" stroke="#63b8ff" d="M349.39,-287.95C356.5,-285.36 363.52,-282.39 370,-279 407.36,-259.46 444.08,-227.09 466.52,-205.41"/>
<polygon fill="#63b8ff" stroke="#63b8ff" points="469.15,-207.73 473.83,-198.22 464.24,-202.73 469.15,-207.73"/>
</a>
</g>
</g>
<!-- Node4&#45;&gt;Node3 -->
<g id="edge4_Node000004_Node000003" class="edge">
<title>Node4&#45;&gt;Node3</title>
<g id="a_edge4_Node000004_Node000003"><a xlink:title=" ">
<path fill="none" stroke="#63b8ff" d="M342.33,-239.9C351.62,-237.1 361.12,-234.08 370,-231 395.03,-222.32 422.47,-211.3 444.64,-202.01"/>
<polygon fill="#63b8ff" stroke="#63b8ff" points="446.26,-205.12 454.11,-198.01 443.54,-198.68 446.26,-205.12"/>
</a>
</g>
</g>
<!-- Node5&#45;&gt;Node3 -->
<g id="edge6_Node000005_Node000003" class="edge">
<title>Node5&#45;&gt;Node3</title>
<g id="a_edge6_Node000005_Node000003"><a xlink:title=" ">
<path fill="none" stroke="#63b8ff" d="M370.12,-197.13C378.61,-196.12 387.27,-195.09 395.85,-194.06"/>
<polygon fill="#63b8ff" stroke="#63b8ff" points="396.36,-197.53 405.87,-192.87 395.53,-190.58 396.36,-197.53"/>
</a>
</g>
</g>
<!-- Node6&#45;&gt;Node3 -->
<g id="edge8_Node000006_Node000003" class="edge">
<title>Node6&#45;&gt;Node3</title>
<g id="a_edge8_Node000006_Node000003"><a xlink:title=" ">
<path fill="none" stroke="#63b8ff" d="M370.12,-168.87C378.61,-169.88 387.27,-170.91 395.85,-171.94"/>
<polygon fill="#63b8ff" stroke="#63b8ff" points="395.53,-175.42 405.87,-173.13 396.36,-168.47 395.53,-175.42"/>
</a>
</g>
</g>
<!-- Node7&#45;&gt;Node3 -->
<g id="edge10_Node000007_Node000003" class="edge">
<title>Node7&#45;&gt;Node3</title>
<g id="a_edge10_Node000007_Node000003"><a xlink:title=" ">
<path fill="none" stroke="#63b8ff" d="M342.33,-126.1C351.62,-128.9 361.12,-131.92 370,-135 395.03,-143.68 422.47,-154.7 444.64,-163.99"/>
<polygon fill="#63b8ff" stroke="#63b8ff" points="443.54,-167.32 454.11,-167.99 446.26,-160.88 443.54,-167.32"/>
</a>
</g>
</g>
<!-- Node8&#45;&gt;Node3 -->
<g id="edge12_Node000008_Node000003" class="edge">
<title>Node8&#45;&gt;Node3</title>
<g id="a_edge12_Node000008_Node000003"><a xlink:title=" ">
<path fill="none" stroke="#63b8ff" d="M349.39,-78.05C356.5,-80.64 363.52,-83.61 370,-87 407.36,-106.54 444.08,-138.91 466.52,-160.59"/>
<polygon fill="#63b8ff" stroke="#63b8ff" points="464.24,-163.27 473.83,-167.78 469.15,-158.27 464.24,-163.27"/>
</a>
</g>
</g>
</g>
</svg>
