<?xml version="1.0" encoding="UTF-8" standalone="no"?>
<!DOCTYPE svg PUBLIC "-//W3C//DTD SVG 1.1//EN"
 "http://www.w3.org/Graphics/SVG/1.1/DTD/svg11.dtd">
<!-- Generated by graphviz version 2.43.0 (0)
 -->
<!-- Title: App\Controllers\SessionController\getUserData Pages: 1 -->
<svg width="1052pt" height="110pt"
 viewBox="0.00 0.00 1052.00 110.00" xmlns="http://www.w3.org/2000/svg" xmlns:xlink="http://www.w3.org/1999/xlink">
<g id="graph0" class="graph" transform="scale(1 1) rotate(0) translate(4 106)">
<title>App\Controllers\SessionController\getUserData</title>
<!-- Node1 -->
<g id="Node000001" class="node">
<title>Node1</title>
<g id="a_Node000001"><a xlink:title="Obtiene los datos del usuario actual de la sesión.">
<polygon fill="#999999" stroke="#666666" points="180,-54 0,-54 0,-24 180,-24 180,-54"/>
<text text-anchor="start" x="8" y="-42" font-family="Helvetica,sans-Serif" font-size="10.00">App\Controllers\SessionController</text>
<text text-anchor="middle" x="90" y="-31" font-family="Helvetica,sans-Serif" font-size="10.00">\getUserData</text>
</a>
</g>
</g>
<!-- Node2 -->
<g id="Node000002" class="node">
<title>Node2</title>
<g id="a_Node000002"><a xlink:href="classApp_1_1Controllers_1_1SessionController.html#a85371c29c7f51815ccc851826b8cb288" target="_top" xlink:title="Verifica si el usuario tiene sesión activa.">
<polygon fill="white" stroke="#666666" points="396,-54 216,-54 216,-24 396,-24 396,-54"/>
<text text-anchor="start" x="224" y="-42" font-family="Helvetica,sans-Serif" font-size="10.00">App\Controllers\SessionController</text>
<text text-anchor="middle" x="306" y="-31" font-family="Helvetica,sans-Serif" font-size="10.00">\isLoggedIn</text>
</a>
</g>
</g>
<!-- Node1&#45;&gt;Node2 -->
<g id="edge1_Node000001_Node000002" class="edge">
<title>Node1&#45;&gt;Node2</title>
<g id="a_edge1_Node000001_Node000002"><a xlink:title=" ">
<path fill="none" stroke="#63b8ff" d="M180.21,-39C188.7,-39 197.34,-39 205.92,-39"/>
<polygon fill="#63b8ff" stroke="#63b8ff" points="205.94,-42.5 215.94,-39 205.94,-35.5 205.94,-42.5"/>
</a>
</g>
</g>
<!-- Node3 -->
<g id="Node000003" class="node">
<title>Node3</title>
<g id="a_Node000003"><a xlink:href="classApp_1_1Controllers_1_1SessionController.html#ab38acc8d3f11ff8c05f466c64100d1bc" target="_top" xlink:title=" ">
<polygon fill="white" stroke="#666666" points="612,-78 432,-78 432,-48 612,-48 612,-78"/>
<text text-anchor="start" x="440" y="-66" font-family="Helvetica,sans-Serif" font-size="10.00">App\Controllers\SessionController</text>
<text text-anchor="middle" x="522" y="-55" font-family="Helvetica,sans-Serif" font-size="10.00">\verifyJWTCookie</text>
</a>
</g>
</g>
<!-- Node2&#45;&gt;Node3 -->
<g id="edge2_Node000002_Node000003" class="edge">
<title>Node2&#45;&gt;Node3</title>
<g id="a_edge2_Node000002_Node000003"><a xlink:title=" ">
<path fill="none" stroke="#63b8ff" d="M396.21,-49C404.7,-49.96 413.34,-50.93 421.92,-51.89"/>
<polygon fill="#63b8ff" stroke="#63b8ff" points="421.61,-55.38 431.94,-53.01 422.39,-48.42 421.61,-55.38"/>
</a>
</g>
</g>
<!-- Node8 -->
<g id="Node000008" class="node">
<title>Node8</title>
<g id="a_Node000008"><a xlink:href="classApp_1_1Controllers_1_1SessionController.html#a2bdcf6ca1f5f943eec1384cd56a13898" target="_top" xlink:title=" ">
<polygon fill="white" stroke="#666666" points="612,-30 432,-30 432,0 612,0 612,-30"/>
<text text-anchor="start" x="440" y="-18" font-family="Helvetica,sans-Serif" font-size="10.00">App\Controllers\SessionController</text>
<text text-anchor="middle" x="522" y="-7" font-family="Helvetica,sans-Serif" font-size="10.00">\verifyTokenCookie</text>
</a>
</g>
</g>
<!-- Node2&#45;&gt;Node8 -->
<g id="edge7_Node000002_Node000008" class="edge">
<title>Node2&#45;&gt;Node8</title>
<g id="a_edge7_Node000002_Node000008"><a xlink:title=" ">
<path fill="none" stroke="#63b8ff" d="M396.21,-29C404.7,-28.04 413.34,-27.07 421.92,-26.11"/>
<polygon fill="#63b8ff" stroke="#63b8ff" points="422.39,-29.58 431.94,-24.99 421.61,-22.62 422.39,-29.58"/>
</a>
</g>
</g>
<!-- Node4 -->
<g id="Node000004" class="node">
<title>Node4</title>
<g id="a_Node000004"><a xlink:href="classApp_1_1Controllers_1_1SessionController.html#a3b17420266868d8c5927e8527e91ce89" target="_top" xlink:title="Obtiene la clave secreta para JWT.">
<polygon fill="white" stroke="#666666" points="828,-102 648,-102 648,-72 828,-72 828,-102"/>
<text text-anchor="start" x="656" y="-90" font-family="Helvetica,sans-Serif" font-size="10.00">App\Controllers\SessionController</text>
<text text-anchor="middle" x="738" y="-79" font-family="Helvetica,sans-Serif" font-size="10.00">\getSecretKey</text>
</a>
</g>
</g>
<!-- Node3&#45;&gt;Node4 -->
<g id="edge3_Node000003_Node000004" class="edge">
<title>Node3&#45;&gt;Node4</title>
<g id="a_edge3_Node000003_Node000004"><a xlink:title=" ">
<path fill="none" stroke="#63b8ff" d="M612.21,-73C620.7,-73.96 629.34,-74.93 637.92,-75.89"/>
<polygon fill="#63b8ff" stroke="#63b8ff" points="637.61,-79.38 647.94,-77.01 638.39,-72.42 637.61,-79.38"/>
</a>
</g>
</g>
<!-- Node5 -->
<g id="Node000005" class="node">
<title>Node5</title>
<g id="a_Node000005"><a xlink:href="classApp_1_1Controllers_1_1SessionController.html#aeb485b5bb6111a9a69831bf477f5e2a7" target="_top" xlink:title=" ">
<polygon fill="white" stroke="#666666" points="828,-54 648,-54 648,-24 828,-24 828,-54"/>
<text text-anchor="start" x="656" y="-42" font-family="Helvetica,sans-Serif" font-size="10.00">App\Controllers\SessionController</text>
<text text-anchor="middle" x="738" y="-31" font-family="Helvetica,sans-Serif" font-size="10.00">\verifyJWT</text>
</a>
</g>
</g>
<!-- Node3&#45;&gt;Node5 -->
<g id="edge4_Node000003_Node000005" class="edge">
<title>Node3&#45;&gt;Node5</title>
<g id="a_edge4_Node000003_Node000005"><a xlink:title=" ">
<path fill="none" stroke="#63b8ff" d="M612.21,-53C620.7,-52.04 629.34,-51.07 637.92,-50.11"/>
<polygon fill="#63b8ff" stroke="#63b8ff" points="638.39,-53.58 647.94,-48.99 637.61,-46.62 638.39,-53.58"/>
</a>
</g>
</g>
<!-- Node6 -->
<g id="Node000006" class="node">
<title>Node6</title>
<g id="a_Node000006"><a xlink:href="classApp_1_1Controllers_1_1SessionController.html#ac7335acea6e82f52f8f12c55f3f5d059" target="_top" xlink:title=" ">
<polygon fill="white" stroke="#666666" points="1044,-78 864,-78 864,-48 1044,-48 1044,-78"/>
<text text-anchor="start" x="872" y="-66" font-family="Helvetica,sans-Serif" font-size="10.00">App\Controllers\SessionController</text>
<text text-anchor="middle" x="954" y="-55" font-family="Helvetica,sans-Serif" font-size="10.00">\base64URLDecode</text>
</a>
</g>
</g>
<!-- Node5&#45;&gt;Node6 -->
<g id="edge5_Node000005_Node000006" class="edge">
<title>Node5&#45;&gt;Node6</title>
<g id="a_edge5_Node000005_Node000006"><a xlink:title=" ">
<path fill="none" stroke="#63b8ff" d="M828.21,-49C836.7,-49.96 845.34,-50.93 853.92,-51.89"/>
<polygon fill="#63b8ff" stroke="#63b8ff" points="853.61,-55.38 863.94,-53.01 854.39,-48.42 853.61,-55.38"/>
</a>
</g>
</g>
<!-- Node7 -->
<g id="Node000007" class="node">
<title>Node7</title>
<g id="a_Node000007"><a xlink:href="classApp_1_1Controllers_1_1SessionController.html#a15a75fb60a2c6f562aae8279a9f4c452" target="_top" xlink:title="Codifica en Base64 URL seguro.">
<polygon fill="white" stroke="#666666" points="1044,-30 864,-30 864,0 1044,0 1044,-30"/>
<text text-anchor="start" x="872" y="-18" font-family="Helvetica,sans-Serif" font-size="10.00">App\Controllers\SessionController</text>
<text text-anchor="middle" x="954" y="-7" font-family="Helvetica,sans-Serif" font-size="10.00">\base64URLEncode</text>
</a>
</g>
</g>
<!-- Node5&#45;&gt;Node7 -->
<g id="edge6_Node000005_Node000007" class="edge">
<title>Node5&#45;&gt;Node7</title>
<g id="a_edge6_Node000005_Node000007"><a xlink:title=" ">
<path fill="none" stroke="#63b8ff" d="M828.21,-29C836.7,-28.04 845.34,-27.07 853.92,-26.11"/>
<polygon fill="#63b8ff" stroke="#63b8ff" points="854.39,-29.58 863.94,-24.99 853.61,-22.62 854.39,-29.58"/>
</a>
</g>
</g>
</g>
</svg>
