<?xml version="1.0" encoding="UTF-8" standalone="no"?>
<!DOCTYPE svg PUBLIC "-//W3C//DTD SVG 1.1//EN"
 "http://www.w3.org/Graphics/SVG/1.1/DTD/svg11.dtd">
<!-- Generated by graphviz version 2.43.0 (0)
 -->
<!-- Title: App\Controllers\ApiController\handleRequest Pages: 1 -->
<svg width="748pt" height="206pt"
 viewBox="0.00 0.00 748.00 206.00" xmlns="http://www.w3.org/2000/svg" xmlns:xlink="http://www.w3.org/1999/xlink">
<g id="graph0" class="graph" transform="scale(1 1) rotate(0) translate(4 202)">
<title>App\Controllers\ApiController\handleRequest</title>
<!-- Node1 -->
<g id="Node000001" class="node">
<title>Node1</title>
<g id="a_Node000001"><a xlink:title="Manejador de solicitudes HTTP.">
<polygon fill="#999999" stroke="#666666" points="158,-126 0,-126 0,-96 158,-96 158,-126"/>
<text text-anchor="start" x="8" y="-114" font-family="Helvetica,sans-Serif" font-size="10.00">App\Controllers\ApiController</text>
<text text-anchor="middle" x="79" y="-103" font-family="Helvetica,sans-Serif" font-size="10.00">\handleRequest</text>
</a>
</g>
</g>
<!-- Node2 -->
<g id="Node000002" class="node">
<title>Node2</title>
<g id="a_Node000002"><a xlink:href="classApp_1_1Controllers_1_1ApiController.html#a42d236c3d92bd345648219584a384e3e" target="_top" xlink:title="Manejador de solicitudes DELETE.">
<polygon fill="white" stroke="#666666" points="352,-198 194,-198 194,-168 352,-168 352,-198"/>
<text text-anchor="start" x="202" y="-186" font-family="Helvetica,sans-Serif" font-size="10.00">App\Controllers\ApiController</text>
<text text-anchor="middle" x="273" y="-175" font-family="Helvetica,sans-Serif" font-size="10.00">\handleDelete</text>
</a>
</g>
</g>
<!-- Node1&#45;&gt;Node2 -->
<g id="edge1_Node000001_Node000002" class="edge">
<title>Node1&#45;&gt;Node2</title>
<g id="a_edge1_Node000001_Node000002"><a xlink:title=" ">
<path fill="none" stroke="#63b8ff" d="M113.57,-126.18C136.09,-136.1 166.55,-149.03 194,-159 199.46,-160.98 205.17,-162.95 210.91,-164.85"/>
<polygon fill="#63b8ff" stroke="#63b8ff" points="209.98,-168.22 220.57,-167.98 212.13,-161.56 209.98,-168.22"/>
</a>
</g>
</g>
<!-- Node3 -->
<g id="Node000003" class="node">
<title>Node3</title>
<g id="a_Node000003"><a xlink:href="classApp_1_1Controllers_1_1ApiController.html#ada189fa85b1c852d7deb9f5d59f16109" target="_top" xlink:title="Manejador de solicitudes GET.">
<polygon fill="white" stroke="#666666" points="352,-150 194,-150 194,-120 352,-120 352,-150"/>
<text text-anchor="start" x="202" y="-138" font-family="Helvetica,sans-Serif" font-size="10.00">App\Controllers\ApiController</text>
<text text-anchor="middle" x="273" y="-127" font-family="Helvetica,sans-Serif" font-size="10.00">\handleGet</text>
</a>
</g>
</g>
<!-- Node1&#45;&gt;Node3 -->
<g id="edge2_Node000001_Node000003" class="edge">
<title>Node1&#45;&gt;Node3</title>
<g id="a_edge2_Node000001_Node000003"><a xlink:title=" ">
<path fill="none" stroke="#63b8ff" d="M158.09,-120.76C166.6,-121.83 175.3,-122.91 183.92,-123.99"/>
<polygon fill="#63b8ff" stroke="#63b8ff" points="183.62,-127.48 193.98,-125.25 184.49,-120.53 183.62,-127.48"/>
</a>
</g>
</g>
<!-- Node5 -->
<g id="Node000005" class="node">
<title>Node5</title>
<g id="a_Node000005"><a xlink:href="classApp_1_1Controllers_1_1ApiController.html#a8cd77387760dd2cc99af170a4edde2e7" target="_top" xlink:title="Manejador de solicitudes POST.">
<polygon fill="white" stroke="#666666" points="352,-102 194,-102 194,-72 352,-72 352,-102"/>
<text text-anchor="start" x="202" y="-90" font-family="Helvetica,sans-Serif" font-size="10.00">App\Controllers\ApiController</text>
<text text-anchor="middle" x="273" y="-79" font-family="Helvetica,sans-Serif" font-size="10.00">\handlePost</text>
</a>
</g>
</g>
<!-- Node1&#45;&gt;Node5 -->
<g id="edge4_Node000001_Node000005" class="edge">
<title>Node1&#45;&gt;Node5</title>
<g id="a_edge4_Node000001_Node000005"><a xlink:title=" ">
<path fill="none" stroke="#63b8ff" d="M158.09,-101.24C166.6,-100.17 175.3,-99.09 183.92,-98.01"/>
<polygon fill="#63b8ff" stroke="#63b8ff" points="184.49,-101.47 193.98,-96.75 183.62,-94.52 184.49,-101.47"/>
</a>
</g>
</g>
<!-- Node10 -->
<g id="Node000010" class="node">
<title>Node10</title>
<g id="a_Node000010"><a xlink:href="classApp_1_1Controllers_1_1ApiController.html#a44716cc151011ed147d461835bdd8c17" target="_top" xlink:title="Manejador de solicitudes PUT.">
<polygon fill="white" stroke="#666666" points="352,-54 194,-54 194,-24 352,-24 352,-54"/>
<text text-anchor="start" x="202" y="-42" font-family="Helvetica,sans-Serif" font-size="10.00">App\Controllers\ApiController</text>
<text text-anchor="middle" x="273" y="-31" font-family="Helvetica,sans-Serif" font-size="10.00">\handlePut</text>
</a>
</g>
</g>
<!-- Node1&#45;&gt;Node10 -->
<g id="edge9_Node000001_Node000010" class="edge">
<title>Node1&#45;&gt;Node10</title>
<g id="a_edge9_Node000001_Node000010"><a xlink:title=" ">
<path fill="none" stroke="#63b8ff" d="M113.57,-95.82C136.09,-85.9 166.55,-72.97 194,-63 199.46,-61.02 205.17,-59.05 210.91,-57.15"/>
<polygon fill="#63b8ff" stroke="#63b8ff" points="212.13,-60.44 220.57,-54.02 209.98,-53.78 212.13,-60.44"/>
</a>
</g>
</g>
<!-- Node4 -->
<g id="Node000004" class="node">
<title>Node4</title>
<g id="a_Node000004"><a xlink:href="classApp_1_1Controllers_1_1ApiController.html#a68f0af9a2dfcb25d955d8fdb3b79375a" target="_top" xlink:title="Verifica un token JWT recibido.">
<polygon fill="white" stroke="#666666" points="546,-174 388,-174 388,-144 546,-144 546,-174"/>
<text text-anchor="start" x="396" y="-162" font-family="Helvetica,sans-Serif" font-size="10.00">App\Controllers\ApiController</text>
<text text-anchor="middle" x="467" y="-151" font-family="Helvetica,sans-Serif" font-size="10.00">\verifyJwtToken</text>
</a>
</g>
</g>
<!-- Node3&#45;&gt;Node4 -->
<g id="edge3_Node000003_Node000004" class="edge">
<title>Node3&#45;&gt;Node4</title>
<g id="a_edge3_Node000003_Node000004"><a xlink:title=" ">
<path fill="none" stroke="#63b8ff" d="M352.09,-144.76C360.6,-145.83 369.3,-146.91 377.92,-147.99"/>
<polygon fill="#63b8ff" stroke="#63b8ff" points="377.62,-151.48 387.98,-149.25 378.49,-144.53 377.62,-151.48"/>
</a>
</g>
</g>
<!-- Node6 -->
<g id="Node000006" class="node">
<title>Node6</title>
<g id="a_Node000006"><a xlink:href="classApp_1_1Controllers_1_1ApiController.html#a28647c8018a767756a70c078ff3f42cd" target="_top" xlink:title="Genera un token JWT para el usuario autenticado.">
<polygon fill="white" stroke="#666666" points="546,-126 388,-126 388,-96 546,-96 546,-126"/>
<text text-anchor="start" x="396" y="-114" font-family="Helvetica,sans-Serif" font-size="10.00">App\Controllers\ApiController</text>
<text text-anchor="middle" x="467" y="-103" font-family="Helvetica,sans-Serif" font-size="10.00">\generateJwtToken</text>
</a>
</g>
</g>
<!-- Node5&#45;&gt;Node6 -->
<g id="edge5_Node000005_Node000006" class="edge">
<title>Node5&#45;&gt;Node6</title>
<g id="a_edge5_Node000005_Node000006"><a xlink:title=" ">
<path fill="none" stroke="#63b8ff" d="M352.09,-96.76C360.6,-97.83 369.3,-98.91 377.92,-99.99"/>
<polygon fill="#63b8ff" stroke="#63b8ff" points="377.62,-103.48 387.98,-101.25 378.49,-96.53 377.62,-103.48"/>
</a>
</g>
</g>
<!-- Node8 -->
<g id="Node000008" class="node">
<title>Node8</title>
<g id="a_Node000008"><a xlink:href="classApp_1_1Controllers_1_1ApiController.html#a11a918dc45f469f21cb20e4bd37f1385" target="_top" xlink:title="Autenticación de usuario.">
<polygon fill="white" stroke="#666666" points="546,-78 388,-78 388,-48 546,-48 546,-78"/>
<text text-anchor="start" x="396" y="-66" font-family="Helvetica,sans-Serif" font-size="10.00">App\Controllers\ApiController</text>
<text text-anchor="middle" x="467" y="-55" font-family="Helvetica,sans-Serif" font-size="10.00">\login</text>
</a>
</g>
</g>
<!-- Node5&#45;&gt;Node8 -->
<g id="edge7_Node000005_Node000008" class="edge">
<title>Node5&#45;&gt;Node8</title>
<g id="a_edge7_Node000005_Node000008"><a xlink:title=" ">
<path fill="none" stroke="#63b8ff" d="M352.09,-77.24C360.6,-76.17 369.3,-75.09 377.92,-74.01"/>
<polygon fill="#63b8ff" stroke="#63b8ff" points="378.49,-77.47 387.98,-72.75 377.62,-70.52 378.49,-77.47"/>
</a>
</g>
</g>
<!-- Node9 -->
<g id="Node000009" class="node">
<title>Node9</title>
<g id="a_Node000009"><a xlink:href="classApp_1_1Controllers_1_1ApiController.html#a148e8164c069528736151080114f05d3" target="_top" xlink:title="Validación de campos requeridos.">
<polygon fill="white" stroke="#666666" points="546,-30 388,-30 388,0 546,0 546,-30"/>
<text text-anchor="start" x="396" y="-18" font-family="Helvetica,sans-Serif" font-size="10.00">App\Controllers\ApiController</text>
<text text-anchor="middle" x="467" y="-7" font-family="Helvetica,sans-Serif" font-size="10.00">\validateRequiredFields</text>
</a>
</g>
</g>
<!-- Node5&#45;&gt;Node9 -->
<g id="edge8_Node000005_Node000009" class="edge">
<title>Node5&#45;&gt;Node9</title>
<g id="a_edge8_Node000005_Node000009"><a xlink:title=" ">
<path fill="none" stroke="#63b8ff" d="M330.14,-71.88C337.62,-69.25 345.09,-66.28 352,-63 369.37,-54.75 370.63,-47.25 388,-39 392,-37.1 396.18,-35.31 400.44,-33.63"/>
<polygon fill="#63b8ff" stroke="#63b8ff" points="401.71,-36.89 409.86,-30.12 399.26,-30.33 401.71,-36.89"/>
</a>
</g>
</g>
<!-- Node7 -->
<g id="Node000007" class="node">
<title>Node7</title>
<g id="a_Node000007"><a xlink:href="classApp_1_1Controllers_1_1ApiController.html#a04bb28eb734ab17814e5695e2056d5b1" target="_top" xlink:title="Codifica en Base64 URL seguro.">
<polygon fill="white" stroke="#666666" points="740,-126 582,-126 582,-96 740,-96 740,-126"/>
<text text-anchor="start" x="590" y="-114" font-family="Helvetica,sans-Serif" font-size="10.00">App\Controllers\ApiController</text>
<text text-anchor="middle" x="661" y="-103" font-family="Helvetica,sans-Serif" font-size="10.00">\base64URLEncode</text>
</a>
</g>
</g>
<!-- Node6&#45;&gt;Node7 -->
<g id="edge6_Node000006_Node000007" class="edge">
<title>Node6&#45;&gt;Node7</title>
<g id="a_edge6_Node000006_Node000007"><a xlink:title=" ">
<path fill="none" stroke="#63b8ff" d="M546.09,-111C554.6,-111 563.3,-111 571.92,-111"/>
<polygon fill="#63b8ff" stroke="#63b8ff" points="571.98,-114.5 581.98,-111 571.98,-107.5 571.98,-114.5"/>
</a>
</g>
</g>
</g>
</svg>
