<?xml version="1.0" encoding="UTF-8" standalone="no"?>
<!DOCTYPE svg PUBLIC "-//W3C//DTD SVG 1.1//EN"
 "http://www.w3.org/Graphics/SVG/1.1/DTD/svg11.dtd">
<!-- Generated by graphviz version 2.43.0 (0)
 -->
<!-- Title: App\Controllers\SessionController\getSecretKey Pages: 1 -->
<svg width="836pt" height="110pt"
 viewBox="0.00 0.00 836.00 110.00" xmlns="http://www.w3.org/2000/svg" xmlns:xlink="http://www.w3.org/1999/xlink">
<g id="graph0" class="graph" transform="scale(1 1) rotate(0) translate(4 106)">
<title>App\Controllers\SessionController\getSecretKey</title>
<!-- Node1 -->
<g id="Node000001" class="node">
<title>Node1</title>
<g id="a_Node000001"><a xlink:title="Obtiene la clave secreta para JWT.">
<polygon fill="#999999" stroke="#666666" points="828,-78 648,-78 648,-48 828,-48 828,-78"/>
<text text-anchor="start" x="656" y="-66" font-family="Helvetica,sans-Serif" font-size="10.00">App\Controllers\SessionController</text>
<text text-anchor="middle" x="738" y="-55" font-family="Helvetica,sans-Serif" font-size="10.00">\getSecretKey</text>
</a>
</g>
</g>
<!-- Node2 -->
<g id="Node000002" class="node">
<title>Node2</title>
<g id="a_Node000002"><a xlink:href="classApp_1_1Controllers_1_1SessionController.html#a9c77e52cb1354b1771887b0c16ad2707" target="_top" xlink:title="Crea un JWT para el usuario.">
<polygon fill="white" stroke="#666666" points="612,-102 432,-102 432,-72 612,-72 612,-102"/>
<text text-anchor="start" x="440" y="-90" font-family="Helvetica,sans-Serif" font-size="10.00">App\Controllers\SessionController</text>
<text text-anchor="middle" x="522" y="-79" font-family="Helvetica,sans-Serif" font-size="10.00">\createJWT</text>
</a>
</g>
</g>
<!-- Node1&#45;&gt;Node2 -->
<g id="edge1_Node000001_Node000002" class="edge">
<title>Node1&#45;&gt;Node2</title>
<g id="a_edge1_Node000001_Node000002"><a xlink:title=" ">
<path fill="none" stroke="#63b8ff" d="M637.77,-74.13C629.19,-75.09 620.55,-76.06 612.06,-77.01"/>
<polygon fill="#63b8ff" stroke="#63b8ff" points="638.25,-77.6 647.79,-73 637.47,-70.64 638.25,-77.6"/>
</a>
</g>
</g>
<!-- Node4 -->
<g id="Node000004" class="node">
<title>Node4</title>
<g id="a_Node000004"><a xlink:href="classApp_1_1Controllers_1_1SessionController.html#ab38acc8d3f11ff8c05f466c64100d1bc" target="_top" xlink:title=" ">
<polygon fill="white" stroke="#666666" points="612,-54 432,-54 432,-24 612,-24 612,-54"/>
<text text-anchor="start" x="440" y="-42" font-family="Helvetica,sans-Serif" font-size="10.00">App\Controllers\SessionController</text>
<text text-anchor="middle" x="522" y="-31" font-family="Helvetica,sans-Serif" font-size="10.00">\verifyJWTCookie</text>
</a>
</g>
</g>
<!-- Node1&#45;&gt;Node4 -->
<g id="edge3_Node000001_Node000004" class="edge">
<title>Node1&#45;&gt;Node4</title>
<g id="a_edge3_Node000001_Node000004"><a xlink:title=" ">
<path fill="none" stroke="#63b8ff" d="M637.77,-51.87C629.19,-50.91 620.55,-49.94 612.06,-48.99"/>
<polygon fill="#63b8ff" stroke="#63b8ff" points="637.47,-55.36 647.79,-53 638.25,-48.4 637.47,-55.36"/>
</a>
</g>
</g>
<!-- Node3 -->
<g id="Node000003" class="node">
<title>Node3</title>
<g id="a_Node000003"><a xlink:href="classApp_1_1Controllers_1_1SessionController.html#a58a314410d1412f289fa012306ebac8c" target="_top" xlink:title="Autentica un usuario y crea su sesión.">
<polygon fill="white" stroke="#666666" points="396,-102 216,-102 216,-72 396,-72 396,-102"/>
<text text-anchor="start" x="224" y="-90" font-family="Helvetica,sans-Serif" font-size="10.00">App\Controllers\SessionController</text>
<text text-anchor="middle" x="306" y="-79" font-family="Helvetica,sans-Serif" font-size="10.00">\userLogin</text>
</a>
</g>
</g>
<!-- Node2&#45;&gt;Node3 -->
<g id="edge2_Node000002_Node000003" class="edge">
<title>Node2&#45;&gt;Node3</title>
<g id="a_edge2_Node000002_Node000003"><a xlink:title=" ">
<path fill="none" stroke="#63b8ff" d="M421.77,-87C413.19,-87 404.55,-87 396.06,-87"/>
<polygon fill="#63b8ff" stroke="#63b8ff" points="421.79,-90.5 431.79,-87 421.79,-83.5 421.79,-90.5"/>
</a>
</g>
</g>
<!-- Node5 -->
<g id="Node000005" class="node">
<title>Node5</title>
<g id="a_Node000005"><a xlink:href="classApp_1_1Controllers_1_1SessionController.html#a85371c29c7f51815ccc851826b8cb288" target="_top" xlink:title="Verifica si el usuario tiene sesión activa.">
<polygon fill="white" stroke="#666666" points="396,-54 216,-54 216,-24 396,-24 396,-54"/>
<text text-anchor="start" x="224" y="-42" font-family="Helvetica,sans-Serif" font-size="10.00">App\Controllers\SessionController</text>
<text text-anchor="middle" x="306" y="-31" font-family="Helvetica,sans-Serif" font-size="10.00">\isLoggedIn</text>
</a>
</g>
</g>
<!-- Node4&#45;&gt;Node5 -->
<g id="edge4_Node000004_Node000005" class="edge">
<title>Node4&#45;&gt;Node5</title>
<g id="a_edge4_Node000004_Node000005"><a xlink:title=" ">
<path fill="none" stroke="#63b8ff" d="M421.77,-39C413.19,-39 404.55,-39 396.06,-39"/>
<polygon fill="#63b8ff" stroke="#63b8ff" points="421.79,-42.5 431.79,-39 421.79,-35.5 421.79,-42.5"/>
</a>
</g>
</g>
<!-- Node6 -->
<g id="Node000006" class="node">
<title>Node6</title>
<g id="a_Node000006"><a xlink:href="classApp_1_1Controllers_1_1SessionController.html#a7fc8763bff5246f1b5c90bfb73d616b1" target="_top" xlink:title="Obtiene los datos del usuario actual de la sesión.">
<polygon fill="white" stroke="#666666" points="180,-78 0,-78 0,-48 180,-48 180,-78"/>
<text text-anchor="start" x="8" y="-66" font-family="Helvetica,sans-Serif" font-size="10.00">App\Controllers\SessionController</text>
<text text-anchor="middle" x="90" y="-55" font-family="Helvetica,sans-Serif" font-size="10.00">\getUserData</text>
</a>
</g>
</g>
<!-- Node5&#45;&gt;Node6 -->
<g id="edge5_Node000005_Node000006" class="edge">
<title>Node5&#45;&gt;Node6</title>
<g id="a_edge5_Node000005_Node000006"><a xlink:title=" ">
<path fill="none" stroke="#63b8ff" d="M205.77,-50.13C197.19,-51.09 188.55,-52.06 180.06,-53.01"/>
<polygon fill="#63b8ff" stroke="#63b8ff" points="206.25,-53.6 215.79,-49 205.47,-46.64 206.25,-53.6"/>
</a>
</g>
</g>
<!-- Node7 -->
<g id="Node000007" class="node">
<title>Node7</title>
<g id="a_Node000007"><a xlink:href="classApp_1_1Controllers_1_1SessionController.html#ae8ab9c638b48981d1c7040aebc7f1fb1" target="_top" xlink:title="Verifica si el usuario actual tiene permisos de administrador.">
<polygon fill="white" stroke="#666666" points="180,-30 0,-30 0,0 180,0 180,-30"/>
<text text-anchor="start" x="8" y="-18" font-family="Helvetica,sans-Serif" font-size="10.00">App\Controllers\SessionController</text>
<text text-anchor="middle" x="90" y="-7" font-family="Helvetica,sans-Serif" font-size="10.00">\isAdmin</text>
</a>
</g>
</g>
<!-- Node5&#45;&gt;Node7 -->
<g id="edge6_Node000005_Node000007" class="edge">
<title>Node5&#45;&gt;Node7</title>
<g id="a_edge6_Node000005_Node000007"><a xlink:title=" ">
<path fill="none" stroke="#63b8ff" d="M205.77,-27.87C197.19,-26.91 188.55,-25.94 180.06,-24.99"/>
<polygon fill="#63b8ff" stroke="#63b8ff" points="205.47,-31.36 215.79,-29 206.25,-24.4 205.47,-31.36"/>
</a>
</g>
</g>
</g>
</svg>
