<?xml version="1.0" encoding="UTF-8" standalone="no"?>
<!DOCTYPE svg PUBLIC "-//W3C//DTD SVG 1.1//EN"
 "http://www.w3.org/Graphics/SVG/1.1/DTD/svg11.dtd">
<!-- Generated by graphviz version 2.43.0 (0)
 -->
<!-- Title: renderTemplate Pages: 1 -->
<svg width="722pt" height="81pt"
 viewBox="0.00 0.00 722.00 81.00" xmlns="http://www.w3.org/2000/svg" xmlns:xlink="http://www.w3.org/1999/xlink">
<g id="graph0" class="graph" transform="scale(1 1) rotate(0) translate(4 77)">
<title>renderTemplate</title>
<!-- Node1 -->
<g id="Node000001" class="node">
<title>Node1</title>
<g id="a_Node000001"><a xlink:title="Renderiza una plantilla con los datos proporcionados.">
<polygon fill="#999999" stroke="#666666" points="714,-45.5 621,-45.5 621,-26.5 714,-26.5 714,-45.5"/>
<text text-anchor="middle" x="667.5" y="-33.5" font-family="Helvetica,sans-Serif" font-size="10.00">renderTemplate</text>
</a>
</g>
</g>
<!-- Node2 -->
<g id="Node000002" class="node">
<title>Node2</title>
<g id="a_Node000002"><a xlink:href="classApp_1_1Controllers_1_1RouteController.html#a2bbf8018284952d53e25713fac3bb798" target="_top" xlink:title="Procesa rutas que coinciden con patrones de expresiones regulares.">
<polygon fill="white" stroke="#666666" points="378,-73 207,-73 207,-43 378,-43 378,-73"/>
<text text-anchor="start" x="215" y="-61" font-family="Helvetica,sans-Serif" font-size="10.00">App\Controllers\RouteController</text>
<text text-anchor="middle" x="292.5" y="-50" font-family="Helvetica,sans-Serif" font-size="10.00">\processPatternRoutes</text>
</a>
</g>
</g>
<!-- Node1&#45;&gt;Node2 -->
<g id="edge1_Node000001_Node000002" class="edge">
<title>Node1&#45;&gt;Node2</title>
<g id="a_edge1_Node000001_Node000002"><a xlink:title=" ">
<path fill="none" stroke="#63b8ff" d="M610.48,-39.3C548.95,-42.93 449.44,-48.8 378.33,-53"/>
<polygon fill="#63b8ff" stroke="#63b8ff" points="610.99,-42.78 620.76,-38.7 610.57,-35.79 610.99,-42.78"/>
</a>
</g>
</g>
<!-- Node4 -->
<g id="Node000004" class="node">
<title>Node4</title>
<g id="a_Node000004"><a xlink:href="classApp_1_1Controllers_1_1RouteController.html#a1ab0ab07cd77cb1c6c62390f0ed7fae3" target="_top" xlink:title="Procesa una ruta específica y maneja las redirecciones, autenticación y renderizado.">
<polygon fill="white" stroke="#666666" points="585,-30 414,-30 414,0 585,0 585,-30"/>
<text text-anchor="start" x="422" y="-18" font-family="Helvetica,sans-Serif" font-size="10.00">App\Controllers\RouteController</text>
<text text-anchor="middle" x="499.5" y="-7" font-family="Helvetica,sans-Serif" font-size="10.00">\processRoute</text>
</a>
</g>
</g>
<!-- Node1&#45;&gt;Node4 -->
<g id="edge3_Node000001_Node000004" class="edge">
<title>Node1&#45;&gt;Node4</title>
<g id="a_edge3_Node000001_Node000004"><a xlink:title=" ">
<path fill="none" stroke="#63b8ff" d="M610.52,-28.92C602.29,-27.88 593.66,-26.79 585.01,-25.69"/>
<polygon fill="#63b8ff" stroke="#63b8ff" points="610.34,-32.42 620.7,-30.21 611.22,-25.48 610.34,-32.42"/>
</a>
</g>
</g>
<!-- Node3 -->
<g id="Node000003" class="node">
<title>Node3</title>
<g id="a_Node000003"><a xlink:href="classApp_1_1Controllers_1_1RouteController.html#ad2c6f268a1417fb7d8ab3f7305f49dec" target="_top" xlink:title="Maneja la solicitud de ruta actual.">
<polygon fill="white" stroke="#666666" points="171,-51 0,-51 0,-21 171,-21 171,-51"/>
<text text-anchor="start" x="8" y="-39" font-family="Helvetica,sans-Serif" font-size="10.00">App\Controllers\RouteController</text>
<text text-anchor="middle" x="85.5" y="-28" font-family="Helvetica,sans-Serif" font-size="10.00">\handleRequest</text>
</a>
</g>
</g>
<!-- Node2&#45;&gt;Node3 -->
<g id="edge2_Node000002_Node000003" class="edge">
<title>Node2&#45;&gt;Node3</title>
<g id="a_edge2_Node000002_Node000003"><a xlink:title=" ">
<path fill="none" stroke="#63b8ff" d="M196.91,-47.85C188.34,-46.93 179.69,-46 171.2,-45.09"/>
<polygon fill="#63b8ff" stroke="#63b8ff" points="196.62,-51.34 206.94,-48.92 197.37,-44.38 196.62,-51.34"/>
</a>
</g>
</g>
<!-- Node4&#45;&gt;Node2 -->
<g id="edge5_Node000004_Node000002" class="edge">
<title>Node4&#45;&gt;Node2</title>
<g id="a_edge5_Node000004_Node000002"><a xlink:title=" ">
<path fill="none" stroke="#63b8ff" d="M416.85,-32.13C399.75,-35.71 381.85,-39.47 365.16,-42.97"/>
<polygon fill="#63b8ff" stroke="#63b8ff" points="417.73,-35.52 426.8,-30.04 416.3,-28.67 417.73,-35.52"/>
</a>
</g>
</g>
<!-- Node4&#45;&gt;Node3 -->
<g id="edge4_Node000004_Node000003" class="edge">
<title>Node4&#45;&gt;Node3</title>
<g id="a_edge4_Node000004_Node000003"><a xlink:title=" ">
<path fill="none" stroke="#63b8ff" d="M403.47,-19.84C333.36,-23.42 238.81,-28.24 171.26,-31.68"/>
<polygon fill="#63b8ff" stroke="#63b8ff" points="403.82,-23.33 413.63,-19.33 403.47,-16.34 403.82,-23.33"/>
</a>
</g>
</g>
</g>
</svg>
