<svg width="57" height="68" viewBox="0 0 57 68" fill="none" xmlns="http://www.w3.org/2000/svg">
<path d="M1.67973 1.66992H55.3202V22.0524C55.3202 40.5414 45.0177 57.5825 28.444 66.2701C11.9823 57.5825 1.56775 40.6528 1.56775 22.0524V1.66992H1.67973Z" fill="#EEACA4"/>
<path d="M28.556 67.9416C28.332 67.9416 27.996 67.8302 27.7721 67.7188C10.6385 58.8085 0 41.3218 0 22.0531V1.6707C0 0.779658 0.78389 0 1.67976 0H55.3202C56.2161 0 57 0.779658 57 1.6707V22.0531C57 41.3218 46.3615 58.8085 29.2279 67.7188C29.004 67.8302 28.78 67.9416 28.556 67.9416ZM3.35952 3.34139V22.0531C3.35952 39.7625 12.9902 55.9125 28.556 64.3774C44.1218 55.9125 53.7525 39.7625 53.7525 22.0531V3.34139H3.35952Z" fill="#DD6B54"/>
<path d="M55.3202 8.91016H1.56775V12.2515H55.3202V8.91016Z" fill="#DD6B54"/>
<path d="M29.2932 16.0291C29.3088 16.1692 29.4235 17.031 29.5383 17.955C29.6582 18.8791 29.7469 19.6473 29.7313 19.6578C29.7208 19.6681 29.4183 19.6111 29.0637 19.528C27.6138 19.1854 25.9293 18.8999 24.7139 18.796C22.4401 18.6039 20.7972 18.9466 20.2652 19.7304C20.0148 20.099 19.947 19.9381 21.3656 22.3001C21.642 22.757 21.8559 23.136 21.8454 23.1515C21.8298 23.1618 21.2458 23.058 20.5416 22.923C19.8428 22.7828 19.2533 22.6843 19.2377 22.6998C19.2222 22.7155 19.243 23.4007 19.2899 24.2261C19.3316 25.0515 19.4047 26.3804 19.4464 27.1746C19.4933 27.969 19.5142 28.6387 19.4933 28.6542C19.4203 28.7269 17.5114 28.6802 17.0421 28.5919C15.6705 28.3375 14.622 27.7301 13.965 26.8061C13.6729 26.4064 13.3496 25.716 13.2609 25.3163L13.1931 25.0151L12.9167 25.0358C12.7654 25.0515 12.6245 25.0723 12.6089 25.093C12.5828 25.119 13.266 32.8123 13.3496 33.4302L13.3808 33.6585L13.0365 33.6222C12.2803 33.5444 10.9087 33.1238 10.1055 32.719C9.51619 32.4231 8.81725 31.9194 8.31135 31.4315C7.89933 31.0317 7.79509 30.954 7.77424 31.0317C7.75849 31.0837 7.73765 32.5321 7.7273 34.2452L7.71155 37.3703L7.92018 37.6663C8.69726 38.7927 10.7366 39.5402 13.9075 39.8569C15.0341 39.9659 18.3042 39.9816 19.7333 39.8829C24.0412 39.5818 28.9803 38.8602 34.399 37.7338L35.4266 37.5208L36.7618 37.8271C37.497 37.9933 38.1177 38.1438 38.1438 38.1593C38.1646 38.175 38.2116 38.4397 38.2429 38.7564C38.2743 39.0679 38.3159 39.3897 38.3315 39.4727L38.3629 39.6129L40.3499 39.6026L42.3422 39.5869L42.3735 38.5227H45.8627L45.9149 38.4033C45.941 38.341 46.0817 37.7388 46.2225 37.0692C46.3686 36.3995 46.5667 35.4703 46.6711 35.0083C46.7701 34.5463 46.8537 34.1569 46.8537 34.1414C46.8537 34.1257 46.9579 34.1102 47.0882 34.1102C47.3699 34.1102 47.3438 34.1466 47.6829 33.1705C47.8236 32.7605 48.0844 32.0129 48.2617 31.5146C49.2735 28.649 49.2579 28.7062 49.1954 28.5089C49.0963 28.2182 48.7259 27.8651 48.3192 27.6783C47.8236 27.4498 47.3074 27.3563 46.5303 27.346C45.8991 27.3356 45.8627 27.3304 45.8679 27.2318C45.8679 27.1746 45.9357 26.5569 46.0139 25.8562C46.1025 25.0463 46.1391 24.5636 46.1078 24.5219C46.0347 24.4181 45.2212 23.9664 44.8717 23.8264C44.5692 23.7069 44.5589 23.6965 44.5223 23.4682C44.5014 23.3384 44.4806 22.8245 44.4806 22.3261C44.4806 21.3189 44.5328 21.0334 44.8353 20.3793C44.9239 20.182 44.9917 19.9745 44.9812 19.9173C44.9448 19.6889 44.71 19.3203 44.4702 19.1074C43.1454 17.9447 40.0891 18.0537 35.7447 19.4138C35.4735 19.5021 35.2441 19.5591 35.2283 19.5488C35.2127 19.528 35.5047 16.2574 35.5569 15.8992L35.5725 15.7852H29.2618L29.2932 16.0291ZM34.858 16.5638C34.858 16.6469 34.832 16.9428 34.8059 17.2231C34.7746 17.5033 34.6129 19.1801 34.4409 20.9504C34.2687 22.7206 34.1123 24.2831 34.0967 24.4233L34.0653 24.6776L32.6728 24.6466C31.9113 24.631 31.2229 24.5998 31.1499 24.5843C31.0195 24.5479 31.0143 24.5376 30.9048 23.6602C30.8421 23.167 30.7326 22.3208 30.6596 21.7809C30.5918 21.2359 30.4145 19.8706 30.2736 18.7441C30.1277 17.6176 29.9972 16.6313 29.9816 16.5482L29.9608 16.4081H34.858V16.5638ZM42.8378 19.0349C43.3437 19.1334 43.9225 19.4138 44.1624 19.6786L44.3502 19.8861L44.2667 20.0835C43.9225 20.8673 43.8077 21.5734 43.8391 22.6687C43.8599 23.385 43.8547 23.4682 43.7818 23.4474C43.6565 23.4059 42.895 23.2709 42.6239 23.2345L42.384 23.2034L42.3474 22.622C42.2797 21.5162 42.1544 20.9867 41.8885 20.6908C41.5756 20.3326 41.1375 20.3482 40.6002 20.7427C40.4386 20.8622 39.8545 21.3969 39.2964 21.9263C38.7436 22.461 38.1229 23.032 37.9195 23.2034C36.8764 24.0444 35.7812 24.5998 34.9676 24.6985L34.686 24.7296L34.7173 24.5011C34.7382 24.3766 34.8371 23.3955 34.9363 22.3261C35.0407 21.2567 35.1344 20.3535 35.1449 20.317C35.171 20.234 36.5635 19.7979 37.7265 19.5021C39.8857 18.9569 41.6068 18.8012 42.8378 19.0349ZM25.6737 19.5228C26.7845 19.6681 29.7313 20.2651 29.8304 20.3638C29.8564 20.395 30.3831 24.4596 30.3623 24.4804C30.2894 24.5531 25.5954 23.8574 23.0972 23.4059L22.7321 23.3384L21.7517 21.7134C20.7868 20.1146 20.7711 20.0835 20.865 19.9796C21.0788 19.7408 21.6942 19.5228 22.4244 19.4241C22.9772 19.3463 24.7558 19.3981 25.6737 19.5228ZM41.5599 21.4124C41.6487 21.7031 41.7737 22.9957 41.7268 23.1152C41.706 23.1722 41.5599 23.1982 41.1322 23.2242C40.256 23.276 39.1503 23.5045 38.441 23.7849C38.3002 23.8419 38.1595 23.8782 38.1385 23.8731C38.1126 23.8627 38.2376 23.7381 38.4149 23.5979C38.5924 23.4525 39.1764 22.9127 39.7137 22.3988C40.715 21.4332 40.9236 21.2514 41.1948 21.1114C41.3878 21.0075 41.4556 21.0646 41.5599 21.4124ZM21.7098 23.7797C24.4427 24.2884 27.4312 24.7711 29.1367 24.9788C29.4132 25.01 29.6426 25.0515 29.6426 25.0723C29.6426 25.119 27.6816 26.0897 26.748 26.505C24.5627 27.481 22.5861 28.135 20.7763 28.4829C20.1401 28.6022 20.1662 28.6127 20.1296 28.1765C20.114 27.9742 20.0618 27.0761 20.0201 26.1935C19.9784 25.3058 19.9262 24.3196 19.9053 23.9924C19.874 23.437 19.8792 23.4007 19.9679 23.437C20.0201 23.4525 20.8024 23.6082 21.7098 23.7797ZM43.3071 23.9769C43.9382 24.1274 44.3502 24.2728 44.9656 24.5686L45.5029 24.8283L45.4768 25.0203C45.461 25.1241 45.3985 25.6745 45.3412 26.2454C45.2837 26.8164 45.2264 27.3096 45.2107 27.346C45.2003 27.3771 45.0804 27.4238 44.9395 27.4395C44.3919 27.5121 43.0828 27.7925 42.3266 27.995C41.6538 28.1765 41.5182 28.1974 41.4765 28.135C41.3982 28.0105 41.0228 26.8009 40.8297 26.0637C40.6368 25.3058 40.4177 24.0704 40.4594 23.9561C40.496 23.8574 40.7619 23.8419 41.8729 23.8574C42.6395 23.8679 42.9628 23.899 43.3071 23.9769ZM39.8388 24.2572C40.0526 25.6588 40.2718 26.5362 40.7985 28.1247C41.4139 29.9728 41.6746 30.9643 41.8676 32.2154C42.1232 33.8402 42.1127 34.8161 41.8259 37.6143C41.779 38.04 41.7373 38.5227 41.7321 38.6785L41.7165 38.964L40.3186 38.9796C39.2286 38.99 38.9208 38.9796 38.9 38.9277C38.8635 38.8082 37.3614 25.2798 37.3614 25.0411C37.3614 24.9373 37.4241 24.8906 37.7161 24.7608C38.3629 24.4649 39.5103 24.0599 39.745 24.0444C39.7762 24.0392 39.8179 24.1379 39.8388 24.2572ZM36.7043 24.9321C36.7199 24.9996 36.793 25.633 36.866 26.3492C36.9391 27.0606 37.2102 29.5263 37.4711 31.8261C37.7265 34.1257 37.9717 36.3269 38.0187 36.7266C38.0604 37.1211 38.0865 37.4534 38.076 37.4638C38.0499 37.4896 35.9429 37.0121 35.8907 36.9706C35.8698 36.9549 35.9117 36.6227 35.9794 36.2387C36.1776 35.1018 36.2298 34.4424 36.1984 33.5235C36.1567 32.1739 35.995 31.7534 35.2441 31.0162C33.9036 29.6976 32.2347 29.0591 30.1381 29.0591C29.1628 29.0591 28.37 29.1577 27.3165 29.4121C25.5224 29.8378 23.9682 30.4711 21.2717 31.8676C19.1491 32.9681 17.355 33.5184 15.3522 33.6949C14.6065 33.7572 14.0641 33.7624 14.0275 33.7002C13.9963 33.6534 13.4226 27.5693 13.4226 27.3148C13.4226 27.1954 13.4538 27.2163 13.7458 27.5328C14.1736 28.0053 14.6429 28.3532 15.274 28.6646C17.6105 29.8066 21.0422 29.4744 25.5745 27.673C26.894 27.1436 27.7024 26.7749 29.3454 25.9495L30.6909 25.2695L32.0313 25.3163C32.7667 25.3422 33.7472 25.3578 34.2062 25.3525C35.1188 25.3473 35.4996 25.2747 36.2245 24.9788C36.6887 24.7919 36.6782 24.7919 36.7043 24.9321ZM47.0518 27.9845C47.6933 28.0675 48.1053 28.213 48.3714 28.4465L48.6009 28.649L48.2775 29.5783C48.1 30.087 47.7246 31.1667 47.4377 31.9818L46.9162 33.4613L44.7778 33.4769L42.6447 33.4872L42.603 33.0615C42.5561 32.4958 42.3944 31.5249 42.2327 30.7878C42.1076 30.2478 41.8051 29.1319 41.7165 28.9086C41.6746 28.8099 41.9041 28.7321 43.1506 28.4257C44.8039 28.0208 46.1391 27.8703 47.0518 27.9845ZM31.468 29.7756C32.6415 29.9676 33.6116 30.4245 34.5556 31.2239C35.39 31.9299 35.5361 32.2776 35.5778 33.5962C35.5934 34.2296 35.5778 34.6449 35.51 35.1485C35.4057 35.9687 35.2388 36.8667 35.1866 36.9187C35.1449 36.9499 32.4068 37.5053 30.9987 37.77C26.8992 38.5227 23.2276 39.0107 19.7333 39.2599C18.5441 39.3429 15.0654 39.3429 14.1788 39.2599C11.1487 38.9692 9.09368 38.284 8.45218 37.3391L8.32184 37.1471L8.34794 34.7696C8.36354 33.4665 8.39489 32.3971 8.41049 32.3971C8.43134 32.3971 8.56692 32.4906 8.72336 32.6048C10.2307 33.7312 12.8384 34.4632 14.909 34.3439C17.3811 34.2036 19.4359 33.5652 22.2054 32.0961C23.9629 31.1615 25.7257 30.4503 27.2643 30.061C27.9319 29.8949 28.4795 29.8015 29.5383 29.6769C29.8616 29.6406 30.9568 29.6976 31.468 29.7756ZM46.2069 34.1984C46.1913 34.2504 46.0244 35.0135 45.8366 35.9012C45.6436 36.7837 45.4663 37.5988 45.4402 37.7026L45.3881 37.8998H43.9069C42.7334 37.8998 42.4205 37.8843 42.4205 37.8323C42.4205 37.796 42.4413 37.5831 42.4727 37.3548C42.5666 36.5864 42.6813 35.1276 42.6813 34.6138V34.1102H44.4597C46.1235 34.1102 46.233 34.1154 46.2069 34.1984Z" fill="#DD6B54"/>
<path d="M14.9525 39.8646C11.5029 39.7324 8.97247 38.9655 8.01567 37.7623L7.71155 37.3798L7.712 35.5282C7.71215 34.5098 7.74203 33.0982 7.77822 32.3913L7.84404 31.1059L8.32842 31.5572C9.01033 32.1925 9.9324 32.7631 10.8364 33.1092C11.6404 33.417 13.2412 33.8009 13.3343 33.7082C13.3636 33.679 13.2514 32.162 13.085 30.3372C12.6246 25.2899 12.6222 25.2476 12.7858 25.1445C13.0355 24.987 13.1536 25.0451 13.2161 25.3564C13.5093 26.8167 14.9496 28.1717 16.6236 28.5621C17.2483 28.7078 19.2787 28.8141 19.4319 28.7091C19.5302 28.6417 19.5234 28.012 19.3995 25.7186C19.3133 24.1207 19.2572 22.8001 19.275 22.7838C19.2928 22.7676 19.877 22.859 20.5732 22.987C21.2695 23.115 21.8554 23.2036 21.8752 23.1838C21.8951 23.164 21.5937 22.6118 21.2055 21.9565C20.0084 19.9361 20.0029 19.9133 20.6054 19.4675C21.1157 19.0898 21.857 18.8926 23.0038 18.8295C24.3058 18.7578 25.6418 18.901 27.9557 19.3604C28.9247 19.5527 29.7341 19.6936 29.7545 19.6733C29.7923 19.6356 29.4204 16.5102 29.3292 16.1L29.2788 15.873H32.3841H35.4894L35.4231 16.6548C35.3866 17.0847 35.3148 17.9125 35.2636 18.4942C35.2123 19.0759 35.1847 19.5661 35.2021 19.5834C35.2195 19.6008 35.79 19.454 36.4699 19.2572C38.7877 18.5863 39.5921 18.4558 41.4454 18.4503L43.1264 18.4452L43.8122 18.7983C44.3255 19.0625 44.5574 19.2528 44.7342 19.5548L44.9704 19.9583L44.7524 20.4122C44.5624 20.8078 44.5338 21.0472 44.5293 22.2755L44.5242 23.6848L45.2331 24.0712C45.623 24.2837 45.9792 24.4944 46.0246 24.5395C46.098 24.6124 45.9801 26.1739 45.8354 27.0444C45.781 27.3717 45.7816 27.3722 46.216 27.373C46.8629 27.3742 47.9009 27.5611 48.2595 27.7412C48.7418 27.9833 49.1321 28.3923 49.1321 28.6555C49.1321 28.9341 47.4578 33.8009 47.2946 33.9968C47.2333 34.0704 47.0976 34.1305 46.993 34.1305C46.8884 34.1305 46.8029 34.1523 46.8029 34.1788C46.8029 34.2053 46.5978 35.162 46.3471 36.3048C46.0965 37.4475 45.8914 38.4017 45.8914 38.4252C45.8914 38.4487 45.0939 38.468 44.1191 38.468H42.3469V39.0228V39.5775H40.3766H38.4064L38.3488 39.1993C38.3171 38.9912 38.2581 38.6636 38.2176 38.4712L38.144 38.1214L36.7768 37.8103L35.4096 37.4991L34.3324 37.7291C32.4321 38.1349 28.2828 38.8599 26.0925 39.1689C21.5534 39.8091 18.4927 40.0003 14.9525 39.8646ZM22.1935 39.1345C25.8276 38.7301 28.6473 38.2947 32.507 37.5421C34.9955 37.0569 35.1805 37.006 35.2658 36.7825C35.4651 36.2603 35.6734 34.1767 35.6065 33.374C35.4943 32.0276 35.1962 31.5711 33.8524 30.6878C32.2566 29.639 30.2533 29.4027 27.6202 29.9528C26.287 30.2313 24.7863 30.812 22.2948 32.0133C18.4731 33.856 17.0838 34.258 14.4968 34.2694C13.3 34.2746 12.8628 34.2344 12.1331 34.0516C10.9519 33.7558 9.90246 33.3299 9.08042 32.8128C8.71218 32.5812 8.39647 32.4084 8.37885 32.4289C8.36122 32.4494 8.31624 33.5357 8.27888 34.8428L8.21096 37.2195L8.58934 37.6075C9.27177 38.3074 10.8447 38.8795 12.8765 39.1669C13.2942 39.226 13.7499 39.2934 13.8892 39.3168C14.5392 39.4257 20.8143 39.2881 22.1935 39.1345ZM41.7837 38.5436C42.2728 34.1646 42.147 32.3598 41.1206 29.0349C40.419 26.7622 40.0456 25.3617 39.9607 24.6843C39.9209 24.3676 39.8325 24.1061 39.7552 24.0765C39.6095 24.0208 38.271 24.4456 37.6883 24.7325C37.3642 24.8921 37.3357 24.9414 37.3564 25.3075C37.3903 25.9087 38.8073 38.8014 38.8555 38.9471C38.8862 39.04 39.2697 39.0732 40.3109 39.0732H41.7246L41.7837 38.5436ZM45.8361 36.1732C46.0478 35.1884 46.2429 34.326 46.2696 34.2566C46.3073 34.1586 45.9097 34.1306 44.4844 34.1306H42.6506L42.6446 34.6601C42.6413 34.9514 42.5804 35.7798 42.5093 36.501C42.4382 37.2222 42.398 37.8464 42.42 37.888C42.442 37.9296 43.1331 37.9636 43.9556 37.9636H45.4512L45.8361 36.1732ZM38.0961 37.3332C38.0976 37.2084 37.7928 34.3487 37.4188 30.9784C36.8418 25.7795 36.7148 24.8505 36.5805 24.8505C36.4935 24.8506 36.1717 24.9517 35.8654 25.0752C35.3382 25.2877 35.182 25.2985 32.9515 25.2774L30.5946 25.2551L28.9006 26.0995C22.7168 29.1815 18.2506 30.0177 15.3362 28.6392C14.9085 28.4369 14.3595 28.0668 14.0384 27.7643C13.7323 27.4759 13.4519 27.2698 13.4154 27.3062C13.3491 27.3722 13.8492 33.1578 13.9607 33.6149C14.0189 33.8535 14.028 33.8551 14.9664 33.7894C17.2324 33.6307 18.5995 33.2053 21.7885 31.6666C23.0974 31.0349 24.6241 30.3498 25.1811 30.144C29.4324 28.5732 32.7725 28.8412 35.0209 30.9337C35.9723 31.8191 36.1119 32.1818 36.1156 33.7775C36.1172 34.4987 36.0548 35.5096 35.977 36.0238C35.8991 36.538 35.8642 36.9874 35.8994 37.0225C35.9512 37.0741 37.7382 37.5206 38.0174 37.5517C38.0592 37.5563 38.0946 37.458 38.0961 37.3332ZM47.8141 31.0905L48.6642 28.6557L48.3902 28.4209C48.2394 28.2918 47.9232 28.1324 47.6873 28.0667C47.1472 27.9163 45.5401 27.9203 44.6761 28.0743C43.6923 28.2497 41.906 28.692 41.7848 28.7903C41.7124 28.849 41.7865 29.3039 42.0172 30.2174C42.2035 30.9549 42.4094 32.0009 42.4749 32.5419L42.5938 33.5253H44.7789H46.964L47.8141 31.0905ZM21.8956 28.2874C23.9038 27.7817 26.4989 26.7667 28.806 25.5845C29.2957 25.3335 29.6734 25.1052 29.6452 25.0771C29.6169 25.049 28.5782 24.874 27.3368 24.6882C26.0955 24.5025 23.9261 24.1407 22.516 23.8842C21.106 23.6277 19.9242 23.4458 19.89 23.48C19.8193 23.5503 20.048 28.3699 20.1281 28.499C20.2196 28.6464 20.6964 28.5894 21.8956 28.2874ZM42.6338 27.9847C43.0608 27.8778 43.8131 27.7119 44.3055 27.6161C44.7979 27.5203 45.2191 27.3922 45.2413 27.3314C45.2636 27.2707 45.3428 26.6816 45.4173 26.0225L45.5527 24.8241L44.8359 24.4874C43.7529 23.9788 43.0805 23.8418 41.6673 23.8418H40.4226V24.0828C40.4226 24.6646 41.166 27.7258 41.3981 28.0998C41.4754 28.2245 41.7957 28.1947 42.6338 27.9847ZM34.4822 20.9418C34.6876 18.8475 34.855 16.9637 34.8542 16.7557L34.8526 16.3774H32.3634H29.8742L29.9312 16.6548C29.9626 16.8074 30.1945 18.5663 30.4466 20.5635C30.6987 22.5607 30.9276 24.295 30.9554 24.4174C31.0098 24.6571 31.1615 24.6774 33.2907 24.7296L34.1087 24.7496L34.4822 20.9418ZM36.1004 24.4088C36.9857 24.0189 37.7418 23.4551 39.1567 22.1299C40.6087 20.77 40.9548 20.514 41.3417 20.5135C41.8826 20.5127 42.1662 21.1023 42.2981 22.5016C42.3721 23.2878 42.3502 23.2638 43.1064 23.3844C43.3292 23.42 43.5849 23.4704 43.6747 23.4965C43.8163 23.5376 43.8448 23.3866 43.8898 22.3563C43.9272 21.502 44.0048 20.9848 44.1666 20.5132L44.3914 19.8577L44.0317 19.548C43.8338 19.3776 43.4991 19.1817 43.2879 19.1126C42.6831 18.9147 41.2401 18.8608 40.1526 18.9954C39.1208 19.123 36.4977 19.7487 35.6122 20.0784L35.1058 20.2669L34.9417 21.8016C34.8515 22.6457 34.7455 23.661 34.7063 24.0578L34.6349 24.7791L35.0877 24.7173C35.3367 24.6833 35.7924 24.5445 36.1004 24.4088ZM30.3966 24.4129C30.3966 23.8871 29.8557 20.3524 29.7669 20.2977C29.7057 20.2601 28.8084 20.0635 27.7728 19.8609C25.5752 19.431 23.4624 19.2529 22.3774 19.4061C21.528 19.5261 20.7757 19.8307 20.7757 20.0547C20.7757 20.1416 21.2066 20.9322 21.7332 21.8115L22.6907 23.4102L25.3031 23.8255C30.1809 24.601 30.3966 24.6259 30.3966 24.4129ZM39.3593 23.5914C39.8606 23.4641 40.6011 23.3276 41.0049 23.288L41.7392 23.2161L41.7348 22.6463C41.7295 21.9652 41.6002 21.2421 41.4583 21.1008C41.2902 20.9333 40.9682 21.1678 39.5112 22.5189C38.1205 23.8086 37.9148 24.0348 38.2568 23.8988C38.3618 23.857 38.858 23.7187 39.3593 23.5914Z" fill="#DD6B54"/>
<path d="M13.1238 39.1042C10.9519 38.7879 9.28735 38.1843 8.68093 37.4932C8.31915 37.0809 8.32246 37.124 8.4315 34.2477L8.49706 32.5182L9.20173 32.9529C10.6979 33.876 12.5382 34.3588 14.5316 34.3512C16.9713 34.342 18.744 33.8455 21.8918 32.2897C26.1087 30.2055 28.4767 29.5341 30.8221 29.7577C32.3822 29.9065 33.4233 30.3353 34.5669 31.3003C35.319 31.9349 35.4909 32.3947 35.4998 33.7954C35.5075 35.0119 35.3144 36.5158 35.1163 36.7828C34.9001 37.0742 28.1994 38.2976 24.0338 38.8064C22.8941 38.9456 21.2792 39.105 20.4452 39.1606C18.2979 39.3037 14.281 39.2728 13.1238 39.1042V39.1042Z" fill="#FEFFFE"/>
<path d="M36.9878 37.1868C36.4773 37.0718 36.03 36.9472 35.9937 36.9099C35.9575 36.8725 36.0061 36.2622 36.1019 35.5536C36.4341 33.0953 36.1672 31.7733 35.1579 30.8776C33.5395 29.4414 31.6347 28.8691 29.1802 29.0816C27.0121 29.2692 25.393 29.8097 21.8053 31.5433C18.6255 33.0799 17.2982 33.4972 15.0534 33.6661C14.3118 33.7219 14.1242 33.7081 14.0862 33.5952C14.0367 33.4481 13.5227 28.0485 13.5227 27.6752C13.5227 27.4858 13.5964 27.5203 14.1205 27.9549C15.1917 28.8432 16.3203 29.2461 18.0175 29.346C20.7219 29.5051 24.1061 28.5454 28.7642 26.2984L30.7233 25.3534L33.0065 25.3684C35.1162 25.3822 35.3354 25.3668 35.8897 25.1657C36.2196 25.046 36.5269 24.9853 36.5725 25.0307C36.6619 25.1198 37.9945 36.9624 37.9455 37.2327C37.9188 37.3803 37.8284 37.376 36.9878 37.1868V37.1868Z" fill="#FEFFFE"/>
<path d="M38.8207 37.9153C37.4551 25.7773 37.3928 25.1173 37.5968 24.9437C37.8447 24.7327 39.502 24.13 39.6638 24.1919C39.7307 24.2176 39.817 24.4572 39.8556 24.7245C39.9646 25.4783 40.2781 26.6611 40.8782 28.5817C41.9189 31.9125 42.1082 33.3695 41.8809 36.3007C41.7959 37.3963 41.7016 38.4398 41.6714 38.6197L41.6163 38.9468H40.2765H38.9367L38.8207 37.9153Z" fill="#FEFFFE"/>
<path d="M42.5733 32.4824C42.5078 31.9677 42.3158 30.9802 42.1467 30.2878C41.9775 29.5954 41.8585 28.9782 41.8821 28.9163C41.9857 28.6453 44.8853 28.0407 46.1774 28.0207C47.2066 28.0048 47.8924 28.1512 48.2807 28.4698L48.5204 28.6665L48.0918 29.9042C47.856 30.585 47.4828 31.6541 47.2624 32.2801L46.8616 33.4182H44.777H42.6924L42.5733 32.4824Z" fill="#FEFFFE"/>
<path d="M42.4636 37.6383C42.4953 37.5172 42.5763 36.6943 42.6437 35.8097L42.7662 34.2012H44.4636H46.161L45.9305 35.2424C45.8037 35.8151 45.6228 36.638 45.5286 37.071L45.3574 37.8583H43.8817C42.4183 37.8583 42.4065 37.8565 42.4636 37.6383V37.6383Z" fill="#FEFFFE"/>
<path d="M41.0975 26.7708C40.7488 25.5496 40.5247 24.5241 40.5247 24.1507C40.5247 23.987 40.6317 23.9707 41.7111 23.9707C43.0329 23.9707 43.7239 24.108 44.7577 24.5761L45.4182 24.8751L45.2863 26.0746C45.2138 26.7343 45.1398 27.2885 45.1219 27.3061C45.104 27.3237 44.7076 27.4085 44.241 27.4945C43.7744 27.5805 43.0455 27.7372 42.6212 27.8427C41.4091 28.1441 41.5097 28.2148 41.0975 26.7708V26.7708Z" fill="#FEFFFE"/>
<path d="M34.7573 24.5939C34.7573 24.5707 34.8483 23.6759 34.9596 22.6056C35.0709 21.5353 35.1619 20.5806 35.1619 20.4841C35.1619 20.3524 35.3697 20.2434 35.9963 20.0468C39.2835 19.0149 42.1053 18.7282 43.4228 19.2923C44.2641 19.6525 44.3162 19.7528 44.0576 20.5138C43.9121 20.9419 43.8226 21.5165 43.7857 22.2601L43.7306 23.3683L43.1125 23.2583L42.4945 23.1483L42.4135 22.5511C42.2492 21.3389 42.1194 20.8714 41.8815 20.6357C41.3545 20.1133 40.8793 20.3591 38.9361 22.1585C37.6409 23.358 37.0994 23.7619 36.1837 24.2123C35.662 24.4688 34.7573 24.7109 34.7573 24.5939V24.5939Z" fill="#FEFFFE"/>
<path d="M31.6482 24.5467L31.0399 24.4877L30.5755 20.893C30.3201 18.9159 30.0849 17.1046 30.0529 16.8679L29.9948 16.4375H32.3978H34.8009L34.7702 16.7666C34.7533 16.9476 34.58 18.7448 34.385 20.7603C34.1901 22.7759 34.0306 24.4733 34.0306 24.5323C34.0306 24.6462 32.7547 24.6538 31.6482 24.5467V24.5467Z" fill="#FEFFFE"/>
<path d="M39.5246 22.6719C40.73 21.5267 41.3177 21.055 41.4169 21.1533C41.5314 21.2666 41.6558 21.9858 41.6582 22.548L41.6606 23.117L41.0788 23.1785C40.5252 23.2371 38.8459 23.5851 38.5247 23.7078C38.4416 23.7396 38.8915 23.2734 39.5246 22.6719V22.6719Z" fill="#FEFFFE"/>
<path d="M28.8834 24.2612C28.3545 24.1856 26.7601 23.9358 25.3403 23.7063L22.7589 23.2889L21.8621 21.7839C21.3689 20.9561 20.9589 20.1985 20.9511 20.1002C20.9149 19.6494 22.4675 19.3151 24.1255 19.4168C25.7038 19.5136 29.4998 20.1601 29.7228 20.3702C29.7852 20.4289 30.3007 23.9678 30.3007 24.3372C30.3007 24.4432 30.0697 24.4309 28.8834 24.2612V24.2612Z" fill="#FEFFFE"/>
<path d="M20.1397 27.6282C19.9786 25.5065 19.9393 23.5352 20.0582 23.5352C20.1239 23.5352 21.1239 23.7115 22.2805 23.9269C24.178 24.2804 26.2814 24.6224 28.6954 24.9697L29.5578 25.0938L28.1709 25.769C25.7052 26.9692 23.4415 27.8176 21.5235 28.2603C20.1595 28.5752 20.2135 28.5999 20.1397 27.6282Z" fill="#FEFFFE"/>
</svg>
